%TF.GenerationSoftware,KiCad,Pcbnew,8.0.1*%
%TF.CreationDate,2024-05-26T01:43:18+02:00*%
%TF.ProjectId,KeyboardTest2_right,4b657962-6f61-4726-9454-657374325f72,rev?*%
%TF.SameCoordinates,Original*%
%TF.FileFunction,Legend,Bot*%
%TF.FilePolarity,Positive*%
%FSLAX46Y46*%
G04 Gerber Fmt 4.6, Leading zero omitted, Abs format (unit mm)*
G04 Created by KiCad (PCBNEW 8.0.1) date 2024-05-26 01:43:18*
%MOMM*%
%LPD*%
G01*
G04 APERTURE LIST*
%ADD10C,0.150000*%
%ADD11C,0.120000*%
G04 APERTURE END LIST*
D10*
X159083333Y-60954819D02*
X159083333Y-61669104D01*
X159083333Y-61669104D02*
X159130952Y-61811961D01*
X159130952Y-61811961D02*
X159226190Y-61907200D01*
X159226190Y-61907200D02*
X159369047Y-61954819D01*
X159369047Y-61954819D02*
X159464285Y-61954819D01*
X158083333Y-61954819D02*
X158654761Y-61954819D01*
X158369047Y-61954819D02*
X158369047Y-60954819D01*
X158369047Y-60954819D02*
X158464285Y-61097676D01*
X158464285Y-61097676D02*
X158559523Y-61192914D01*
X158559523Y-61192914D02*
X158654761Y-61240533D01*
X165833333Y-58124819D02*
X165833333Y-58839104D01*
X165833333Y-58839104D02*
X165880952Y-58981961D01*
X165880952Y-58981961D02*
X165976190Y-59077200D01*
X165976190Y-59077200D02*
X166119047Y-59124819D01*
X166119047Y-59124819D02*
X166214285Y-59124819D01*
X165404761Y-58220057D02*
X165357142Y-58172438D01*
X165357142Y-58172438D02*
X165261904Y-58124819D01*
X165261904Y-58124819D02*
X165023809Y-58124819D01*
X165023809Y-58124819D02*
X164928571Y-58172438D01*
X164928571Y-58172438D02*
X164880952Y-58220057D01*
X164880952Y-58220057D02*
X164833333Y-58315295D01*
X164833333Y-58315295D02*
X164833333Y-58410533D01*
X164833333Y-58410533D02*
X164880952Y-58553390D01*
X164880952Y-58553390D02*
X165452380Y-59124819D01*
X165452380Y-59124819D02*
X164833333Y-59124819D01*
X159761904Y-24939819D02*
X159761904Y-25749342D01*
X159761904Y-25749342D02*
X159714285Y-25844580D01*
X159714285Y-25844580D02*
X159666666Y-25892200D01*
X159666666Y-25892200D02*
X159571428Y-25939819D01*
X159571428Y-25939819D02*
X159380952Y-25939819D01*
X159380952Y-25939819D02*
X159285714Y-25892200D01*
X159285714Y-25892200D02*
X159238095Y-25844580D01*
X159238095Y-25844580D02*
X159190476Y-25749342D01*
X159190476Y-25749342D02*
X159190476Y-24939819D01*
X158761904Y-25892200D02*
X158619047Y-25939819D01*
X158619047Y-25939819D02*
X158380952Y-25939819D01*
X158380952Y-25939819D02*
X158285714Y-25892200D01*
X158285714Y-25892200D02*
X158238095Y-25844580D01*
X158238095Y-25844580D02*
X158190476Y-25749342D01*
X158190476Y-25749342D02*
X158190476Y-25654104D01*
X158190476Y-25654104D02*
X158238095Y-25558866D01*
X158238095Y-25558866D02*
X158285714Y-25511247D01*
X158285714Y-25511247D02*
X158380952Y-25463628D01*
X158380952Y-25463628D02*
X158571428Y-25416009D01*
X158571428Y-25416009D02*
X158666666Y-25368390D01*
X158666666Y-25368390D02*
X158714285Y-25320771D01*
X158714285Y-25320771D02*
X158761904Y-25225533D01*
X158761904Y-25225533D02*
X158761904Y-25130295D01*
X158761904Y-25130295D02*
X158714285Y-25035057D01*
X158714285Y-25035057D02*
X158666666Y-24987438D01*
X158666666Y-24987438D02*
X158571428Y-24939819D01*
X158571428Y-24939819D02*
X158333333Y-24939819D01*
X158333333Y-24939819D02*
X158190476Y-24987438D01*
X157428571Y-25416009D02*
X157285714Y-25463628D01*
X157285714Y-25463628D02*
X157238095Y-25511247D01*
X157238095Y-25511247D02*
X157190476Y-25606485D01*
X157190476Y-25606485D02*
X157190476Y-25749342D01*
X157190476Y-25749342D02*
X157238095Y-25844580D01*
X157238095Y-25844580D02*
X157285714Y-25892200D01*
X157285714Y-25892200D02*
X157380952Y-25939819D01*
X157380952Y-25939819D02*
X157761904Y-25939819D01*
X157761904Y-25939819D02*
X157761904Y-24939819D01*
X157761904Y-24939819D02*
X157428571Y-24939819D01*
X157428571Y-24939819D02*
X157333333Y-24987438D01*
X157333333Y-24987438D02*
X157285714Y-25035057D01*
X157285714Y-25035057D02*
X157238095Y-25130295D01*
X157238095Y-25130295D02*
X157238095Y-25225533D01*
X157238095Y-25225533D02*
X157285714Y-25320771D01*
X157285714Y-25320771D02*
X157333333Y-25368390D01*
X157333333Y-25368390D02*
X157428571Y-25416009D01*
X157428571Y-25416009D02*
X157761904Y-25416009D01*
X161119047Y-26673152D02*
X160738095Y-26673152D01*
X160976190Y-26339819D02*
X160976190Y-27196961D01*
X160976190Y-27196961D02*
X160928571Y-27292200D01*
X160928571Y-27292200D02*
X160833333Y-27339819D01*
X160833333Y-27339819D02*
X160738095Y-27339819D01*
X160261904Y-27339819D02*
X160357142Y-27292200D01*
X160357142Y-27292200D02*
X160404761Y-27244580D01*
X160404761Y-27244580D02*
X160452380Y-27149342D01*
X160452380Y-27149342D02*
X160452380Y-26863628D01*
X160452380Y-26863628D02*
X160404761Y-26768390D01*
X160404761Y-26768390D02*
X160357142Y-26720771D01*
X160357142Y-26720771D02*
X160261904Y-26673152D01*
X160261904Y-26673152D02*
X160119047Y-26673152D01*
X160119047Y-26673152D02*
X160023809Y-26720771D01*
X160023809Y-26720771D02*
X159976190Y-26768390D01*
X159976190Y-26768390D02*
X159928571Y-26863628D01*
X159928571Y-26863628D02*
X159928571Y-27149342D01*
X159928571Y-27149342D02*
X159976190Y-27244580D01*
X159976190Y-27244580D02*
X160023809Y-27292200D01*
X160023809Y-27292200D02*
X160119047Y-27339819D01*
X160119047Y-27339819D02*
X160261904Y-27339819D01*
X159499999Y-26673152D02*
X159499999Y-27673152D01*
X159499999Y-26720771D02*
X159404761Y-26673152D01*
X159404761Y-26673152D02*
X159214285Y-26673152D01*
X159214285Y-26673152D02*
X159119047Y-26720771D01*
X159119047Y-26720771D02*
X159071428Y-26768390D01*
X159071428Y-26768390D02*
X159023809Y-26863628D01*
X159023809Y-26863628D02*
X159023809Y-27149342D01*
X159023809Y-27149342D02*
X159071428Y-27244580D01*
X159071428Y-27244580D02*
X159119047Y-27292200D01*
X159119047Y-27292200D02*
X159214285Y-27339819D01*
X159214285Y-27339819D02*
X159404761Y-27339819D01*
X159404761Y-27339819D02*
X159499999Y-27292200D01*
X158642856Y-27292200D02*
X158547618Y-27339819D01*
X158547618Y-27339819D02*
X158357142Y-27339819D01*
X158357142Y-27339819D02*
X158261904Y-27292200D01*
X158261904Y-27292200D02*
X158214285Y-27196961D01*
X158214285Y-27196961D02*
X158214285Y-27149342D01*
X158214285Y-27149342D02*
X158261904Y-27054104D01*
X158261904Y-27054104D02*
X158357142Y-27006485D01*
X158357142Y-27006485D02*
X158499999Y-27006485D01*
X158499999Y-27006485D02*
X158595237Y-26958866D01*
X158595237Y-26958866D02*
X158642856Y-26863628D01*
X158642856Y-26863628D02*
X158642856Y-26816009D01*
X158642856Y-26816009D02*
X158595237Y-26720771D01*
X158595237Y-26720771D02*
X158499999Y-26673152D01*
X158499999Y-26673152D02*
X158357142Y-26673152D01*
X158357142Y-26673152D02*
X158261904Y-26720771D01*
X157785713Y-27339819D02*
X157785713Y-26673152D01*
X157785713Y-26339819D02*
X157833332Y-26387438D01*
X157833332Y-26387438D02*
X157785713Y-26435057D01*
X157785713Y-26435057D02*
X157738094Y-26387438D01*
X157738094Y-26387438D02*
X157785713Y-26339819D01*
X157785713Y-26339819D02*
X157785713Y-26435057D01*
X156880952Y-27339819D02*
X156880952Y-26339819D01*
X156880952Y-27292200D02*
X156976190Y-27339819D01*
X156976190Y-27339819D02*
X157166666Y-27339819D01*
X157166666Y-27339819D02*
X157261904Y-27292200D01*
X157261904Y-27292200D02*
X157309523Y-27244580D01*
X157309523Y-27244580D02*
X157357142Y-27149342D01*
X157357142Y-27149342D02*
X157357142Y-26863628D01*
X157357142Y-26863628D02*
X157309523Y-26768390D01*
X157309523Y-26768390D02*
X157261904Y-26720771D01*
X157261904Y-26720771D02*
X157166666Y-26673152D01*
X157166666Y-26673152D02*
X156976190Y-26673152D01*
X156976190Y-26673152D02*
X156880952Y-26720771D01*
X156023809Y-27292200D02*
X156119047Y-27339819D01*
X156119047Y-27339819D02*
X156309523Y-27339819D01*
X156309523Y-27339819D02*
X156404761Y-27292200D01*
X156404761Y-27292200D02*
X156452380Y-27196961D01*
X156452380Y-27196961D02*
X156452380Y-26816009D01*
X156452380Y-26816009D02*
X156404761Y-26720771D01*
X156404761Y-26720771D02*
X156309523Y-26673152D01*
X156309523Y-26673152D02*
X156119047Y-26673152D01*
X156119047Y-26673152D02*
X156023809Y-26720771D01*
X156023809Y-26720771D02*
X155976190Y-26816009D01*
X155976190Y-26816009D02*
X155976190Y-26911247D01*
X155976190Y-26911247D02*
X156452380Y-27006485D01*
X165834285Y-26969819D02*
X166405713Y-26969819D01*
X166119999Y-26969819D02*
X166119999Y-25969819D01*
X166119999Y-25969819D02*
X166215237Y-26112676D01*
X166215237Y-26112676D02*
X166310475Y-26207914D01*
X166310475Y-26207914D02*
X166405713Y-26255533D01*
D11*
%TO.C,J1*%
X152880000Y-72000000D02*
X152880000Y-64330000D01*
X154100000Y-64330000D02*
X152880000Y-64330000D01*
X154600000Y-70670000D02*
X154600000Y-72000000D01*
X155700000Y-64330000D02*
X158100000Y-64330000D01*
X159700000Y-64330000D02*
X161100000Y-64330000D01*
X162700000Y-64330000D02*
X165220000Y-64330000D01*
X165220000Y-64330000D02*
X165220000Y-64880000D01*
X165220000Y-64880000D02*
X167220000Y-64880000D01*
X165220000Y-70120000D02*
X165220000Y-70670000D01*
X165220000Y-70670000D02*
X154600000Y-70670000D01*
X167220000Y-64880000D02*
X167220000Y-70120000D01*
X167220000Y-70120000D02*
X165220000Y-70120000D01*
D10*
%TO.C,J2*%
X154950000Y-24490000D02*
X154950000Y-28070000D01*
X162050000Y-24490000D02*
X162050000Y-28070000D01*
X162050000Y-28070000D02*
X154950000Y-28070000D01*
X149610000Y-57510000D02*
X167390000Y-57510000D01*
X167390000Y-24490000D01*
X149610000Y-24490000D01*
X149610000Y-57510000D01*
%TD*%
M02*
