%TF.GenerationSoftware,KiCad,Pcbnew,8.0.1*%
%TF.CreationDate,2024-05-26T01:43:18+02:00*%
%TF.ProjectId,KeyboardTest2_right,4b657962-6f61-4726-9454-657374325f72,rev?*%
%TF.SameCoordinates,Original*%
%TF.FileFunction,Soldermask,Bot*%
%TF.FilePolarity,Negative*%
%FSLAX46Y46*%
G04 Gerber Fmt 4.6, Leading zero omitted, Abs format (unit mm)*
G04 Created by KiCad (PCBNEW 8.0.1) date 2024-05-26 01:43:18*
%MOMM*%
%LPD*%
G01*
G04 APERTURE LIST*
%ADD10C,1.750000*%
%ADD11C,3.987800*%
%ADD12C,3.300000*%
%ADD13C,1.600000*%
%ADD14R,1.200000X2.500000*%
G04 APERTURE END LIST*
D10*
%TO.C,MX15*%
X96931274Y-66532746D03*
D11*
X102011274Y-66532746D03*
D10*
X107091274Y-66532746D03*
D12*
X105821274Y-63992746D03*
X99471274Y-61452746D03*
%TD*%
D10*
%TO.C,MX13*%
X134917588Y-70550215D03*
D11*
X139997588Y-70550215D03*
D10*
X145077588Y-70550215D03*
D12*
X143807588Y-68010215D03*
X137457588Y-65470215D03*
%TD*%
D10*
%TO.C,MX17*%
X58440747Y-73557919D03*
D11*
X63520747Y-73557919D03*
D10*
X68600747Y-73557919D03*
D12*
X67330747Y-71017919D03*
X60980747Y-68477919D03*
%TD*%
D10*
%TO.C,MX14*%
X115916637Y-68100511D03*
D11*
X120996637Y-68100511D03*
D10*
X126076637Y-68100511D03*
D12*
X124806637Y-65560511D03*
X118456637Y-63020511D03*
%TD*%
D10*
%TO.C,MX10*%
X77402680Y-49038478D03*
D11*
X82482680Y-49038478D03*
D10*
X87562680Y-49038478D03*
D12*
X86292680Y-46498478D03*
X79942680Y-43958478D03*
%TD*%
D10*
%TO.C,MX2*%
X115897651Y-29958105D03*
D11*
X120977651Y-29958105D03*
D10*
X126057651Y-29958105D03*
D12*
X124787651Y-27418105D03*
X118437651Y-24878105D03*
%TD*%
D10*
%TO.C,MX11*%
X58420000Y-54500000D03*
D11*
X63500000Y-54500000D03*
D10*
X68580000Y-54500000D03*
D12*
X67310000Y-51960000D03*
X60960000Y-49420000D03*
%TD*%
D10*
%TO.C,MX16*%
X77463105Y-68063757D03*
D11*
X82543105Y-68063757D03*
D10*
X87623105Y-68063757D03*
D12*
X86353105Y-65523757D03*
X80003105Y-62983757D03*
%TD*%
D10*
%TO.C,MX18*%
X39470654Y-73557919D03*
D11*
X44550654Y-73557919D03*
D10*
X49630654Y-73557919D03*
D12*
X48360654Y-71017919D03*
X42010654Y-68477919D03*
%TD*%
D10*
%TO.C,MX3*%
X96901481Y-28429484D03*
D11*
X101981481Y-28429484D03*
D10*
X107061481Y-28429484D03*
D12*
X105791481Y-25889484D03*
X99441481Y-23349484D03*
%TD*%
D10*
%TO.C,MX5*%
X58395405Y-35462351D03*
D11*
X63475405Y-35462351D03*
D10*
X68555405Y-35462351D03*
D12*
X67285405Y-32922351D03*
X60935405Y-30382351D03*
%TD*%
D10*
%TO.C,MX9*%
X96920000Y-47500000D03*
D11*
X102000000Y-47500000D03*
D10*
X107080000Y-47500000D03*
D12*
X105810000Y-44960000D03*
X99460000Y-42420000D03*
%TD*%
D10*
%TO.C,MX21*%
X107920000Y-88000000D03*
D11*
X113000000Y-88000000D03*
D10*
X118080000Y-88000000D03*
D12*
X116810000Y-85460000D03*
X110460000Y-82920000D03*
%TD*%
D10*
%TO.C,MX4*%
X77420000Y-30000000D03*
D11*
X82500000Y-30000000D03*
D10*
X87580000Y-30000000D03*
D12*
X86310000Y-27460000D03*
X79960000Y-24920000D03*
%TD*%
D10*
%TO.C,MX1*%
X134913512Y-32443893D03*
D11*
X139993512Y-32443893D03*
D10*
X145073512Y-32443893D03*
D12*
X143803512Y-29903893D03*
X137453512Y-27363893D03*
%TD*%
D10*
%TO.C,MX6*%
X39365498Y-35492259D03*
D11*
X44445498Y-35492259D03*
D10*
X49525498Y-35492259D03*
D12*
X48255498Y-32952259D03*
X41905498Y-30412259D03*
%TD*%
D10*
%TO.C,MX12*%
X39420000Y-54500000D03*
D11*
X44500000Y-54500000D03*
D10*
X49580000Y-54500000D03*
D12*
X48310000Y-51960000D03*
X41960000Y-49420000D03*
%TD*%
D10*
%TO.C,MX7*%
X134920000Y-51500000D03*
D11*
X140000000Y-51500000D03*
D10*
X145080000Y-51500000D03*
D12*
X143810000Y-48960000D03*
X137460000Y-46420000D03*
%TD*%
D10*
%TO.C,MX20*%
X129593097Y-89185200D03*
D11*
X134500000Y-90500000D03*
D10*
X139406903Y-91814800D03*
D12*
X138837578Y-89032649D03*
X133361350Y-84935696D03*
%TD*%
D10*
%TO.C,MX19*%
X149027826Y-87918119D03*
D11*
X153631870Y-90065020D03*
D10*
X158235914Y-92211921D03*
D12*
X158158353Y-89373174D03*
X153476749Y-84387526D03*
%TD*%
D10*
%TO.C,MX8*%
X115920000Y-49000000D03*
D11*
X121000000Y-49000000D03*
D10*
X126080000Y-49000000D03*
D12*
X124810000Y-46460000D03*
X118460000Y-43920000D03*
%TD*%
D13*
%TO.C,J1*%
X163500000Y-67500000D03*
X156500000Y-67500000D03*
D14*
X158900000Y-64250000D03*
X161900000Y-64250000D03*
X153800000Y-70750000D03*
X154900000Y-64250000D03*
%TD*%
M02*
