%TF.GenerationSoftware,KiCad,Pcbnew,8.0.1*%
%TF.CreationDate,2024-05-26T01:43:19+02:00*%
%TF.ProjectId,KeyboardTest2_right,4b657962-6f61-4726-9454-657374325f72,rev?*%
%TF.SameCoordinates,Original*%
%TF.FileFunction,Profile,NP*%
%FSLAX46Y46*%
G04 Gerber Fmt 4.6, Leading zero omitted, Abs format (unit mm)*
G04 Created by KiCad (PCBNEW 8.0.1) date 2024-05-26 01:43:19*
%MOMM*%
%LPD*%
G01*
G04 APERTURE LIST*
%TA.AperFunction,Profile*%
%ADD10C,0.050000*%
%TD*%
G04 APERTURE END LIST*
D10*
X111000000Y-21250000D02*
X129500000Y-21250000D01*
X71736068Y-22500000D02*
G75*
G02*
X67263932Y-22500000I-2236068J0D01*
G01*
X67263932Y-22500000D02*
G75*
G02*
X71736068Y-22500000I2236068J0D01*
G01*
X130000000Y-21250000D02*
X130000000Y-24250000D01*
X65500000Y-18500000D02*
X65500000Y-26500000D01*
X149000000Y-24250000D02*
X167500000Y-24250000D01*
X92500000Y-82750000D02*
X103500000Y-97750000D01*
X167500000Y-24250000D02*
X167500000Y-88750000D01*
X111000000Y-19000000D02*
X111000000Y-18500000D01*
X140500000Y-103250000D02*
X121500000Y-97750000D01*
X73000000Y-82750000D02*
X92500000Y-82750000D01*
X36000000Y-26500000D02*
X36000000Y-26750000D01*
X111000000Y-18500000D02*
X65500000Y-18500000D01*
X36000000Y-82750000D02*
X36000000Y-26750000D01*
X167500000Y-88750000D02*
X160000000Y-103250000D01*
X73000000Y-82750000D02*
X55000000Y-82750000D01*
X101236068Y-80000000D02*
G75*
G02*
X96763932Y-80000000I-2236068J0D01*
G01*
X96763932Y-80000000D02*
G75*
G02*
X101236068Y-80000000I2236068J0D01*
G01*
X121500000Y-97750000D02*
X103500000Y-97750000D01*
X111000000Y-19250000D02*
X111000000Y-21250000D01*
X160000000Y-103250000D02*
X140500000Y-103250000D01*
X55000000Y-82750000D02*
X36000000Y-82750000D01*
X129500000Y-21250000D02*
X130000000Y-21250000D01*
X158236068Y-76763933D02*
G75*
G02*
X153763932Y-76763933I-2236068J0D01*
G01*
X153763932Y-76763933D02*
G75*
G02*
X158236068Y-76763933I2236068J0D01*
G01*
X65500000Y-26500000D02*
X36000000Y-26500000D01*
X130000000Y-24250000D02*
X149000000Y-24250000D01*
X111000000Y-19250000D02*
X111000000Y-19000000D01*
M02*
