%TF.GenerationSoftware,KiCad,Pcbnew,8.0.1*%
%TF.CreationDate,2024-05-26T01:43:18+02:00*%
%TF.ProjectId,KeyboardTest2_right,4b657962-6f61-4726-9454-657374325f72,rev?*%
%TF.SameCoordinates,Original*%
%TF.FileFunction,Paste,Top*%
%TF.FilePolarity,Positive*%
%FSLAX46Y46*%
G04 Gerber Fmt 4.6, Leading zero omitted, Abs format (unit mm)*
G04 Created by KiCad (PCBNEW 8.0.1) date 2024-05-26 01:43:18*
%MOMM*%
%LPD*%
G01*
G04 APERTURE LIST*
G04 Aperture macros list*
%AMRoundRect*
0 Rectangle with rounded corners*
0 $1 Rounding radius*
0 $2 $3 $4 $5 $6 $7 $8 $9 X,Y pos of 4 corners*
0 Add a 4 corners polygon primitive as box body*
4,1,4,$2,$3,$4,$5,$6,$7,$8,$9,$2,$3,0*
0 Add four circle primitives for the rounded corners*
1,1,$1+$1,$2,$3*
1,1,$1+$1,$4,$5*
1,1,$1+$1,$6,$7*
1,1,$1+$1,$8,$9*
0 Add four rect primitives between the rounded corners*
20,1,$1+$1,$2,$3,$4,$5,0*
20,1,$1+$1,$4,$5,$6,$7,0*
20,1,$1+$1,$6,$7,$8,$9,0*
20,1,$1+$1,$8,$9,$2,$3,0*%
G04 Aperture macros list end*
%ADD10RoundRect,0.250000X-1.025000X-1.000000X1.025000X-1.000000X1.025000X1.000000X-1.025000X1.000000X0*%
%ADD11RoundRect,0.225000X0.375000X-0.225000X0.375000X0.225000X-0.375000X0.225000X-0.375000X-0.225000X0*%
%ADD12RoundRect,0.225000X0.225000X0.375000X-0.225000X0.375000X-0.225000X-0.375000X0.225000X-0.375000X0*%
%ADD13RoundRect,0.250000X-1.248893X-0.700636X0.731255X-1.231215X1.248893X0.700636X-0.731255X1.231215X0*%
%ADD14RoundRect,0.225000X-0.375000X0.225000X-0.375000X-0.225000X0.375000X-0.225000X0.375000X0.225000X0*%
%ADD15RoundRect,0.250000X-1.351584X-0.473124X0.506347X-1.339492X1.351584X0.473124X-0.506347X1.339492X0*%
G04 APERTURE END LIST*
D10*
%TO.C,MX15*%
X109371274Y-63992746D03*
X95921274Y-61452746D03*
%TD*%
%TO.C,MX13*%
X147357588Y-68010215D03*
X133907588Y-65470215D03*
%TD*%
%TO.C,MX17*%
X70880747Y-71017919D03*
X57430747Y-68477919D03*
%TD*%
%TO.C,MX14*%
X128356637Y-65560511D03*
X114906637Y-63020511D03*
%TD*%
D11*
%TO.C,D12*%
X38805901Y-60267488D03*
X38805901Y-56967488D03*
%TD*%
D10*
%TO.C,MX10*%
X89842680Y-46498478D03*
X76392680Y-43958478D03*
%TD*%
%TO.C,MX2*%
X128337651Y-27418105D03*
X114887651Y-24878105D03*
%TD*%
%TO.C,MX11*%
X70860000Y-51960000D03*
X57410000Y-49420000D03*
%TD*%
D11*
%TO.C,D1*%
X134493512Y-38593893D03*
X134493512Y-35293893D03*
%TD*%
%TO.C,D2*%
X115437651Y-35528105D03*
X115437651Y-32228105D03*
%TD*%
D10*
%TO.C,MX16*%
X89903105Y-65523757D03*
X76453105Y-62983757D03*
%TD*%
D12*
%TO.C,D20*%
X138650000Y-96000000D03*
X135350000Y-96000000D03*
%TD*%
D11*
%TO.C,D16*%
X76902680Y-73838478D03*
X76902680Y-70538478D03*
%TD*%
D10*
%TO.C,MX18*%
X51910654Y-71017919D03*
X38460654Y-68477919D03*
%TD*%
D11*
%TO.C,D7*%
X134493512Y-57243893D03*
X134493512Y-53943893D03*
%TD*%
D10*
%TO.C,MX3*%
X109341481Y-25889484D03*
X95891481Y-23349484D03*
%TD*%
%TO.C,MX5*%
X70835405Y-32922351D03*
X57385405Y-30382351D03*
%TD*%
D11*
%TO.C,D10*%
X76902680Y-54838478D03*
X76902680Y-51538478D03*
%TD*%
%TO.C,D14*%
X115437651Y-73528105D03*
X115437651Y-70228105D03*
%TD*%
D10*
%TO.C,MX9*%
X109360000Y-44960000D03*
X95910000Y-42420000D03*
%TD*%
%TO.C,MX21*%
X120360000Y-85460000D03*
X106910000Y-82920000D03*
%TD*%
%TO.C,MX4*%
X89860000Y-27460000D03*
X76410000Y-24920000D03*
%TD*%
%TO.C,MX1*%
X147353512Y-29903893D03*
X133903512Y-27363893D03*
%TD*%
%TO.C,MX6*%
X51805498Y-32952259D03*
X38355498Y-30412259D03*
%TD*%
D11*
%TO.C,D3*%
X96421895Y-34191173D03*
X96421895Y-30891173D03*
%TD*%
D10*
%TO.C,MX12*%
X51860000Y-51960000D03*
X38410000Y-49420000D03*
%TD*%
D12*
%TO.C,D21*%
X118150000Y-93000000D03*
X114850000Y-93000000D03*
%TD*%
D10*
%TO.C,MX7*%
X147360000Y-48960000D03*
X133910000Y-46420000D03*
%TD*%
D13*
%TO.C,MX20*%
X142266615Y-89951457D03*
X129932312Y-84016889D03*
%TD*%
D11*
%TO.C,D4*%
X76902680Y-35838478D03*
X76902680Y-32538478D03*
%TD*%
%TO.C,D18*%
X38805901Y-79267488D03*
X38805901Y-75967488D03*
%TD*%
D14*
%TO.C,D19*%
X164500000Y-77850000D03*
X164500000Y-81150000D03*
%TD*%
D11*
%TO.C,D13*%
X134493512Y-76093893D03*
X134493512Y-72793893D03*
%TD*%
%TO.C,D15*%
X97203984Y-72100737D03*
X97203984Y-68800737D03*
%TD*%
D15*
%TO.C,MX19*%
X161375746Y-90873469D03*
X150259356Y-82887232D03*
%TD*%
D11*
%TO.C,D17*%
X57856947Y-79267488D03*
X57856947Y-75967488D03*
%TD*%
%TO.C,D9*%
X96421895Y-53541173D03*
X96421895Y-50241173D03*
%TD*%
%TO.C,D5*%
X57856947Y-41417488D03*
X57856947Y-38117488D03*
%TD*%
%TO.C,D8*%
X115437651Y-54528105D03*
X115437651Y-51228105D03*
%TD*%
D10*
%TO.C,MX8*%
X128360000Y-46460000D03*
X114910000Y-43920000D03*
%TD*%
D11*
%TO.C,D11*%
X57856947Y-60267488D03*
X57856947Y-56967488D03*
%TD*%
%TO.C,D6*%
X38805901Y-41417488D03*
X38805901Y-38117488D03*
%TD*%
M02*
