M48
; DRILL file {KiCad 8.0.1} date 2024-05-26T01:43:12+0200
; FORMAT={-:-/ absolute / metric / decimal}
; #@! TF.CreationDate,2024-05-26T01:43:12+02:00
; #@! TF.GenerationSoftware,Kicad,Pcbnew,8.0.1
; #@! TF.FileFunction,Plated,1,2,PTH
FMAT,2
METRIC
; #@! TA.AperFunction,Plated,PTH,ViaDrill
T1C0.300
; #@! TA.AperFunction,Plated,PTH,ComponentDrill
T2C1.000
; #@! TA.AperFunction,Plated,PTH,ComponentDrill
T3C3.000
%
G90
G05
T1
X47.0Y-41.5
X47.5Y-60.0
X48.255Y-47.0
X49.5Y-41.5
X50.0Y-60.0
X65.5Y-59.5
X66.0Y-41.0
X67.285Y-46.0
X69.0Y-41.0
X69.0Y-59.5
X85.0Y-34.5
X85.0Y-54.0
X86.293Y-40.5
X88.0Y-34.5
X88.5Y-54.0
X104.0Y-34.0
X105.0Y-55.0
X105.791Y-39.0
X107.0Y-55.0
X107.5Y-34.0
X123.5Y-35.5
X123.5Y-57.5
X124.81Y-40.0
X126.5Y-35.5
X126.5Y-57.5
X127.0Y-84.0
X141.0Y-96.0
X142.5Y-38.5
X142.5Y-56.0
X145.5Y-38.5
X146.0Y-56.0
X153.0Y-32.0
X153.0Y-60.5
X153.5Y-65.0
X157.5Y-48.5
X158.5Y-51.0
X159.0Y-71.5
X159.5Y-46.5
X160.5Y-84.0
X163.0Y-43.0
X163.0Y-71.5
X164.0Y-61.0
T2
X150.88Y-28.3
X150.88Y-30.84
X150.88Y-33.38
X150.88Y-35.92
X150.88Y-38.46
X150.88Y-41.0
X150.88Y-43.54
X150.88Y-46.08
X150.88Y-48.62
X150.88Y-51.16
X150.88Y-53.7
X150.88Y-56.24
X166.12Y-28.3
X166.12Y-30.84
X166.12Y-33.38
X166.12Y-35.92
X166.12Y-38.46
X166.12Y-41.0
X166.12Y-43.54
X166.12Y-46.08
X166.12Y-48.62
X166.12Y-51.16
X166.12Y-53.7
X166.12Y-56.24
T3
X41.905Y-30.412
X41.96Y-49.42
X42.011Y-68.478
X48.255Y-32.952
X48.31Y-51.96
X48.361Y-71.018
X60.935Y-30.382
X60.96Y-49.42
X60.981Y-68.478
X67.285Y-32.922
X67.31Y-51.96
X67.331Y-71.018
X79.943Y-43.958
X79.96Y-24.92
X80.003Y-62.984
X86.293Y-46.498
X86.31Y-27.46
X86.353Y-65.524
X99.441Y-23.349
X99.46Y-42.42
X99.471Y-61.453
X105.791Y-25.889
X105.81Y-44.96
X105.821Y-63.993
X110.46Y-82.92
X116.81Y-85.46
X118.438Y-24.878
X118.457Y-63.021
X118.46Y-43.92
X124.788Y-27.418
X124.807Y-65.561
X124.81Y-46.46
X133.361Y-84.936
X137.454Y-27.364
X137.458Y-65.47
X137.46Y-46.42
X138.838Y-89.033
X143.804Y-29.904
X143.808Y-68.01
X143.81Y-48.96
X153.477Y-84.388
X158.158Y-89.373
M30
