%TF.GenerationSoftware,KiCad,Pcbnew,8.0.1*%
%TF.CreationDate,2024-05-26T01:43:09+02:00*%
%TF.ProjectId,KeyboardTest2_right,4b657962-6f61-4726-9454-657374325f72,rev?*%
%TF.SameCoordinates,Original*%
%TF.FileFunction,Drillmap*%
%TF.FilePolarity,Positive*%
%FSLAX45Y45*%
G04 Gerber Fmt 4.5, Leading zero omitted, Abs format (unit mm)*
G04 Created by KiCad (PCBNEW 8.0.1) date 2024-05-26 01:43:09*
%MOMM*%
%LPD*%
G01*
G04 APERTURE LIST*
%ADD10C,0.050000*%
%ADD11C,0.200000*%
%ADD12C,0.160000*%
%ADD13C,0.175000*%
%ADD14C,0.398780*%
G04 APERTURE END LIST*
D10*
X11100000Y-2125000D02*
X12950000Y-2125000D01*
X7173607Y-2250000D02*
G75*
G02*
X6726393Y-2250000I-223607J0D01*
G01*
X6726393Y-2250000D02*
G75*
G02*
X7173607Y-2250000I223607J0D01*
G01*
X13000000Y-2125000D02*
X13000000Y-2425000D01*
X6550000Y-1850000D02*
X6550000Y-2650000D01*
X14900000Y-2425000D02*
X16750000Y-2425000D01*
X9250000Y-8275000D02*
X10350000Y-9775000D01*
X16750000Y-2425000D02*
X16750000Y-8875000D01*
X11100000Y-1900000D02*
X11100000Y-1850000D01*
X14050000Y-10325000D02*
X12150000Y-9775000D01*
X7300000Y-8275000D02*
X9250000Y-8275000D01*
X3600000Y-2650000D02*
X3600000Y-2675000D01*
X11100000Y-1850000D02*
X6550000Y-1850000D01*
X3600000Y-8275000D02*
X3600000Y-2675000D01*
X16750000Y-8875000D02*
X16000000Y-10325000D01*
X7300000Y-8275000D02*
X5500000Y-8275000D01*
X10123607Y-8000000D02*
G75*
G02*
X9676393Y-8000000I-223607J0D01*
G01*
X9676393Y-8000000D02*
G75*
G02*
X10123607Y-8000000I223607J0D01*
G01*
X12150000Y-9775000D02*
X10350000Y-9775000D01*
X11100000Y-1925000D02*
X11100000Y-2125000D01*
X16000000Y-10325000D02*
X14050000Y-10325000D01*
X5500000Y-8275000D02*
X3600000Y-8275000D01*
X12950000Y-2125000D02*
X13000000Y-2125000D01*
X15823607Y-7676393D02*
G75*
G02*
X15376393Y-7676393I-223607J0D01*
G01*
X15376393Y-7676393D02*
G75*
G02*
X15823607Y-7676393I223607J0D01*
G01*
X6550000Y-2650000D02*
X3600000Y-2650000D01*
X13000000Y-2425000D02*
X14900000Y-2425000D01*
X11100000Y-1925000D02*
X11100000Y-1900000D01*
D11*
D12*
X15570000Y-6670000D02*
X15730000Y-6830000D01*
X15730000Y-6670000D02*
X15570000Y-6830000D01*
X16270000Y-6670000D02*
X16430000Y-6830000D01*
X16430000Y-6670000D02*
X16270000Y-6830000D01*
D13*
X4024050Y-3549226D02*
G75*
G02*
X3849050Y-3549226I-87500J0D01*
G01*
X3849050Y-3549226D02*
G75*
G02*
X4024050Y-3549226I87500J0D01*
G01*
X4029500Y-5450000D02*
G75*
G02*
X3854500Y-5450000I-87500J0D01*
G01*
X3854500Y-5450000D02*
G75*
G02*
X4029500Y-5450000I87500J0D01*
G01*
X4034565Y-7355792D02*
G75*
G02*
X3859565Y-7355792I-87500J0D01*
G01*
X3859565Y-7355792D02*
G75*
G02*
X4034565Y-7355792I87500J0D01*
G01*
X5040050Y-3549226D02*
G75*
G02*
X4865050Y-3549226I-87500J0D01*
G01*
X4865050Y-3549226D02*
G75*
G02*
X5040050Y-3549226I87500J0D01*
G01*
X5045500Y-5450000D02*
G75*
G02*
X4870500Y-5450000I-87500J0D01*
G01*
X4870500Y-5450000D02*
G75*
G02*
X5045500Y-5450000I87500J0D01*
G01*
X5050565Y-7355792D02*
G75*
G02*
X4875565Y-7355792I-87500J0D01*
G01*
X4875565Y-7355792D02*
G75*
G02*
X5050565Y-7355792I87500J0D01*
G01*
X5927040Y-3546235D02*
G75*
G02*
X5752040Y-3546235I-87500J0D01*
G01*
X5752040Y-3546235D02*
G75*
G02*
X5927040Y-3546235I87500J0D01*
G01*
X5929500Y-5450000D02*
G75*
G02*
X5754500Y-5450000I-87500J0D01*
G01*
X5754500Y-5450000D02*
G75*
G02*
X5929500Y-5450000I87500J0D01*
G01*
X5931575Y-7355792D02*
G75*
G02*
X5756575Y-7355792I-87500J0D01*
G01*
X5756575Y-7355792D02*
G75*
G02*
X5931575Y-7355792I87500J0D01*
G01*
X6943040Y-3546235D02*
G75*
G02*
X6768040Y-3546235I-87500J0D01*
G01*
X6768040Y-3546235D02*
G75*
G02*
X6943040Y-3546235I87500J0D01*
G01*
X6945500Y-5450000D02*
G75*
G02*
X6770500Y-5450000I-87500J0D01*
G01*
X6770500Y-5450000D02*
G75*
G02*
X6945500Y-5450000I87500J0D01*
G01*
X6947575Y-7355792D02*
G75*
G02*
X6772575Y-7355792I-87500J0D01*
G01*
X6772575Y-7355792D02*
G75*
G02*
X6947575Y-7355792I87500J0D01*
G01*
X7827768Y-4903848D02*
G75*
G02*
X7652768Y-4903848I-87500J0D01*
G01*
X7652768Y-4903848D02*
G75*
G02*
X7827768Y-4903848I87500J0D01*
G01*
X7829500Y-3000000D02*
G75*
G02*
X7654500Y-3000000I-87500J0D01*
G01*
X7654500Y-3000000D02*
G75*
G02*
X7829500Y-3000000I87500J0D01*
G01*
X7833810Y-6806376D02*
G75*
G02*
X7658810Y-6806376I-87500J0D01*
G01*
X7658810Y-6806376D02*
G75*
G02*
X7833810Y-6806376I87500J0D01*
G01*
X8843768Y-4903848D02*
G75*
G02*
X8668768Y-4903848I-87500J0D01*
G01*
X8668768Y-4903848D02*
G75*
G02*
X8843768Y-4903848I87500J0D01*
G01*
X8845500Y-3000000D02*
G75*
G02*
X8670500Y-3000000I-87500J0D01*
G01*
X8670500Y-3000000D02*
G75*
G02*
X8845500Y-3000000I87500J0D01*
G01*
X8849811Y-6806376D02*
G75*
G02*
X8674811Y-6806376I-87500J0D01*
G01*
X8674811Y-6806376D02*
G75*
G02*
X8849811Y-6806376I87500J0D01*
G01*
X9777648Y-2842948D02*
G75*
G02*
X9602648Y-2842948I-87500J0D01*
G01*
X9602648Y-2842948D02*
G75*
G02*
X9777648Y-2842948I87500J0D01*
G01*
X9779500Y-4750000D02*
G75*
G02*
X9604500Y-4750000I-87500J0D01*
G01*
X9604500Y-4750000D02*
G75*
G02*
X9779500Y-4750000I87500J0D01*
G01*
X9780627Y-6653275D02*
G75*
G02*
X9605627Y-6653275I-87500J0D01*
G01*
X9605627Y-6653275D02*
G75*
G02*
X9780627Y-6653275I87500J0D01*
G01*
X10793648Y-2842948D02*
G75*
G02*
X10618648Y-2842948I-87500J0D01*
G01*
X10618648Y-2842948D02*
G75*
G02*
X10793648Y-2842948I87500J0D01*
G01*
X10795500Y-4750000D02*
G75*
G02*
X10620500Y-4750000I-87500J0D01*
G01*
X10620500Y-4750000D02*
G75*
G02*
X10795500Y-4750000I87500J0D01*
G01*
X10796627Y-6653275D02*
G75*
G02*
X10621627Y-6653275I-87500J0D01*
G01*
X10621627Y-6653275D02*
G75*
G02*
X10796627Y-6653275I87500J0D01*
G01*
X10879500Y-8800000D02*
G75*
G02*
X10704500Y-8800000I-87500J0D01*
G01*
X10704500Y-8800000D02*
G75*
G02*
X10879500Y-8800000I87500J0D01*
G01*
X11677265Y-2995810D02*
G75*
G02*
X11502265Y-2995810I-87500J0D01*
G01*
X11502265Y-2995810D02*
G75*
G02*
X11677265Y-2995810I87500J0D01*
G01*
X11679164Y-6810051D02*
G75*
G02*
X11504164Y-6810051I-87500J0D01*
G01*
X11504164Y-6810051D02*
G75*
G02*
X11679164Y-6810051I87500J0D01*
G01*
X11679500Y-4900000D02*
G75*
G02*
X11504500Y-4900000I-87500J0D01*
G01*
X11504500Y-4900000D02*
G75*
G02*
X11679500Y-4900000I87500J0D01*
G01*
X11895500Y-8800000D02*
G75*
G02*
X11720500Y-8800000I-87500J0D01*
G01*
X11720500Y-8800000D02*
G75*
G02*
X11895500Y-8800000I87500J0D01*
G01*
X12693265Y-2995810D02*
G75*
G02*
X12518265Y-2995810I-87500J0D01*
G01*
X12518265Y-2995810D02*
G75*
G02*
X12693265Y-2995810I87500J0D01*
G01*
X12695164Y-6810051D02*
G75*
G02*
X12520164Y-6810051I-87500J0D01*
G01*
X12520164Y-6810051D02*
G75*
G02*
X12695164Y-6810051I87500J0D01*
G01*
X12695500Y-4900000D02*
G75*
G02*
X12520500Y-4900000I-87500J0D01*
G01*
X12520500Y-4900000D02*
G75*
G02*
X12695500Y-4900000I87500J0D01*
G01*
X13046810Y-8918520D02*
G75*
G02*
X12871810Y-8918520I-87500J0D01*
G01*
X12871810Y-8918520D02*
G75*
G02*
X13046810Y-8918520I87500J0D01*
G01*
X13578851Y-3244389D02*
G75*
G02*
X13403851Y-3244389I-87500J0D01*
G01*
X13403851Y-3244389D02*
G75*
G02*
X13578851Y-3244389I87500J0D01*
G01*
X13579259Y-7055021D02*
G75*
G02*
X13404259Y-7055021I-87500J0D01*
G01*
X13404259Y-7055021D02*
G75*
G02*
X13579259Y-7055021I87500J0D01*
G01*
X13579500Y-5150000D02*
G75*
G02*
X13404500Y-5150000I-87500J0D01*
G01*
X13404500Y-5150000D02*
G75*
G02*
X13579500Y-5150000I87500J0D01*
G01*
X14028190Y-9181480D02*
G75*
G02*
X13853190Y-9181480I-87500J0D01*
G01*
X13853190Y-9181480D02*
G75*
G02*
X14028190Y-9181480I87500J0D01*
G01*
X14594851Y-3244389D02*
G75*
G02*
X14419851Y-3244389I-87500J0D01*
G01*
X14419851Y-3244389D02*
G75*
G02*
X14594851Y-3244389I87500J0D01*
G01*
X14595259Y-7055021D02*
G75*
G02*
X14420259Y-7055021I-87500J0D01*
G01*
X14420259Y-7055021D02*
G75*
G02*
X14595259Y-7055021I87500J0D01*
G01*
X14595500Y-5150000D02*
G75*
G02*
X14420500Y-5150000I-87500J0D01*
G01*
X14420500Y-5150000D02*
G75*
G02*
X14595500Y-5150000I87500J0D01*
G01*
X14990283Y-8791812D02*
G75*
G02*
X14815283Y-8791812I-87500J0D01*
G01*
X14815283Y-8791812D02*
G75*
G02*
X14990283Y-8791812I87500J0D01*
G01*
X15911091Y-9221192D02*
G75*
G02*
X15736091Y-9221192I-87500J0D01*
G01*
X15736091Y-9221192D02*
G75*
G02*
X15911091Y-9221192I87500J0D01*
G01*
D14*
X4444550Y-3349836D02*
X4444550Y-3748616D01*
X4245160Y-3549226D02*
X4643940Y-3549226D01*
X4450000Y-5250610D02*
X4450000Y-5649390D01*
X4250610Y-5450000D02*
X4649390Y-5450000D01*
X4455065Y-7156402D02*
X4455065Y-7555182D01*
X4255675Y-7355792D02*
X4654455Y-7355792D01*
X6347540Y-3346845D02*
X6347540Y-3745625D01*
X6148150Y-3546235D02*
X6546930Y-3546235D01*
X6350000Y-5250610D02*
X6350000Y-5649390D01*
X6150610Y-5450000D02*
X6549390Y-5450000D01*
X6352075Y-7156402D02*
X6352075Y-7555182D01*
X6152685Y-7355792D02*
X6551465Y-7355792D01*
X8248268Y-4704458D02*
X8248268Y-5103238D01*
X8048878Y-4903848D02*
X8447658Y-4903848D01*
X8250000Y-2800610D02*
X8250000Y-3199390D01*
X8050610Y-3000000D02*
X8449390Y-3000000D01*
X8254310Y-6606986D02*
X8254310Y-7005766D01*
X8054920Y-6806376D02*
X8453701Y-6806376D01*
X10198148Y-2643558D02*
X10198148Y-3042338D01*
X9998758Y-2842948D02*
X10397538Y-2842948D01*
X10200000Y-4550610D02*
X10200000Y-4949390D01*
X10000610Y-4750000D02*
X10399390Y-4750000D01*
X10201127Y-6453885D02*
X10201127Y-6852665D01*
X10001737Y-6653275D02*
X10400517Y-6653275D01*
X11300000Y-8600610D02*
X11300000Y-8999390D01*
X11100610Y-8800000D02*
X11499390Y-8800000D01*
X12097765Y-2796420D02*
X12097765Y-3195200D01*
X11898375Y-2995810D02*
X12297155Y-2995810D01*
X12099664Y-6610661D02*
X12099664Y-7009441D01*
X11900274Y-6810051D02*
X12299054Y-6810051D01*
X12100000Y-4700610D02*
X12100000Y-5099390D01*
X11900610Y-4900000D02*
X12299390Y-4900000D01*
X13450000Y-8850610D02*
X13450000Y-9249390D01*
X13250610Y-9050000D02*
X13649390Y-9050000D01*
X13999351Y-3044999D02*
X13999351Y-3443779D01*
X13799961Y-3244389D02*
X14198741Y-3244389D01*
X13999759Y-6855631D02*
X13999759Y-7254411D01*
X13800369Y-7055021D02*
X14199149Y-7055021D01*
X14000000Y-4950610D02*
X14000000Y-5349390D01*
X13800610Y-5150000D02*
X14199390Y-5150000D01*
X15363187Y-8807112D02*
X15363187Y-9205892D01*
X15163797Y-9006502D02*
X15562577Y-9006502D01*
D11*
X3858277Y-10638984D02*
X3858277Y-10438984D01*
X3858277Y-10438984D02*
X3905896Y-10438984D01*
X3905896Y-10438984D02*
X3934467Y-10448508D01*
X3934467Y-10448508D02*
X3953515Y-10467555D01*
X3953515Y-10467555D02*
X3963039Y-10486603D01*
X3963039Y-10486603D02*
X3972562Y-10524698D01*
X3972562Y-10524698D02*
X3972562Y-10553270D01*
X3972562Y-10553270D02*
X3963039Y-10591365D01*
X3963039Y-10591365D02*
X3953515Y-10610412D01*
X3953515Y-10610412D02*
X3934467Y-10629460D01*
X3934467Y-10629460D02*
X3905896Y-10638984D01*
X3905896Y-10638984D02*
X3858277Y-10638984D01*
X4058277Y-10638984D02*
X4058277Y-10505650D01*
X4058277Y-10543746D02*
X4067801Y-10524698D01*
X4067801Y-10524698D02*
X4077324Y-10515174D01*
X4077324Y-10515174D02*
X4096372Y-10505650D01*
X4096372Y-10505650D02*
X4115420Y-10505650D01*
X4182086Y-10638984D02*
X4182086Y-10505650D01*
X4182086Y-10438984D02*
X4172562Y-10448508D01*
X4172562Y-10448508D02*
X4182086Y-10458031D01*
X4182086Y-10458031D02*
X4191610Y-10448508D01*
X4191610Y-10448508D02*
X4182086Y-10438984D01*
X4182086Y-10438984D02*
X4182086Y-10458031D01*
X4305896Y-10638984D02*
X4286848Y-10629460D01*
X4286848Y-10629460D02*
X4277324Y-10610412D01*
X4277324Y-10610412D02*
X4277324Y-10438984D01*
X4410658Y-10638984D02*
X4391610Y-10629460D01*
X4391610Y-10629460D02*
X4382086Y-10610412D01*
X4382086Y-10610412D02*
X4382086Y-10438984D01*
X4639229Y-10638984D02*
X4639229Y-10438984D01*
X4639229Y-10438984D02*
X4705896Y-10581841D01*
X4705896Y-10581841D02*
X4772563Y-10438984D01*
X4772563Y-10438984D02*
X4772563Y-10638984D01*
X4953515Y-10638984D02*
X4953515Y-10534222D01*
X4953515Y-10534222D02*
X4943991Y-10515174D01*
X4943991Y-10515174D02*
X4924944Y-10505650D01*
X4924944Y-10505650D02*
X4886848Y-10505650D01*
X4886848Y-10505650D02*
X4867801Y-10515174D01*
X4953515Y-10629460D02*
X4934467Y-10638984D01*
X4934467Y-10638984D02*
X4886848Y-10638984D01*
X4886848Y-10638984D02*
X4867801Y-10629460D01*
X4867801Y-10629460D02*
X4858277Y-10610412D01*
X4858277Y-10610412D02*
X4858277Y-10591365D01*
X4858277Y-10591365D02*
X4867801Y-10572317D01*
X4867801Y-10572317D02*
X4886848Y-10562793D01*
X4886848Y-10562793D02*
X4934467Y-10562793D01*
X4934467Y-10562793D02*
X4953515Y-10553270D01*
X5048753Y-10505650D02*
X5048753Y-10705650D01*
X5048753Y-10515174D02*
X5067801Y-10505650D01*
X5067801Y-10505650D02*
X5105896Y-10505650D01*
X5105896Y-10505650D02*
X5124944Y-10515174D01*
X5124944Y-10515174D02*
X5134467Y-10524698D01*
X5134467Y-10524698D02*
X5143991Y-10543746D01*
X5143991Y-10543746D02*
X5143991Y-10600889D01*
X5143991Y-10600889D02*
X5134467Y-10619936D01*
X5134467Y-10619936D02*
X5124944Y-10629460D01*
X5124944Y-10629460D02*
X5105896Y-10638984D01*
X5105896Y-10638984D02*
X5067801Y-10638984D01*
X5067801Y-10638984D02*
X5048753Y-10629460D01*
X5229705Y-10619936D02*
X5239229Y-10629460D01*
X5239229Y-10629460D02*
X5229705Y-10638984D01*
X5229705Y-10638984D02*
X5220182Y-10629460D01*
X5220182Y-10629460D02*
X5229705Y-10619936D01*
X5229705Y-10619936D02*
X5229705Y-10638984D01*
X5229705Y-10515174D02*
X5239229Y-10524698D01*
X5239229Y-10524698D02*
X5229705Y-10534222D01*
X5229705Y-10534222D02*
X5220182Y-10524698D01*
X5220182Y-10524698D02*
X5229705Y-10515174D01*
X5229705Y-10515174D02*
X5229705Y-10534222D01*
D12*
X3437500Y-10887500D02*
X3597500Y-11047500D01*
X3597500Y-10887500D02*
X3437500Y-11047500D01*
D11*
X3963039Y-11058984D02*
X3848753Y-11058984D01*
X3905896Y-11058984D02*
X3905896Y-10858984D01*
X3905896Y-10858984D02*
X3886848Y-10887555D01*
X3886848Y-10887555D02*
X3867801Y-10906603D01*
X3867801Y-10906603D02*
X3848753Y-10916127D01*
X4048753Y-11039936D02*
X4058277Y-11049460D01*
X4058277Y-11049460D02*
X4048753Y-11058984D01*
X4048753Y-11058984D02*
X4039229Y-11049460D01*
X4039229Y-11049460D02*
X4048753Y-11039936D01*
X4048753Y-11039936D02*
X4048753Y-11058984D01*
X4229705Y-10858984D02*
X4191610Y-10858984D01*
X4191610Y-10858984D02*
X4172562Y-10868508D01*
X4172562Y-10868508D02*
X4163039Y-10878031D01*
X4163039Y-10878031D02*
X4143991Y-10906603D01*
X4143991Y-10906603D02*
X4134467Y-10944698D01*
X4134467Y-10944698D02*
X4134467Y-11020889D01*
X4134467Y-11020889D02*
X4143991Y-11039936D01*
X4143991Y-11039936D02*
X4153515Y-11049460D01*
X4153515Y-11049460D02*
X4172562Y-11058984D01*
X4172562Y-11058984D02*
X4210658Y-11058984D01*
X4210658Y-11058984D02*
X4229705Y-11049460D01*
X4229705Y-11049460D02*
X4239229Y-11039936D01*
X4239229Y-11039936D02*
X4248753Y-11020889D01*
X4248753Y-11020889D02*
X4248753Y-10973270D01*
X4248753Y-10973270D02*
X4239229Y-10954222D01*
X4239229Y-10954222D02*
X4229705Y-10944698D01*
X4229705Y-10944698D02*
X4210658Y-10935174D01*
X4210658Y-10935174D02*
X4172562Y-10935174D01*
X4172562Y-10935174D02*
X4153515Y-10944698D01*
X4153515Y-10944698D02*
X4143991Y-10954222D01*
X4143991Y-10954222D02*
X4134467Y-10973270D01*
X4372563Y-10858984D02*
X4391610Y-10858984D01*
X4391610Y-10858984D02*
X4410658Y-10868508D01*
X4410658Y-10868508D02*
X4420182Y-10878031D01*
X4420182Y-10878031D02*
X4429705Y-10897079D01*
X4429705Y-10897079D02*
X4439229Y-10935174D01*
X4439229Y-10935174D02*
X4439229Y-10982793D01*
X4439229Y-10982793D02*
X4429705Y-11020889D01*
X4429705Y-11020889D02*
X4420182Y-11039936D01*
X4420182Y-11039936D02*
X4410658Y-11049460D01*
X4410658Y-11049460D02*
X4391610Y-11058984D01*
X4391610Y-11058984D02*
X4372563Y-11058984D01*
X4372563Y-11058984D02*
X4353515Y-11049460D01*
X4353515Y-11049460D02*
X4343991Y-11039936D01*
X4343991Y-11039936D02*
X4334467Y-11020889D01*
X4334467Y-11020889D02*
X4324944Y-10982793D01*
X4324944Y-10982793D02*
X4324944Y-10935174D01*
X4324944Y-10935174D02*
X4334467Y-10897079D01*
X4334467Y-10897079D02*
X4343991Y-10878031D01*
X4343991Y-10878031D02*
X4353515Y-10868508D01*
X4353515Y-10868508D02*
X4372563Y-10858984D01*
X4563039Y-10858984D02*
X4582086Y-10858984D01*
X4582086Y-10858984D02*
X4601134Y-10868508D01*
X4601134Y-10868508D02*
X4610658Y-10878031D01*
X4610658Y-10878031D02*
X4620182Y-10897079D01*
X4620182Y-10897079D02*
X4629705Y-10935174D01*
X4629705Y-10935174D02*
X4629705Y-10982793D01*
X4629705Y-10982793D02*
X4620182Y-11020889D01*
X4620182Y-11020889D02*
X4610658Y-11039936D01*
X4610658Y-11039936D02*
X4601134Y-11049460D01*
X4601134Y-11049460D02*
X4582086Y-11058984D01*
X4582086Y-11058984D02*
X4563039Y-11058984D01*
X4563039Y-11058984D02*
X4543991Y-11049460D01*
X4543991Y-11049460D02*
X4534467Y-11039936D01*
X4534467Y-11039936D02*
X4524944Y-11020889D01*
X4524944Y-11020889D02*
X4515420Y-10982793D01*
X4515420Y-10982793D02*
X4515420Y-10935174D01*
X4515420Y-10935174D02*
X4524944Y-10897079D01*
X4524944Y-10897079D02*
X4534467Y-10878031D01*
X4534467Y-10878031D02*
X4543991Y-10868508D01*
X4543991Y-10868508D02*
X4563039Y-10858984D01*
X4715420Y-11058984D02*
X4715420Y-10925650D01*
X4715420Y-10944698D02*
X4724944Y-10935174D01*
X4724944Y-10935174D02*
X4743991Y-10925650D01*
X4743991Y-10925650D02*
X4772563Y-10925650D01*
X4772563Y-10925650D02*
X4791610Y-10935174D01*
X4791610Y-10935174D02*
X4801134Y-10954222D01*
X4801134Y-10954222D02*
X4801134Y-11058984D01*
X4801134Y-10954222D02*
X4810658Y-10935174D01*
X4810658Y-10935174D02*
X4829705Y-10925650D01*
X4829705Y-10925650D02*
X4858277Y-10925650D01*
X4858277Y-10925650D02*
X4877325Y-10935174D01*
X4877325Y-10935174D02*
X4886848Y-10954222D01*
X4886848Y-10954222D02*
X4886848Y-11058984D01*
X4982086Y-11058984D02*
X4982086Y-10925650D01*
X4982086Y-10944698D02*
X4991610Y-10935174D01*
X4991610Y-10935174D02*
X5010658Y-10925650D01*
X5010658Y-10925650D02*
X5039229Y-10925650D01*
X5039229Y-10925650D02*
X5058277Y-10935174D01*
X5058277Y-10935174D02*
X5067801Y-10954222D01*
X5067801Y-10954222D02*
X5067801Y-11058984D01*
X5067801Y-10954222D02*
X5077325Y-10935174D01*
X5077325Y-10935174D02*
X5096372Y-10925650D01*
X5096372Y-10925650D02*
X5124944Y-10925650D01*
X5124944Y-10925650D02*
X5143991Y-10935174D01*
X5143991Y-10935174D02*
X5153515Y-10954222D01*
X5153515Y-10954222D02*
X5153515Y-11058984D01*
X5543991Y-10849460D02*
X5372563Y-11106603D01*
X5801134Y-10858984D02*
X5820182Y-10858984D01*
X5820182Y-10858984D02*
X5839229Y-10868508D01*
X5839229Y-10868508D02*
X5848753Y-10878031D01*
X5848753Y-10878031D02*
X5858277Y-10897079D01*
X5858277Y-10897079D02*
X5867801Y-10935174D01*
X5867801Y-10935174D02*
X5867801Y-10982793D01*
X5867801Y-10982793D02*
X5858277Y-11020889D01*
X5858277Y-11020889D02*
X5848753Y-11039936D01*
X5848753Y-11039936D02*
X5839229Y-11049460D01*
X5839229Y-11049460D02*
X5820182Y-11058984D01*
X5820182Y-11058984D02*
X5801134Y-11058984D01*
X5801134Y-11058984D02*
X5782086Y-11049460D01*
X5782086Y-11049460D02*
X5772563Y-11039936D01*
X5772563Y-11039936D02*
X5763039Y-11020889D01*
X5763039Y-11020889D02*
X5753515Y-10982793D01*
X5753515Y-10982793D02*
X5753515Y-10935174D01*
X5753515Y-10935174D02*
X5763039Y-10897079D01*
X5763039Y-10897079D02*
X5772563Y-10878031D01*
X5772563Y-10878031D02*
X5782086Y-10868508D01*
X5782086Y-10868508D02*
X5801134Y-10858984D01*
X5953515Y-11039936D02*
X5963039Y-11049460D01*
X5963039Y-11049460D02*
X5953515Y-11058984D01*
X5953515Y-11058984D02*
X5943991Y-11049460D01*
X5943991Y-11049460D02*
X5953515Y-11039936D01*
X5953515Y-11039936D02*
X5953515Y-11058984D01*
X6086848Y-10858984D02*
X6105896Y-10858984D01*
X6105896Y-10858984D02*
X6124944Y-10868508D01*
X6124944Y-10868508D02*
X6134467Y-10878031D01*
X6134467Y-10878031D02*
X6143991Y-10897079D01*
X6143991Y-10897079D02*
X6153515Y-10935174D01*
X6153515Y-10935174D02*
X6153515Y-10982793D01*
X6153515Y-10982793D02*
X6143991Y-11020889D01*
X6143991Y-11020889D02*
X6134467Y-11039936D01*
X6134467Y-11039936D02*
X6124944Y-11049460D01*
X6124944Y-11049460D02*
X6105896Y-11058984D01*
X6105896Y-11058984D02*
X6086848Y-11058984D01*
X6086848Y-11058984D02*
X6067801Y-11049460D01*
X6067801Y-11049460D02*
X6058277Y-11039936D01*
X6058277Y-11039936D02*
X6048753Y-11020889D01*
X6048753Y-11020889D02*
X6039229Y-10982793D01*
X6039229Y-10982793D02*
X6039229Y-10935174D01*
X6039229Y-10935174D02*
X6048753Y-10897079D01*
X6048753Y-10897079D02*
X6058277Y-10878031D01*
X6058277Y-10878031D02*
X6067801Y-10868508D01*
X6067801Y-10868508D02*
X6086848Y-10858984D01*
X6324944Y-10858984D02*
X6286848Y-10858984D01*
X6286848Y-10858984D02*
X6267801Y-10868508D01*
X6267801Y-10868508D02*
X6258277Y-10878031D01*
X6258277Y-10878031D02*
X6239229Y-10906603D01*
X6239229Y-10906603D02*
X6229706Y-10944698D01*
X6229706Y-10944698D02*
X6229706Y-11020889D01*
X6229706Y-11020889D02*
X6239229Y-11039936D01*
X6239229Y-11039936D02*
X6248753Y-11049460D01*
X6248753Y-11049460D02*
X6267801Y-11058984D01*
X6267801Y-11058984D02*
X6305896Y-11058984D01*
X6305896Y-11058984D02*
X6324944Y-11049460D01*
X6324944Y-11049460D02*
X6334467Y-11039936D01*
X6334467Y-11039936D02*
X6343991Y-11020889D01*
X6343991Y-11020889D02*
X6343991Y-10973270D01*
X6343991Y-10973270D02*
X6334467Y-10954222D01*
X6334467Y-10954222D02*
X6324944Y-10944698D01*
X6324944Y-10944698D02*
X6305896Y-10935174D01*
X6305896Y-10935174D02*
X6267801Y-10935174D01*
X6267801Y-10935174D02*
X6248753Y-10944698D01*
X6248753Y-10944698D02*
X6239229Y-10954222D01*
X6239229Y-10954222D02*
X6229706Y-10973270D01*
X6410658Y-10858984D02*
X6534467Y-10858984D01*
X6534467Y-10858984D02*
X6467801Y-10935174D01*
X6467801Y-10935174D02*
X6496372Y-10935174D01*
X6496372Y-10935174D02*
X6515420Y-10944698D01*
X6515420Y-10944698D02*
X6524944Y-10954222D01*
X6524944Y-10954222D02*
X6534467Y-10973270D01*
X6534467Y-10973270D02*
X6534467Y-11020889D01*
X6534467Y-11020889D02*
X6524944Y-11039936D01*
X6524944Y-11039936D02*
X6515420Y-11049460D01*
X6515420Y-11049460D02*
X6496372Y-11058984D01*
X6496372Y-11058984D02*
X6439229Y-11058984D01*
X6439229Y-11058984D02*
X6420182Y-11049460D01*
X6420182Y-11049460D02*
X6410658Y-11039936D01*
X6658277Y-10858984D02*
X6677325Y-10858984D01*
X6677325Y-10858984D02*
X6696372Y-10868508D01*
X6696372Y-10868508D02*
X6705896Y-10878031D01*
X6705896Y-10878031D02*
X6715420Y-10897079D01*
X6715420Y-10897079D02*
X6724944Y-10935174D01*
X6724944Y-10935174D02*
X6724944Y-10982793D01*
X6724944Y-10982793D02*
X6715420Y-11020889D01*
X6715420Y-11020889D02*
X6705896Y-11039936D01*
X6705896Y-11039936D02*
X6696372Y-11049460D01*
X6696372Y-11049460D02*
X6677325Y-11058984D01*
X6677325Y-11058984D02*
X6658277Y-11058984D01*
X6658277Y-11058984D02*
X6639229Y-11049460D01*
X6639229Y-11049460D02*
X6629706Y-11039936D01*
X6629706Y-11039936D02*
X6620182Y-11020889D01*
X6620182Y-11020889D02*
X6610658Y-10982793D01*
X6610658Y-10982793D02*
X6610658Y-10935174D01*
X6610658Y-10935174D02*
X6620182Y-10897079D01*
X6620182Y-10897079D02*
X6629706Y-10878031D01*
X6629706Y-10878031D02*
X6639229Y-10868508D01*
X6639229Y-10868508D02*
X6658277Y-10858984D01*
X6801134Y-10858984D02*
X6801134Y-10897079D01*
X6877325Y-10858984D02*
X6877325Y-10897079D01*
X7172563Y-11135174D02*
X7163039Y-11125650D01*
X7163039Y-11125650D02*
X7143991Y-11097079D01*
X7143991Y-11097079D02*
X7134468Y-11078031D01*
X7134468Y-11078031D02*
X7124944Y-11049460D01*
X7124944Y-11049460D02*
X7115420Y-11001841D01*
X7115420Y-11001841D02*
X7115420Y-10963746D01*
X7115420Y-10963746D02*
X7124944Y-10916127D01*
X7124944Y-10916127D02*
X7134468Y-10887555D01*
X7134468Y-10887555D02*
X7143991Y-10868508D01*
X7143991Y-10868508D02*
X7163039Y-10839936D01*
X7163039Y-10839936D02*
X7172563Y-10830412D01*
X7239229Y-10878031D02*
X7248753Y-10868508D01*
X7248753Y-10868508D02*
X7267801Y-10858984D01*
X7267801Y-10858984D02*
X7315420Y-10858984D01*
X7315420Y-10858984D02*
X7334468Y-10868508D01*
X7334468Y-10868508D02*
X7343991Y-10878031D01*
X7343991Y-10878031D02*
X7353515Y-10897079D01*
X7353515Y-10897079D02*
X7353515Y-10916127D01*
X7353515Y-10916127D02*
X7343991Y-10944698D01*
X7343991Y-10944698D02*
X7229706Y-11058984D01*
X7229706Y-11058984D02*
X7353515Y-11058984D01*
X7591610Y-11058984D02*
X7591610Y-10858984D01*
X7677325Y-11058984D02*
X7677325Y-10954222D01*
X7677325Y-10954222D02*
X7667801Y-10935174D01*
X7667801Y-10935174D02*
X7648753Y-10925650D01*
X7648753Y-10925650D02*
X7620182Y-10925650D01*
X7620182Y-10925650D02*
X7601134Y-10935174D01*
X7601134Y-10935174D02*
X7591610Y-10944698D01*
X7801134Y-11058984D02*
X7782087Y-11049460D01*
X7782087Y-11049460D02*
X7772563Y-11039936D01*
X7772563Y-11039936D02*
X7763039Y-11020889D01*
X7763039Y-11020889D02*
X7763039Y-10963746D01*
X7763039Y-10963746D02*
X7772563Y-10944698D01*
X7772563Y-10944698D02*
X7782087Y-10935174D01*
X7782087Y-10935174D02*
X7801134Y-10925650D01*
X7801134Y-10925650D02*
X7829706Y-10925650D01*
X7829706Y-10925650D02*
X7848753Y-10935174D01*
X7848753Y-10935174D02*
X7858277Y-10944698D01*
X7858277Y-10944698D02*
X7867801Y-10963746D01*
X7867801Y-10963746D02*
X7867801Y-11020889D01*
X7867801Y-11020889D02*
X7858277Y-11039936D01*
X7858277Y-11039936D02*
X7848753Y-11049460D01*
X7848753Y-11049460D02*
X7829706Y-11058984D01*
X7829706Y-11058984D02*
X7801134Y-11058984D01*
X7982087Y-11058984D02*
X7963039Y-11049460D01*
X7963039Y-11049460D02*
X7953515Y-11030412D01*
X7953515Y-11030412D02*
X7953515Y-10858984D01*
X8134468Y-11049460D02*
X8115420Y-11058984D01*
X8115420Y-11058984D02*
X8077325Y-11058984D01*
X8077325Y-11058984D02*
X8058277Y-11049460D01*
X8058277Y-11049460D02*
X8048753Y-11030412D01*
X8048753Y-11030412D02*
X8048753Y-10954222D01*
X8048753Y-10954222D02*
X8058277Y-10935174D01*
X8058277Y-10935174D02*
X8077325Y-10925650D01*
X8077325Y-10925650D02*
X8115420Y-10925650D01*
X8115420Y-10925650D02*
X8134468Y-10935174D01*
X8134468Y-10935174D02*
X8143991Y-10954222D01*
X8143991Y-10954222D02*
X8143991Y-10973270D01*
X8143991Y-10973270D02*
X8048753Y-10992317D01*
X8220182Y-11049460D02*
X8239230Y-11058984D01*
X8239230Y-11058984D02*
X8277325Y-11058984D01*
X8277325Y-11058984D02*
X8296372Y-11049460D01*
X8296372Y-11049460D02*
X8305896Y-11030412D01*
X8305896Y-11030412D02*
X8305896Y-11020889D01*
X8305896Y-11020889D02*
X8296372Y-11001841D01*
X8296372Y-11001841D02*
X8277325Y-10992317D01*
X8277325Y-10992317D02*
X8248753Y-10992317D01*
X8248753Y-10992317D02*
X8229706Y-10982793D01*
X8229706Y-10982793D02*
X8220182Y-10963746D01*
X8220182Y-10963746D02*
X8220182Y-10954222D01*
X8220182Y-10954222D02*
X8229706Y-10935174D01*
X8229706Y-10935174D02*
X8248753Y-10925650D01*
X8248753Y-10925650D02*
X8277325Y-10925650D01*
X8277325Y-10925650D02*
X8296372Y-10935174D01*
X8372563Y-11135174D02*
X8382087Y-11125650D01*
X8382087Y-11125650D02*
X8401134Y-11097079D01*
X8401134Y-11097079D02*
X8410658Y-11078031D01*
X8410658Y-11078031D02*
X8420182Y-11049460D01*
X8420182Y-11049460D02*
X8429706Y-11001841D01*
X8429706Y-11001841D02*
X8429706Y-10963746D01*
X8429706Y-10963746D02*
X8420182Y-10916127D01*
X8420182Y-10916127D02*
X8410658Y-10887555D01*
X8410658Y-10887555D02*
X8401134Y-10868508D01*
X8401134Y-10868508D02*
X8382087Y-10839936D01*
X8382087Y-10839936D02*
X8372563Y-10830412D01*
X8734468Y-11135174D02*
X8724944Y-11125650D01*
X8724944Y-11125650D02*
X8705896Y-11097079D01*
X8705896Y-11097079D02*
X8696373Y-11078031D01*
X8696373Y-11078031D02*
X8686849Y-11049460D01*
X8686849Y-11049460D02*
X8677325Y-11001841D01*
X8677325Y-11001841D02*
X8677325Y-10963746D01*
X8677325Y-10963746D02*
X8686849Y-10916127D01*
X8686849Y-10916127D02*
X8696373Y-10887555D01*
X8696373Y-10887555D02*
X8705896Y-10868508D01*
X8705896Y-10868508D02*
X8724944Y-10839936D01*
X8724944Y-10839936D02*
X8734468Y-10830412D01*
X8810658Y-10925650D02*
X8810658Y-11058984D01*
X8810658Y-10944698D02*
X8820182Y-10935174D01*
X8820182Y-10935174D02*
X8839230Y-10925650D01*
X8839230Y-10925650D02*
X8867801Y-10925650D01*
X8867801Y-10925650D02*
X8886849Y-10935174D01*
X8886849Y-10935174D02*
X8896373Y-10954222D01*
X8896373Y-10954222D02*
X8896373Y-11058984D01*
X9020182Y-11058984D02*
X9001134Y-11049460D01*
X9001134Y-11049460D02*
X8991611Y-11039936D01*
X8991611Y-11039936D02*
X8982087Y-11020889D01*
X8982087Y-11020889D02*
X8982087Y-10963746D01*
X8982087Y-10963746D02*
X8991611Y-10944698D01*
X8991611Y-10944698D02*
X9001134Y-10935174D01*
X9001134Y-10935174D02*
X9020182Y-10925650D01*
X9020182Y-10925650D02*
X9048754Y-10925650D01*
X9048754Y-10925650D02*
X9067801Y-10935174D01*
X9067801Y-10935174D02*
X9077325Y-10944698D01*
X9077325Y-10944698D02*
X9086849Y-10963746D01*
X9086849Y-10963746D02*
X9086849Y-11020889D01*
X9086849Y-11020889D02*
X9077325Y-11039936D01*
X9077325Y-11039936D02*
X9067801Y-11049460D01*
X9067801Y-11049460D02*
X9048754Y-11058984D01*
X9048754Y-11058984D02*
X9020182Y-11058984D01*
X9143992Y-10925650D02*
X9220182Y-10925650D01*
X9172563Y-10858984D02*
X9172563Y-11030412D01*
X9172563Y-11030412D02*
X9182087Y-11049460D01*
X9182087Y-11049460D02*
X9201134Y-11058984D01*
X9201134Y-11058984D02*
X9220182Y-11058984D01*
X9439230Y-10925650D02*
X9439230Y-11125650D01*
X9439230Y-10935174D02*
X9458277Y-10925650D01*
X9458277Y-10925650D02*
X9496373Y-10925650D01*
X9496373Y-10925650D02*
X9515420Y-10935174D01*
X9515420Y-10935174D02*
X9524944Y-10944698D01*
X9524944Y-10944698D02*
X9534468Y-10963746D01*
X9534468Y-10963746D02*
X9534468Y-11020889D01*
X9534468Y-11020889D02*
X9524944Y-11039936D01*
X9524944Y-11039936D02*
X9515420Y-11049460D01*
X9515420Y-11049460D02*
X9496373Y-11058984D01*
X9496373Y-11058984D02*
X9458277Y-11058984D01*
X9458277Y-11058984D02*
X9439230Y-11049460D01*
X9648754Y-11058984D02*
X9629706Y-11049460D01*
X9629706Y-11049460D02*
X9620182Y-11030412D01*
X9620182Y-11030412D02*
X9620182Y-10858984D01*
X9810658Y-11058984D02*
X9810658Y-10954222D01*
X9810658Y-10954222D02*
X9801135Y-10935174D01*
X9801135Y-10935174D02*
X9782087Y-10925650D01*
X9782087Y-10925650D02*
X9743992Y-10925650D01*
X9743992Y-10925650D02*
X9724944Y-10935174D01*
X9810658Y-11049460D02*
X9791611Y-11058984D01*
X9791611Y-11058984D02*
X9743992Y-11058984D01*
X9743992Y-11058984D02*
X9724944Y-11049460D01*
X9724944Y-11049460D02*
X9715420Y-11030412D01*
X9715420Y-11030412D02*
X9715420Y-11011365D01*
X9715420Y-11011365D02*
X9724944Y-10992317D01*
X9724944Y-10992317D02*
X9743992Y-10982793D01*
X9743992Y-10982793D02*
X9791611Y-10982793D01*
X9791611Y-10982793D02*
X9810658Y-10973270D01*
X9877325Y-10925650D02*
X9953515Y-10925650D01*
X9905896Y-10858984D02*
X9905896Y-11030412D01*
X9905896Y-11030412D02*
X9915420Y-11049460D01*
X9915420Y-11049460D02*
X9934468Y-11058984D01*
X9934468Y-11058984D02*
X9953515Y-11058984D01*
X10096373Y-11049460D02*
X10077325Y-11058984D01*
X10077325Y-11058984D02*
X10039230Y-11058984D01*
X10039230Y-11058984D02*
X10020182Y-11049460D01*
X10020182Y-11049460D02*
X10010658Y-11030412D01*
X10010658Y-11030412D02*
X10010658Y-10954222D01*
X10010658Y-10954222D02*
X10020182Y-10935174D01*
X10020182Y-10935174D02*
X10039230Y-10925650D01*
X10039230Y-10925650D02*
X10077325Y-10925650D01*
X10077325Y-10925650D02*
X10096373Y-10935174D01*
X10096373Y-10935174D02*
X10105896Y-10954222D01*
X10105896Y-10954222D02*
X10105896Y-10973270D01*
X10105896Y-10973270D02*
X10010658Y-10992317D01*
X10277325Y-11058984D02*
X10277325Y-10858984D01*
X10277325Y-11049460D02*
X10258277Y-11058984D01*
X10258277Y-11058984D02*
X10220182Y-11058984D01*
X10220182Y-11058984D02*
X10201135Y-11049460D01*
X10201135Y-11049460D02*
X10191611Y-11039936D01*
X10191611Y-11039936D02*
X10182087Y-11020889D01*
X10182087Y-11020889D02*
X10182087Y-10963746D01*
X10182087Y-10963746D02*
X10191611Y-10944698D01*
X10191611Y-10944698D02*
X10201135Y-10935174D01*
X10201135Y-10935174D02*
X10220182Y-10925650D01*
X10220182Y-10925650D02*
X10258277Y-10925650D01*
X10258277Y-10925650D02*
X10277325Y-10935174D01*
X10353516Y-11135174D02*
X10363039Y-11125650D01*
X10363039Y-11125650D02*
X10382087Y-11097079D01*
X10382087Y-11097079D02*
X10391611Y-11078031D01*
X10391611Y-11078031D02*
X10401135Y-11049460D01*
X10401135Y-11049460D02*
X10410658Y-11001841D01*
X10410658Y-11001841D02*
X10410658Y-10963746D01*
X10410658Y-10963746D02*
X10401135Y-10916127D01*
X10401135Y-10916127D02*
X10391611Y-10887555D01*
X10391611Y-10887555D02*
X10382087Y-10868508D01*
X10382087Y-10868508D02*
X10363039Y-10839936D01*
X10363039Y-10839936D02*
X10353516Y-10830412D01*
D13*
X3597500Y-11247500D02*
G75*
G02*
X3422500Y-11247500I-87500J0D01*
G01*
X3422500Y-11247500D02*
G75*
G02*
X3597500Y-11247500I87500J0D01*
G01*
D11*
X3963039Y-11338984D02*
X3848753Y-11338984D01*
X3905896Y-11338984D02*
X3905896Y-11138984D01*
X3905896Y-11138984D02*
X3886848Y-11167555D01*
X3886848Y-11167555D02*
X3867801Y-11186603D01*
X3867801Y-11186603D02*
X3848753Y-11196127D01*
X4048753Y-11319936D02*
X4058277Y-11329460D01*
X4058277Y-11329460D02*
X4048753Y-11338984D01*
X4048753Y-11338984D02*
X4039229Y-11329460D01*
X4039229Y-11329460D02*
X4048753Y-11319936D01*
X4048753Y-11319936D02*
X4048753Y-11338984D01*
X4124943Y-11138984D02*
X4258277Y-11138984D01*
X4258277Y-11138984D02*
X4172562Y-11338984D01*
X4429705Y-11138984D02*
X4334467Y-11138984D01*
X4334467Y-11138984D02*
X4324944Y-11234222D01*
X4324944Y-11234222D02*
X4334467Y-11224698D01*
X4334467Y-11224698D02*
X4353515Y-11215174D01*
X4353515Y-11215174D02*
X4401134Y-11215174D01*
X4401134Y-11215174D02*
X4420182Y-11224698D01*
X4420182Y-11224698D02*
X4429705Y-11234222D01*
X4429705Y-11234222D02*
X4439229Y-11253269D01*
X4439229Y-11253269D02*
X4439229Y-11300888D01*
X4439229Y-11300888D02*
X4429705Y-11319936D01*
X4429705Y-11319936D02*
X4420182Y-11329460D01*
X4420182Y-11329460D02*
X4401134Y-11338984D01*
X4401134Y-11338984D02*
X4353515Y-11338984D01*
X4353515Y-11338984D02*
X4334467Y-11329460D01*
X4334467Y-11329460D02*
X4324944Y-11319936D01*
X4563039Y-11138984D02*
X4582086Y-11138984D01*
X4582086Y-11138984D02*
X4601134Y-11148508D01*
X4601134Y-11148508D02*
X4610658Y-11158031D01*
X4610658Y-11158031D02*
X4620182Y-11177079D01*
X4620182Y-11177079D02*
X4629705Y-11215174D01*
X4629705Y-11215174D02*
X4629705Y-11262793D01*
X4629705Y-11262793D02*
X4620182Y-11300888D01*
X4620182Y-11300888D02*
X4610658Y-11319936D01*
X4610658Y-11319936D02*
X4601134Y-11329460D01*
X4601134Y-11329460D02*
X4582086Y-11338984D01*
X4582086Y-11338984D02*
X4563039Y-11338984D01*
X4563039Y-11338984D02*
X4543991Y-11329460D01*
X4543991Y-11329460D02*
X4534467Y-11319936D01*
X4534467Y-11319936D02*
X4524944Y-11300888D01*
X4524944Y-11300888D02*
X4515420Y-11262793D01*
X4515420Y-11262793D02*
X4515420Y-11215174D01*
X4515420Y-11215174D02*
X4524944Y-11177079D01*
X4524944Y-11177079D02*
X4534467Y-11158031D01*
X4534467Y-11158031D02*
X4543991Y-11148508D01*
X4543991Y-11148508D02*
X4563039Y-11138984D01*
X4715420Y-11338984D02*
X4715420Y-11205650D01*
X4715420Y-11224698D02*
X4724944Y-11215174D01*
X4724944Y-11215174D02*
X4743991Y-11205650D01*
X4743991Y-11205650D02*
X4772563Y-11205650D01*
X4772563Y-11205650D02*
X4791610Y-11215174D01*
X4791610Y-11215174D02*
X4801134Y-11234222D01*
X4801134Y-11234222D02*
X4801134Y-11338984D01*
X4801134Y-11234222D02*
X4810658Y-11215174D01*
X4810658Y-11215174D02*
X4829705Y-11205650D01*
X4829705Y-11205650D02*
X4858277Y-11205650D01*
X4858277Y-11205650D02*
X4877325Y-11215174D01*
X4877325Y-11215174D02*
X4886848Y-11234222D01*
X4886848Y-11234222D02*
X4886848Y-11338984D01*
X4982086Y-11338984D02*
X4982086Y-11205650D01*
X4982086Y-11224698D02*
X4991610Y-11215174D01*
X4991610Y-11215174D02*
X5010658Y-11205650D01*
X5010658Y-11205650D02*
X5039229Y-11205650D01*
X5039229Y-11205650D02*
X5058277Y-11215174D01*
X5058277Y-11215174D02*
X5067801Y-11234222D01*
X5067801Y-11234222D02*
X5067801Y-11338984D01*
X5067801Y-11234222D02*
X5077325Y-11215174D01*
X5077325Y-11215174D02*
X5096372Y-11205650D01*
X5096372Y-11205650D02*
X5124944Y-11205650D01*
X5124944Y-11205650D02*
X5143991Y-11215174D01*
X5143991Y-11215174D02*
X5153515Y-11234222D01*
X5153515Y-11234222D02*
X5153515Y-11338984D01*
X5543991Y-11129460D02*
X5372563Y-11386603D01*
X5801134Y-11138984D02*
X5820182Y-11138984D01*
X5820182Y-11138984D02*
X5839229Y-11148508D01*
X5839229Y-11148508D02*
X5848753Y-11158031D01*
X5848753Y-11158031D02*
X5858277Y-11177079D01*
X5858277Y-11177079D02*
X5867801Y-11215174D01*
X5867801Y-11215174D02*
X5867801Y-11262793D01*
X5867801Y-11262793D02*
X5858277Y-11300888D01*
X5858277Y-11300888D02*
X5848753Y-11319936D01*
X5848753Y-11319936D02*
X5839229Y-11329460D01*
X5839229Y-11329460D02*
X5820182Y-11338984D01*
X5820182Y-11338984D02*
X5801134Y-11338984D01*
X5801134Y-11338984D02*
X5782086Y-11329460D01*
X5782086Y-11329460D02*
X5772563Y-11319936D01*
X5772563Y-11319936D02*
X5763039Y-11300888D01*
X5763039Y-11300888D02*
X5753515Y-11262793D01*
X5753515Y-11262793D02*
X5753515Y-11215174D01*
X5753515Y-11215174D02*
X5763039Y-11177079D01*
X5763039Y-11177079D02*
X5772563Y-11158031D01*
X5772563Y-11158031D02*
X5782086Y-11148508D01*
X5782086Y-11148508D02*
X5801134Y-11138984D01*
X5953515Y-11319936D02*
X5963039Y-11329460D01*
X5963039Y-11329460D02*
X5953515Y-11338984D01*
X5953515Y-11338984D02*
X5943991Y-11329460D01*
X5943991Y-11329460D02*
X5953515Y-11319936D01*
X5953515Y-11319936D02*
X5953515Y-11338984D01*
X6086848Y-11138984D02*
X6105896Y-11138984D01*
X6105896Y-11138984D02*
X6124944Y-11148508D01*
X6124944Y-11148508D02*
X6134467Y-11158031D01*
X6134467Y-11158031D02*
X6143991Y-11177079D01*
X6143991Y-11177079D02*
X6153515Y-11215174D01*
X6153515Y-11215174D02*
X6153515Y-11262793D01*
X6153515Y-11262793D02*
X6143991Y-11300888D01*
X6143991Y-11300888D02*
X6134467Y-11319936D01*
X6134467Y-11319936D02*
X6124944Y-11329460D01*
X6124944Y-11329460D02*
X6105896Y-11338984D01*
X6105896Y-11338984D02*
X6086848Y-11338984D01*
X6086848Y-11338984D02*
X6067801Y-11329460D01*
X6067801Y-11329460D02*
X6058277Y-11319936D01*
X6058277Y-11319936D02*
X6048753Y-11300888D01*
X6048753Y-11300888D02*
X6039229Y-11262793D01*
X6039229Y-11262793D02*
X6039229Y-11215174D01*
X6039229Y-11215174D02*
X6048753Y-11177079D01*
X6048753Y-11177079D02*
X6058277Y-11158031D01*
X6058277Y-11158031D02*
X6067801Y-11148508D01*
X6067801Y-11148508D02*
X6086848Y-11138984D01*
X6324944Y-11138984D02*
X6286848Y-11138984D01*
X6286848Y-11138984D02*
X6267801Y-11148508D01*
X6267801Y-11148508D02*
X6258277Y-11158031D01*
X6258277Y-11158031D02*
X6239229Y-11186603D01*
X6239229Y-11186603D02*
X6229706Y-11224698D01*
X6229706Y-11224698D02*
X6229706Y-11300888D01*
X6229706Y-11300888D02*
X6239229Y-11319936D01*
X6239229Y-11319936D02*
X6248753Y-11329460D01*
X6248753Y-11329460D02*
X6267801Y-11338984D01*
X6267801Y-11338984D02*
X6305896Y-11338984D01*
X6305896Y-11338984D02*
X6324944Y-11329460D01*
X6324944Y-11329460D02*
X6334467Y-11319936D01*
X6334467Y-11319936D02*
X6343991Y-11300888D01*
X6343991Y-11300888D02*
X6343991Y-11253269D01*
X6343991Y-11253269D02*
X6334467Y-11234222D01*
X6334467Y-11234222D02*
X6324944Y-11224698D01*
X6324944Y-11224698D02*
X6305896Y-11215174D01*
X6305896Y-11215174D02*
X6267801Y-11215174D01*
X6267801Y-11215174D02*
X6248753Y-11224698D01*
X6248753Y-11224698D02*
X6239229Y-11234222D01*
X6239229Y-11234222D02*
X6229706Y-11253269D01*
X6458277Y-11224698D02*
X6439229Y-11215174D01*
X6439229Y-11215174D02*
X6429706Y-11205650D01*
X6429706Y-11205650D02*
X6420182Y-11186603D01*
X6420182Y-11186603D02*
X6420182Y-11177079D01*
X6420182Y-11177079D02*
X6429706Y-11158031D01*
X6429706Y-11158031D02*
X6439229Y-11148508D01*
X6439229Y-11148508D02*
X6458277Y-11138984D01*
X6458277Y-11138984D02*
X6496372Y-11138984D01*
X6496372Y-11138984D02*
X6515420Y-11148508D01*
X6515420Y-11148508D02*
X6524944Y-11158031D01*
X6524944Y-11158031D02*
X6534467Y-11177079D01*
X6534467Y-11177079D02*
X6534467Y-11186603D01*
X6534467Y-11186603D02*
X6524944Y-11205650D01*
X6524944Y-11205650D02*
X6515420Y-11215174D01*
X6515420Y-11215174D02*
X6496372Y-11224698D01*
X6496372Y-11224698D02*
X6458277Y-11224698D01*
X6458277Y-11224698D02*
X6439229Y-11234222D01*
X6439229Y-11234222D02*
X6429706Y-11243746D01*
X6429706Y-11243746D02*
X6420182Y-11262793D01*
X6420182Y-11262793D02*
X6420182Y-11300888D01*
X6420182Y-11300888D02*
X6429706Y-11319936D01*
X6429706Y-11319936D02*
X6439229Y-11329460D01*
X6439229Y-11329460D02*
X6458277Y-11338984D01*
X6458277Y-11338984D02*
X6496372Y-11338984D01*
X6496372Y-11338984D02*
X6515420Y-11329460D01*
X6515420Y-11329460D02*
X6524944Y-11319936D01*
X6524944Y-11319936D02*
X6534467Y-11300888D01*
X6534467Y-11300888D02*
X6534467Y-11262793D01*
X6534467Y-11262793D02*
X6524944Y-11243746D01*
X6524944Y-11243746D02*
X6515420Y-11234222D01*
X6515420Y-11234222D02*
X6496372Y-11224698D01*
X6629706Y-11338984D02*
X6667801Y-11338984D01*
X6667801Y-11338984D02*
X6686848Y-11329460D01*
X6686848Y-11329460D02*
X6696372Y-11319936D01*
X6696372Y-11319936D02*
X6715420Y-11291365D01*
X6715420Y-11291365D02*
X6724944Y-11253269D01*
X6724944Y-11253269D02*
X6724944Y-11177079D01*
X6724944Y-11177079D02*
X6715420Y-11158031D01*
X6715420Y-11158031D02*
X6705896Y-11148508D01*
X6705896Y-11148508D02*
X6686848Y-11138984D01*
X6686848Y-11138984D02*
X6648753Y-11138984D01*
X6648753Y-11138984D02*
X6629706Y-11148508D01*
X6629706Y-11148508D02*
X6620182Y-11158031D01*
X6620182Y-11158031D02*
X6610658Y-11177079D01*
X6610658Y-11177079D02*
X6610658Y-11224698D01*
X6610658Y-11224698D02*
X6620182Y-11243746D01*
X6620182Y-11243746D02*
X6629706Y-11253269D01*
X6629706Y-11253269D02*
X6648753Y-11262793D01*
X6648753Y-11262793D02*
X6686848Y-11262793D01*
X6686848Y-11262793D02*
X6705896Y-11253269D01*
X6705896Y-11253269D02*
X6715420Y-11243746D01*
X6715420Y-11243746D02*
X6724944Y-11224698D01*
X6801134Y-11138984D02*
X6801134Y-11177079D01*
X6877325Y-11138984D02*
X6877325Y-11177079D01*
X7172563Y-11415174D02*
X7163039Y-11405650D01*
X7163039Y-11405650D02*
X7143991Y-11377079D01*
X7143991Y-11377079D02*
X7134468Y-11358031D01*
X7134468Y-11358031D02*
X7124944Y-11329460D01*
X7124944Y-11329460D02*
X7115420Y-11281841D01*
X7115420Y-11281841D02*
X7115420Y-11243746D01*
X7115420Y-11243746D02*
X7124944Y-11196127D01*
X7124944Y-11196127D02*
X7134468Y-11167555D01*
X7134468Y-11167555D02*
X7143991Y-11148508D01*
X7143991Y-11148508D02*
X7163039Y-11119936D01*
X7163039Y-11119936D02*
X7172563Y-11110412D01*
X7334468Y-11205650D02*
X7334468Y-11338984D01*
X7286848Y-11129460D02*
X7239229Y-11272317D01*
X7239229Y-11272317D02*
X7363039Y-11272317D01*
X7429706Y-11158031D02*
X7439229Y-11148508D01*
X7439229Y-11148508D02*
X7458277Y-11138984D01*
X7458277Y-11138984D02*
X7505896Y-11138984D01*
X7505896Y-11138984D02*
X7524944Y-11148508D01*
X7524944Y-11148508D02*
X7534468Y-11158031D01*
X7534468Y-11158031D02*
X7543991Y-11177079D01*
X7543991Y-11177079D02*
X7543991Y-11196127D01*
X7543991Y-11196127D02*
X7534468Y-11224698D01*
X7534468Y-11224698D02*
X7420182Y-11338984D01*
X7420182Y-11338984D02*
X7543991Y-11338984D01*
X7782087Y-11338984D02*
X7782087Y-11138984D01*
X7867801Y-11338984D02*
X7867801Y-11234222D01*
X7867801Y-11234222D02*
X7858277Y-11215174D01*
X7858277Y-11215174D02*
X7839230Y-11205650D01*
X7839230Y-11205650D02*
X7810658Y-11205650D01*
X7810658Y-11205650D02*
X7791610Y-11215174D01*
X7791610Y-11215174D02*
X7782087Y-11224698D01*
X7991610Y-11338984D02*
X7972563Y-11329460D01*
X7972563Y-11329460D02*
X7963039Y-11319936D01*
X7963039Y-11319936D02*
X7953515Y-11300888D01*
X7953515Y-11300888D02*
X7953515Y-11243746D01*
X7953515Y-11243746D02*
X7963039Y-11224698D01*
X7963039Y-11224698D02*
X7972563Y-11215174D01*
X7972563Y-11215174D02*
X7991610Y-11205650D01*
X7991610Y-11205650D02*
X8020182Y-11205650D01*
X8020182Y-11205650D02*
X8039230Y-11215174D01*
X8039230Y-11215174D02*
X8048753Y-11224698D01*
X8048753Y-11224698D02*
X8058277Y-11243746D01*
X8058277Y-11243746D02*
X8058277Y-11300888D01*
X8058277Y-11300888D02*
X8048753Y-11319936D01*
X8048753Y-11319936D02*
X8039230Y-11329460D01*
X8039230Y-11329460D02*
X8020182Y-11338984D01*
X8020182Y-11338984D02*
X7991610Y-11338984D01*
X8172563Y-11338984D02*
X8153515Y-11329460D01*
X8153515Y-11329460D02*
X8143991Y-11310412D01*
X8143991Y-11310412D02*
X8143991Y-11138984D01*
X8324944Y-11329460D02*
X8305896Y-11338984D01*
X8305896Y-11338984D02*
X8267801Y-11338984D01*
X8267801Y-11338984D02*
X8248753Y-11329460D01*
X8248753Y-11329460D02*
X8239230Y-11310412D01*
X8239230Y-11310412D02*
X8239230Y-11234222D01*
X8239230Y-11234222D02*
X8248753Y-11215174D01*
X8248753Y-11215174D02*
X8267801Y-11205650D01*
X8267801Y-11205650D02*
X8305896Y-11205650D01*
X8305896Y-11205650D02*
X8324944Y-11215174D01*
X8324944Y-11215174D02*
X8334468Y-11234222D01*
X8334468Y-11234222D02*
X8334468Y-11253269D01*
X8334468Y-11253269D02*
X8239230Y-11272317D01*
X8410658Y-11329460D02*
X8429706Y-11338984D01*
X8429706Y-11338984D02*
X8467801Y-11338984D01*
X8467801Y-11338984D02*
X8486849Y-11329460D01*
X8486849Y-11329460D02*
X8496373Y-11310412D01*
X8496373Y-11310412D02*
X8496373Y-11300888D01*
X8496373Y-11300888D02*
X8486849Y-11281841D01*
X8486849Y-11281841D02*
X8467801Y-11272317D01*
X8467801Y-11272317D02*
X8439230Y-11272317D01*
X8439230Y-11272317D02*
X8420182Y-11262793D01*
X8420182Y-11262793D02*
X8410658Y-11243746D01*
X8410658Y-11243746D02*
X8410658Y-11234222D01*
X8410658Y-11234222D02*
X8420182Y-11215174D01*
X8420182Y-11215174D02*
X8439230Y-11205650D01*
X8439230Y-11205650D02*
X8467801Y-11205650D01*
X8467801Y-11205650D02*
X8486849Y-11215174D01*
X8563039Y-11415174D02*
X8572563Y-11405650D01*
X8572563Y-11405650D02*
X8591611Y-11377079D01*
X8591611Y-11377079D02*
X8601134Y-11358031D01*
X8601134Y-11358031D02*
X8610658Y-11329460D01*
X8610658Y-11329460D02*
X8620182Y-11281841D01*
X8620182Y-11281841D02*
X8620182Y-11243746D01*
X8620182Y-11243746D02*
X8610658Y-11196127D01*
X8610658Y-11196127D02*
X8601134Y-11167555D01*
X8601134Y-11167555D02*
X8591611Y-11148508D01*
X8591611Y-11148508D02*
X8572563Y-11119936D01*
X8572563Y-11119936D02*
X8563039Y-11110412D01*
X8924944Y-11415174D02*
X8915420Y-11405650D01*
X8915420Y-11405650D02*
X8896373Y-11377079D01*
X8896373Y-11377079D02*
X8886849Y-11358031D01*
X8886849Y-11358031D02*
X8877325Y-11329460D01*
X8877325Y-11329460D02*
X8867801Y-11281841D01*
X8867801Y-11281841D02*
X8867801Y-11243746D01*
X8867801Y-11243746D02*
X8877325Y-11196127D01*
X8877325Y-11196127D02*
X8886849Y-11167555D01*
X8886849Y-11167555D02*
X8896373Y-11148508D01*
X8896373Y-11148508D02*
X8915420Y-11119936D01*
X8915420Y-11119936D02*
X8924944Y-11110412D01*
X9001134Y-11205650D02*
X9001134Y-11338984D01*
X9001134Y-11224698D02*
X9010658Y-11215174D01*
X9010658Y-11215174D02*
X9029706Y-11205650D01*
X9029706Y-11205650D02*
X9058277Y-11205650D01*
X9058277Y-11205650D02*
X9077325Y-11215174D01*
X9077325Y-11215174D02*
X9086849Y-11234222D01*
X9086849Y-11234222D02*
X9086849Y-11338984D01*
X9210658Y-11338984D02*
X9191611Y-11329460D01*
X9191611Y-11329460D02*
X9182087Y-11319936D01*
X9182087Y-11319936D02*
X9172563Y-11300888D01*
X9172563Y-11300888D02*
X9172563Y-11243746D01*
X9172563Y-11243746D02*
X9182087Y-11224698D01*
X9182087Y-11224698D02*
X9191611Y-11215174D01*
X9191611Y-11215174D02*
X9210658Y-11205650D01*
X9210658Y-11205650D02*
X9239230Y-11205650D01*
X9239230Y-11205650D02*
X9258277Y-11215174D01*
X9258277Y-11215174D02*
X9267801Y-11224698D01*
X9267801Y-11224698D02*
X9277325Y-11243746D01*
X9277325Y-11243746D02*
X9277325Y-11300888D01*
X9277325Y-11300888D02*
X9267801Y-11319936D01*
X9267801Y-11319936D02*
X9258277Y-11329460D01*
X9258277Y-11329460D02*
X9239230Y-11338984D01*
X9239230Y-11338984D02*
X9210658Y-11338984D01*
X9334468Y-11205650D02*
X9410658Y-11205650D01*
X9363039Y-11138984D02*
X9363039Y-11310412D01*
X9363039Y-11310412D02*
X9372563Y-11329460D01*
X9372563Y-11329460D02*
X9391611Y-11338984D01*
X9391611Y-11338984D02*
X9410658Y-11338984D01*
X9629706Y-11205650D02*
X9629706Y-11405650D01*
X9629706Y-11215174D02*
X9648754Y-11205650D01*
X9648754Y-11205650D02*
X9686849Y-11205650D01*
X9686849Y-11205650D02*
X9705896Y-11215174D01*
X9705896Y-11215174D02*
X9715420Y-11224698D01*
X9715420Y-11224698D02*
X9724944Y-11243746D01*
X9724944Y-11243746D02*
X9724944Y-11300888D01*
X9724944Y-11300888D02*
X9715420Y-11319936D01*
X9715420Y-11319936D02*
X9705896Y-11329460D01*
X9705896Y-11329460D02*
X9686849Y-11338984D01*
X9686849Y-11338984D02*
X9648754Y-11338984D01*
X9648754Y-11338984D02*
X9629706Y-11329460D01*
X9839230Y-11338984D02*
X9820182Y-11329460D01*
X9820182Y-11329460D02*
X9810658Y-11310412D01*
X9810658Y-11310412D02*
X9810658Y-11138984D01*
X10001135Y-11338984D02*
X10001135Y-11234222D01*
X10001135Y-11234222D02*
X9991611Y-11215174D01*
X9991611Y-11215174D02*
X9972563Y-11205650D01*
X9972563Y-11205650D02*
X9934468Y-11205650D01*
X9934468Y-11205650D02*
X9915420Y-11215174D01*
X10001135Y-11329460D02*
X9982087Y-11338984D01*
X9982087Y-11338984D02*
X9934468Y-11338984D01*
X9934468Y-11338984D02*
X9915420Y-11329460D01*
X9915420Y-11329460D02*
X9905896Y-11310412D01*
X9905896Y-11310412D02*
X9905896Y-11291365D01*
X9905896Y-11291365D02*
X9915420Y-11272317D01*
X9915420Y-11272317D02*
X9934468Y-11262793D01*
X9934468Y-11262793D02*
X9982087Y-11262793D01*
X9982087Y-11262793D02*
X10001135Y-11253269D01*
X10067801Y-11205650D02*
X10143992Y-11205650D01*
X10096373Y-11138984D02*
X10096373Y-11310412D01*
X10096373Y-11310412D02*
X10105896Y-11329460D01*
X10105896Y-11329460D02*
X10124944Y-11338984D01*
X10124944Y-11338984D02*
X10143992Y-11338984D01*
X10286849Y-11329460D02*
X10267801Y-11338984D01*
X10267801Y-11338984D02*
X10229706Y-11338984D01*
X10229706Y-11338984D02*
X10210658Y-11329460D01*
X10210658Y-11329460D02*
X10201135Y-11310412D01*
X10201135Y-11310412D02*
X10201135Y-11234222D01*
X10201135Y-11234222D02*
X10210658Y-11215174D01*
X10210658Y-11215174D02*
X10229706Y-11205650D01*
X10229706Y-11205650D02*
X10267801Y-11205650D01*
X10267801Y-11205650D02*
X10286849Y-11215174D01*
X10286849Y-11215174D02*
X10296373Y-11234222D01*
X10296373Y-11234222D02*
X10296373Y-11253269D01*
X10296373Y-11253269D02*
X10201135Y-11272317D01*
X10467801Y-11338984D02*
X10467801Y-11138984D01*
X10467801Y-11329460D02*
X10448754Y-11338984D01*
X10448754Y-11338984D02*
X10410658Y-11338984D01*
X10410658Y-11338984D02*
X10391611Y-11329460D01*
X10391611Y-11329460D02*
X10382087Y-11319936D01*
X10382087Y-11319936D02*
X10372563Y-11300888D01*
X10372563Y-11300888D02*
X10372563Y-11243746D01*
X10372563Y-11243746D02*
X10382087Y-11224698D01*
X10382087Y-11224698D02*
X10391611Y-11215174D01*
X10391611Y-11215174D02*
X10410658Y-11205650D01*
X10410658Y-11205650D02*
X10448754Y-11205650D01*
X10448754Y-11205650D02*
X10467801Y-11215174D01*
X10543992Y-11415174D02*
X10553516Y-11405650D01*
X10553516Y-11405650D02*
X10572563Y-11377079D01*
X10572563Y-11377079D02*
X10582087Y-11358031D01*
X10582087Y-11358031D02*
X10591611Y-11329460D01*
X10591611Y-11329460D02*
X10601135Y-11281841D01*
X10601135Y-11281841D02*
X10601135Y-11243746D01*
X10601135Y-11243746D02*
X10591611Y-11196127D01*
X10591611Y-11196127D02*
X10582087Y-11167555D01*
X10582087Y-11167555D02*
X10572563Y-11148508D01*
X10572563Y-11148508D02*
X10553516Y-11119936D01*
X10553516Y-11119936D02*
X10543992Y-11110412D01*
X3497500Y-11442500D02*
X3497500Y-11642500D01*
X3397500Y-11542500D02*
X3597500Y-11542500D01*
X3839229Y-11433984D02*
X3963039Y-11433984D01*
X3963039Y-11433984D02*
X3896372Y-11510174D01*
X3896372Y-11510174D02*
X3924943Y-11510174D01*
X3924943Y-11510174D02*
X3943991Y-11519698D01*
X3943991Y-11519698D02*
X3953515Y-11529222D01*
X3953515Y-11529222D02*
X3963039Y-11548269D01*
X3963039Y-11548269D02*
X3963039Y-11595888D01*
X3963039Y-11595888D02*
X3953515Y-11614936D01*
X3953515Y-11614936D02*
X3943991Y-11624460D01*
X3943991Y-11624460D02*
X3924943Y-11633984D01*
X3924943Y-11633984D02*
X3867801Y-11633984D01*
X3867801Y-11633984D02*
X3848753Y-11624460D01*
X3848753Y-11624460D02*
X3839229Y-11614936D01*
X4048753Y-11614936D02*
X4058277Y-11624460D01*
X4058277Y-11624460D02*
X4048753Y-11633984D01*
X4048753Y-11633984D02*
X4039229Y-11624460D01*
X4039229Y-11624460D02*
X4048753Y-11614936D01*
X4048753Y-11614936D02*
X4048753Y-11633984D01*
X4153515Y-11633984D02*
X4191610Y-11633984D01*
X4191610Y-11633984D02*
X4210658Y-11624460D01*
X4210658Y-11624460D02*
X4220182Y-11614936D01*
X4220182Y-11614936D02*
X4239229Y-11586365D01*
X4239229Y-11586365D02*
X4248753Y-11548269D01*
X4248753Y-11548269D02*
X4248753Y-11472079D01*
X4248753Y-11472079D02*
X4239229Y-11453031D01*
X4239229Y-11453031D02*
X4229705Y-11443508D01*
X4229705Y-11443508D02*
X4210658Y-11433984D01*
X4210658Y-11433984D02*
X4172562Y-11433984D01*
X4172562Y-11433984D02*
X4153515Y-11443508D01*
X4153515Y-11443508D02*
X4143991Y-11453031D01*
X4143991Y-11453031D02*
X4134467Y-11472079D01*
X4134467Y-11472079D02*
X4134467Y-11519698D01*
X4134467Y-11519698D02*
X4143991Y-11538746D01*
X4143991Y-11538746D02*
X4153515Y-11548269D01*
X4153515Y-11548269D02*
X4172562Y-11557793D01*
X4172562Y-11557793D02*
X4210658Y-11557793D01*
X4210658Y-11557793D02*
X4229705Y-11548269D01*
X4229705Y-11548269D02*
X4239229Y-11538746D01*
X4239229Y-11538746D02*
X4248753Y-11519698D01*
X4363039Y-11519698D02*
X4343991Y-11510174D01*
X4343991Y-11510174D02*
X4334467Y-11500650D01*
X4334467Y-11500650D02*
X4324944Y-11481603D01*
X4324944Y-11481603D02*
X4324944Y-11472079D01*
X4324944Y-11472079D02*
X4334467Y-11453031D01*
X4334467Y-11453031D02*
X4343991Y-11443508D01*
X4343991Y-11443508D02*
X4363039Y-11433984D01*
X4363039Y-11433984D02*
X4401134Y-11433984D01*
X4401134Y-11433984D02*
X4420182Y-11443508D01*
X4420182Y-11443508D02*
X4429705Y-11453031D01*
X4429705Y-11453031D02*
X4439229Y-11472079D01*
X4439229Y-11472079D02*
X4439229Y-11481603D01*
X4439229Y-11481603D02*
X4429705Y-11500650D01*
X4429705Y-11500650D02*
X4420182Y-11510174D01*
X4420182Y-11510174D02*
X4401134Y-11519698D01*
X4401134Y-11519698D02*
X4363039Y-11519698D01*
X4363039Y-11519698D02*
X4343991Y-11529222D01*
X4343991Y-11529222D02*
X4334467Y-11538746D01*
X4334467Y-11538746D02*
X4324944Y-11557793D01*
X4324944Y-11557793D02*
X4324944Y-11595888D01*
X4324944Y-11595888D02*
X4334467Y-11614936D01*
X4334467Y-11614936D02*
X4343991Y-11624460D01*
X4343991Y-11624460D02*
X4363039Y-11633984D01*
X4363039Y-11633984D02*
X4401134Y-11633984D01*
X4401134Y-11633984D02*
X4420182Y-11624460D01*
X4420182Y-11624460D02*
X4429705Y-11614936D01*
X4429705Y-11614936D02*
X4439229Y-11595888D01*
X4439229Y-11595888D02*
X4439229Y-11557793D01*
X4439229Y-11557793D02*
X4429705Y-11538746D01*
X4429705Y-11538746D02*
X4420182Y-11529222D01*
X4420182Y-11529222D02*
X4401134Y-11519698D01*
X4553515Y-11519698D02*
X4534467Y-11510174D01*
X4534467Y-11510174D02*
X4524944Y-11500650D01*
X4524944Y-11500650D02*
X4515420Y-11481603D01*
X4515420Y-11481603D02*
X4515420Y-11472079D01*
X4515420Y-11472079D02*
X4524944Y-11453031D01*
X4524944Y-11453031D02*
X4534467Y-11443508D01*
X4534467Y-11443508D02*
X4553515Y-11433984D01*
X4553515Y-11433984D02*
X4591610Y-11433984D01*
X4591610Y-11433984D02*
X4610658Y-11443508D01*
X4610658Y-11443508D02*
X4620182Y-11453031D01*
X4620182Y-11453031D02*
X4629705Y-11472079D01*
X4629705Y-11472079D02*
X4629705Y-11481603D01*
X4629705Y-11481603D02*
X4620182Y-11500650D01*
X4620182Y-11500650D02*
X4610658Y-11510174D01*
X4610658Y-11510174D02*
X4591610Y-11519698D01*
X4591610Y-11519698D02*
X4553515Y-11519698D01*
X4553515Y-11519698D02*
X4534467Y-11529222D01*
X4534467Y-11529222D02*
X4524944Y-11538746D01*
X4524944Y-11538746D02*
X4515420Y-11557793D01*
X4515420Y-11557793D02*
X4515420Y-11595888D01*
X4515420Y-11595888D02*
X4524944Y-11614936D01*
X4524944Y-11614936D02*
X4534467Y-11624460D01*
X4534467Y-11624460D02*
X4553515Y-11633984D01*
X4553515Y-11633984D02*
X4591610Y-11633984D01*
X4591610Y-11633984D02*
X4610658Y-11624460D01*
X4610658Y-11624460D02*
X4620182Y-11614936D01*
X4620182Y-11614936D02*
X4629705Y-11595888D01*
X4629705Y-11595888D02*
X4629705Y-11557793D01*
X4629705Y-11557793D02*
X4620182Y-11538746D01*
X4620182Y-11538746D02*
X4610658Y-11529222D01*
X4610658Y-11529222D02*
X4591610Y-11519698D01*
X4715420Y-11633984D02*
X4715420Y-11500650D01*
X4715420Y-11519698D02*
X4724944Y-11510174D01*
X4724944Y-11510174D02*
X4743991Y-11500650D01*
X4743991Y-11500650D02*
X4772563Y-11500650D01*
X4772563Y-11500650D02*
X4791610Y-11510174D01*
X4791610Y-11510174D02*
X4801134Y-11529222D01*
X4801134Y-11529222D02*
X4801134Y-11633984D01*
X4801134Y-11529222D02*
X4810658Y-11510174D01*
X4810658Y-11510174D02*
X4829705Y-11500650D01*
X4829705Y-11500650D02*
X4858277Y-11500650D01*
X4858277Y-11500650D02*
X4877325Y-11510174D01*
X4877325Y-11510174D02*
X4886848Y-11529222D01*
X4886848Y-11529222D02*
X4886848Y-11633984D01*
X4982086Y-11633984D02*
X4982086Y-11500650D01*
X4982086Y-11519698D02*
X4991610Y-11510174D01*
X4991610Y-11510174D02*
X5010658Y-11500650D01*
X5010658Y-11500650D02*
X5039229Y-11500650D01*
X5039229Y-11500650D02*
X5058277Y-11510174D01*
X5058277Y-11510174D02*
X5067801Y-11529222D01*
X5067801Y-11529222D02*
X5067801Y-11633984D01*
X5067801Y-11529222D02*
X5077325Y-11510174D01*
X5077325Y-11510174D02*
X5096372Y-11500650D01*
X5096372Y-11500650D02*
X5124944Y-11500650D01*
X5124944Y-11500650D02*
X5143991Y-11510174D01*
X5143991Y-11510174D02*
X5153515Y-11529222D01*
X5153515Y-11529222D02*
X5153515Y-11633984D01*
X5543991Y-11424460D02*
X5372563Y-11681603D01*
X5801134Y-11433984D02*
X5820182Y-11433984D01*
X5820182Y-11433984D02*
X5839229Y-11443508D01*
X5839229Y-11443508D02*
X5848753Y-11453031D01*
X5848753Y-11453031D02*
X5858277Y-11472079D01*
X5858277Y-11472079D02*
X5867801Y-11510174D01*
X5867801Y-11510174D02*
X5867801Y-11557793D01*
X5867801Y-11557793D02*
X5858277Y-11595888D01*
X5858277Y-11595888D02*
X5848753Y-11614936D01*
X5848753Y-11614936D02*
X5839229Y-11624460D01*
X5839229Y-11624460D02*
X5820182Y-11633984D01*
X5820182Y-11633984D02*
X5801134Y-11633984D01*
X5801134Y-11633984D02*
X5782086Y-11624460D01*
X5782086Y-11624460D02*
X5772563Y-11614936D01*
X5772563Y-11614936D02*
X5763039Y-11595888D01*
X5763039Y-11595888D02*
X5753515Y-11557793D01*
X5753515Y-11557793D02*
X5753515Y-11510174D01*
X5753515Y-11510174D02*
X5763039Y-11472079D01*
X5763039Y-11472079D02*
X5772563Y-11453031D01*
X5772563Y-11453031D02*
X5782086Y-11443508D01*
X5782086Y-11443508D02*
X5801134Y-11433984D01*
X5953515Y-11614936D02*
X5963039Y-11624460D01*
X5963039Y-11624460D02*
X5953515Y-11633984D01*
X5953515Y-11633984D02*
X5943991Y-11624460D01*
X5943991Y-11624460D02*
X5953515Y-11614936D01*
X5953515Y-11614936D02*
X5953515Y-11633984D01*
X6153515Y-11633984D02*
X6039229Y-11633984D01*
X6096372Y-11633984D02*
X6096372Y-11433984D01*
X6096372Y-11433984D02*
X6077325Y-11462555D01*
X6077325Y-11462555D02*
X6058277Y-11481603D01*
X6058277Y-11481603D02*
X6039229Y-11491127D01*
X6334467Y-11433984D02*
X6239229Y-11433984D01*
X6239229Y-11433984D02*
X6229706Y-11529222D01*
X6229706Y-11529222D02*
X6239229Y-11519698D01*
X6239229Y-11519698D02*
X6258277Y-11510174D01*
X6258277Y-11510174D02*
X6305896Y-11510174D01*
X6305896Y-11510174D02*
X6324944Y-11519698D01*
X6324944Y-11519698D02*
X6334467Y-11529222D01*
X6334467Y-11529222D02*
X6343991Y-11548269D01*
X6343991Y-11548269D02*
X6343991Y-11595888D01*
X6343991Y-11595888D02*
X6334467Y-11614936D01*
X6334467Y-11614936D02*
X6324944Y-11624460D01*
X6324944Y-11624460D02*
X6305896Y-11633984D01*
X6305896Y-11633984D02*
X6258277Y-11633984D01*
X6258277Y-11633984D02*
X6239229Y-11624460D01*
X6239229Y-11624460D02*
X6229706Y-11614936D01*
X6410658Y-11433984D02*
X6543991Y-11433984D01*
X6543991Y-11433984D02*
X6458277Y-11633984D01*
X6658277Y-11433984D02*
X6677325Y-11433984D01*
X6677325Y-11433984D02*
X6696372Y-11443508D01*
X6696372Y-11443508D02*
X6705896Y-11453031D01*
X6705896Y-11453031D02*
X6715420Y-11472079D01*
X6715420Y-11472079D02*
X6724944Y-11510174D01*
X6724944Y-11510174D02*
X6724944Y-11557793D01*
X6724944Y-11557793D02*
X6715420Y-11595888D01*
X6715420Y-11595888D02*
X6705896Y-11614936D01*
X6705896Y-11614936D02*
X6696372Y-11624460D01*
X6696372Y-11624460D02*
X6677325Y-11633984D01*
X6677325Y-11633984D02*
X6658277Y-11633984D01*
X6658277Y-11633984D02*
X6639229Y-11624460D01*
X6639229Y-11624460D02*
X6629706Y-11614936D01*
X6629706Y-11614936D02*
X6620182Y-11595888D01*
X6620182Y-11595888D02*
X6610658Y-11557793D01*
X6610658Y-11557793D02*
X6610658Y-11510174D01*
X6610658Y-11510174D02*
X6620182Y-11472079D01*
X6620182Y-11472079D02*
X6629706Y-11453031D01*
X6629706Y-11453031D02*
X6639229Y-11443508D01*
X6639229Y-11443508D02*
X6658277Y-11433984D01*
X6801134Y-11433984D02*
X6801134Y-11472079D01*
X6877325Y-11433984D02*
X6877325Y-11472079D01*
X7172563Y-11710174D02*
X7163039Y-11700650D01*
X7163039Y-11700650D02*
X7143991Y-11672079D01*
X7143991Y-11672079D02*
X7134468Y-11653031D01*
X7134468Y-11653031D02*
X7124944Y-11624460D01*
X7124944Y-11624460D02*
X7115420Y-11576841D01*
X7115420Y-11576841D02*
X7115420Y-11538746D01*
X7115420Y-11538746D02*
X7124944Y-11491127D01*
X7124944Y-11491127D02*
X7134468Y-11462555D01*
X7134468Y-11462555D02*
X7143991Y-11443508D01*
X7143991Y-11443508D02*
X7163039Y-11414936D01*
X7163039Y-11414936D02*
X7172563Y-11405412D01*
X7239229Y-11453031D02*
X7248753Y-11443508D01*
X7248753Y-11443508D02*
X7267801Y-11433984D01*
X7267801Y-11433984D02*
X7315420Y-11433984D01*
X7315420Y-11433984D02*
X7334468Y-11443508D01*
X7334468Y-11443508D02*
X7343991Y-11453031D01*
X7343991Y-11453031D02*
X7353515Y-11472079D01*
X7353515Y-11472079D02*
X7353515Y-11491127D01*
X7353515Y-11491127D02*
X7343991Y-11519698D01*
X7343991Y-11519698D02*
X7229706Y-11633984D01*
X7229706Y-11633984D02*
X7353515Y-11633984D01*
X7543991Y-11633984D02*
X7429706Y-11633984D01*
X7486848Y-11633984D02*
X7486848Y-11433984D01*
X7486848Y-11433984D02*
X7467801Y-11462555D01*
X7467801Y-11462555D02*
X7448753Y-11481603D01*
X7448753Y-11481603D02*
X7429706Y-11491127D01*
X7782087Y-11633984D02*
X7782087Y-11433984D01*
X7867801Y-11633984D02*
X7867801Y-11529222D01*
X7867801Y-11529222D02*
X7858277Y-11510174D01*
X7858277Y-11510174D02*
X7839230Y-11500650D01*
X7839230Y-11500650D02*
X7810658Y-11500650D01*
X7810658Y-11500650D02*
X7791610Y-11510174D01*
X7791610Y-11510174D02*
X7782087Y-11519698D01*
X7991610Y-11633984D02*
X7972563Y-11624460D01*
X7972563Y-11624460D02*
X7963039Y-11614936D01*
X7963039Y-11614936D02*
X7953515Y-11595888D01*
X7953515Y-11595888D02*
X7953515Y-11538746D01*
X7953515Y-11538746D02*
X7963039Y-11519698D01*
X7963039Y-11519698D02*
X7972563Y-11510174D01*
X7972563Y-11510174D02*
X7991610Y-11500650D01*
X7991610Y-11500650D02*
X8020182Y-11500650D01*
X8020182Y-11500650D02*
X8039230Y-11510174D01*
X8039230Y-11510174D02*
X8048753Y-11519698D01*
X8048753Y-11519698D02*
X8058277Y-11538746D01*
X8058277Y-11538746D02*
X8058277Y-11595888D01*
X8058277Y-11595888D02*
X8048753Y-11614936D01*
X8048753Y-11614936D02*
X8039230Y-11624460D01*
X8039230Y-11624460D02*
X8020182Y-11633984D01*
X8020182Y-11633984D02*
X7991610Y-11633984D01*
X8172563Y-11633984D02*
X8153515Y-11624460D01*
X8153515Y-11624460D02*
X8143991Y-11605412D01*
X8143991Y-11605412D02*
X8143991Y-11433984D01*
X8324944Y-11624460D02*
X8305896Y-11633984D01*
X8305896Y-11633984D02*
X8267801Y-11633984D01*
X8267801Y-11633984D02*
X8248753Y-11624460D01*
X8248753Y-11624460D02*
X8239230Y-11605412D01*
X8239230Y-11605412D02*
X8239230Y-11529222D01*
X8239230Y-11529222D02*
X8248753Y-11510174D01*
X8248753Y-11510174D02*
X8267801Y-11500650D01*
X8267801Y-11500650D02*
X8305896Y-11500650D01*
X8305896Y-11500650D02*
X8324944Y-11510174D01*
X8324944Y-11510174D02*
X8334468Y-11529222D01*
X8334468Y-11529222D02*
X8334468Y-11548269D01*
X8334468Y-11548269D02*
X8239230Y-11567317D01*
X8410658Y-11624460D02*
X8429706Y-11633984D01*
X8429706Y-11633984D02*
X8467801Y-11633984D01*
X8467801Y-11633984D02*
X8486849Y-11624460D01*
X8486849Y-11624460D02*
X8496373Y-11605412D01*
X8496373Y-11605412D02*
X8496373Y-11595888D01*
X8496373Y-11595888D02*
X8486849Y-11576841D01*
X8486849Y-11576841D02*
X8467801Y-11567317D01*
X8467801Y-11567317D02*
X8439230Y-11567317D01*
X8439230Y-11567317D02*
X8420182Y-11557793D01*
X8420182Y-11557793D02*
X8410658Y-11538746D01*
X8410658Y-11538746D02*
X8410658Y-11529222D01*
X8410658Y-11529222D02*
X8420182Y-11510174D01*
X8420182Y-11510174D02*
X8439230Y-11500650D01*
X8439230Y-11500650D02*
X8467801Y-11500650D01*
X8467801Y-11500650D02*
X8486849Y-11510174D01*
X8563039Y-11710174D02*
X8572563Y-11700650D01*
X8572563Y-11700650D02*
X8591611Y-11672079D01*
X8591611Y-11672079D02*
X8601134Y-11653031D01*
X8601134Y-11653031D02*
X8610658Y-11624460D01*
X8610658Y-11624460D02*
X8620182Y-11576841D01*
X8620182Y-11576841D02*
X8620182Y-11538746D01*
X8620182Y-11538746D02*
X8610658Y-11491127D01*
X8610658Y-11491127D02*
X8601134Y-11462555D01*
X8601134Y-11462555D02*
X8591611Y-11443508D01*
X8591611Y-11443508D02*
X8572563Y-11414936D01*
X8572563Y-11414936D02*
X8563039Y-11405412D01*
X8924944Y-11710174D02*
X8915420Y-11700650D01*
X8915420Y-11700650D02*
X8896373Y-11672079D01*
X8896373Y-11672079D02*
X8886849Y-11653031D01*
X8886849Y-11653031D02*
X8877325Y-11624460D01*
X8877325Y-11624460D02*
X8867801Y-11576841D01*
X8867801Y-11576841D02*
X8867801Y-11538746D01*
X8867801Y-11538746D02*
X8877325Y-11491127D01*
X8877325Y-11491127D02*
X8886849Y-11462555D01*
X8886849Y-11462555D02*
X8896373Y-11443508D01*
X8896373Y-11443508D02*
X8915420Y-11414936D01*
X8915420Y-11414936D02*
X8924944Y-11405412D01*
X9001134Y-11500650D02*
X9001134Y-11633984D01*
X9001134Y-11519698D02*
X9010658Y-11510174D01*
X9010658Y-11510174D02*
X9029706Y-11500650D01*
X9029706Y-11500650D02*
X9058277Y-11500650D01*
X9058277Y-11500650D02*
X9077325Y-11510174D01*
X9077325Y-11510174D02*
X9086849Y-11529222D01*
X9086849Y-11529222D02*
X9086849Y-11633984D01*
X9210658Y-11633984D02*
X9191611Y-11624460D01*
X9191611Y-11624460D02*
X9182087Y-11614936D01*
X9182087Y-11614936D02*
X9172563Y-11595888D01*
X9172563Y-11595888D02*
X9172563Y-11538746D01*
X9172563Y-11538746D02*
X9182087Y-11519698D01*
X9182087Y-11519698D02*
X9191611Y-11510174D01*
X9191611Y-11510174D02*
X9210658Y-11500650D01*
X9210658Y-11500650D02*
X9239230Y-11500650D01*
X9239230Y-11500650D02*
X9258277Y-11510174D01*
X9258277Y-11510174D02*
X9267801Y-11519698D01*
X9267801Y-11519698D02*
X9277325Y-11538746D01*
X9277325Y-11538746D02*
X9277325Y-11595888D01*
X9277325Y-11595888D02*
X9267801Y-11614936D01*
X9267801Y-11614936D02*
X9258277Y-11624460D01*
X9258277Y-11624460D02*
X9239230Y-11633984D01*
X9239230Y-11633984D02*
X9210658Y-11633984D01*
X9334468Y-11500650D02*
X9410658Y-11500650D01*
X9363039Y-11433984D02*
X9363039Y-11605412D01*
X9363039Y-11605412D02*
X9372563Y-11624460D01*
X9372563Y-11624460D02*
X9391611Y-11633984D01*
X9391611Y-11633984D02*
X9410658Y-11633984D01*
X9629706Y-11500650D02*
X9629706Y-11700650D01*
X9629706Y-11510174D02*
X9648754Y-11500650D01*
X9648754Y-11500650D02*
X9686849Y-11500650D01*
X9686849Y-11500650D02*
X9705896Y-11510174D01*
X9705896Y-11510174D02*
X9715420Y-11519698D01*
X9715420Y-11519698D02*
X9724944Y-11538746D01*
X9724944Y-11538746D02*
X9724944Y-11595888D01*
X9724944Y-11595888D02*
X9715420Y-11614936D01*
X9715420Y-11614936D02*
X9705896Y-11624460D01*
X9705896Y-11624460D02*
X9686849Y-11633984D01*
X9686849Y-11633984D02*
X9648754Y-11633984D01*
X9648754Y-11633984D02*
X9629706Y-11624460D01*
X9839230Y-11633984D02*
X9820182Y-11624460D01*
X9820182Y-11624460D02*
X9810658Y-11605412D01*
X9810658Y-11605412D02*
X9810658Y-11433984D01*
X10001135Y-11633984D02*
X10001135Y-11529222D01*
X10001135Y-11529222D02*
X9991611Y-11510174D01*
X9991611Y-11510174D02*
X9972563Y-11500650D01*
X9972563Y-11500650D02*
X9934468Y-11500650D01*
X9934468Y-11500650D02*
X9915420Y-11510174D01*
X10001135Y-11624460D02*
X9982087Y-11633984D01*
X9982087Y-11633984D02*
X9934468Y-11633984D01*
X9934468Y-11633984D02*
X9915420Y-11624460D01*
X9915420Y-11624460D02*
X9905896Y-11605412D01*
X9905896Y-11605412D02*
X9905896Y-11586365D01*
X9905896Y-11586365D02*
X9915420Y-11567317D01*
X9915420Y-11567317D02*
X9934468Y-11557793D01*
X9934468Y-11557793D02*
X9982087Y-11557793D01*
X9982087Y-11557793D02*
X10001135Y-11548269D01*
X10067801Y-11500650D02*
X10143992Y-11500650D01*
X10096373Y-11433984D02*
X10096373Y-11605412D01*
X10096373Y-11605412D02*
X10105896Y-11624460D01*
X10105896Y-11624460D02*
X10124944Y-11633984D01*
X10124944Y-11633984D02*
X10143992Y-11633984D01*
X10286849Y-11624460D02*
X10267801Y-11633984D01*
X10267801Y-11633984D02*
X10229706Y-11633984D01*
X10229706Y-11633984D02*
X10210658Y-11624460D01*
X10210658Y-11624460D02*
X10201135Y-11605412D01*
X10201135Y-11605412D02*
X10201135Y-11529222D01*
X10201135Y-11529222D02*
X10210658Y-11510174D01*
X10210658Y-11510174D02*
X10229706Y-11500650D01*
X10229706Y-11500650D02*
X10267801Y-11500650D01*
X10267801Y-11500650D02*
X10286849Y-11510174D01*
X10286849Y-11510174D02*
X10296373Y-11529222D01*
X10296373Y-11529222D02*
X10296373Y-11548269D01*
X10296373Y-11548269D02*
X10201135Y-11567317D01*
X10467801Y-11633984D02*
X10467801Y-11433984D01*
X10467801Y-11624460D02*
X10448754Y-11633984D01*
X10448754Y-11633984D02*
X10410658Y-11633984D01*
X10410658Y-11633984D02*
X10391611Y-11624460D01*
X10391611Y-11624460D02*
X10382087Y-11614936D01*
X10382087Y-11614936D02*
X10372563Y-11595888D01*
X10372563Y-11595888D02*
X10372563Y-11538746D01*
X10372563Y-11538746D02*
X10382087Y-11519698D01*
X10382087Y-11519698D02*
X10391611Y-11510174D01*
X10391611Y-11510174D02*
X10410658Y-11500650D01*
X10410658Y-11500650D02*
X10448754Y-11500650D01*
X10448754Y-11500650D02*
X10467801Y-11510174D01*
X10543992Y-11710174D02*
X10553516Y-11700650D01*
X10553516Y-11700650D02*
X10572563Y-11672079D01*
X10572563Y-11672079D02*
X10582087Y-11653031D01*
X10582087Y-11653031D02*
X10591611Y-11624460D01*
X10591611Y-11624460D02*
X10601135Y-11576841D01*
X10601135Y-11576841D02*
X10601135Y-11538746D01*
X10601135Y-11538746D02*
X10591611Y-11491127D01*
X10591611Y-11491127D02*
X10582087Y-11462555D01*
X10582087Y-11462555D02*
X10572563Y-11443508D01*
X10572563Y-11443508D02*
X10553516Y-11414936D01*
X10553516Y-11414936D02*
X10543992Y-11405412D01*
M02*
