%TF.GenerationSoftware,KiCad,Pcbnew,8.0.1*%
%TF.CreationDate,2024-05-26T01:43:09+02:00*%
%TF.ProjectId,KeyboardTest2_right,4b657962-6f61-4726-9454-657374325f72,rev?*%
%TF.SameCoordinates,Original*%
%TF.FileFunction,Drillmap*%
%TF.FilePolarity,Positive*%
%FSLAX45Y45*%
G04 Gerber Fmt 4.5, Leading zero omitted, Abs format (unit mm)*
G04 Created by KiCad (PCBNEW 8.0.1) date 2024-05-26 01:43:09*
%MOMM*%
%LPD*%
G01*
G04 APERTURE LIST*
%ADD10C,0.050000*%
%ADD11C,0.200000*%
%ADD12C,0.100000*%
%ADD13C,0.300000*%
G04 APERTURE END LIST*
D10*
X11100000Y-2125000D02*
X12950000Y-2125000D01*
X7173607Y-2250000D02*
G75*
G02*
X6726393Y-2250000I-223607J0D01*
G01*
X6726393Y-2250000D02*
G75*
G02*
X7173607Y-2250000I223607J0D01*
G01*
X13000000Y-2125000D02*
X13000000Y-2425000D01*
X6550000Y-1850000D02*
X6550000Y-2650000D01*
X14900000Y-2425000D02*
X16750000Y-2425000D01*
X9250000Y-8275000D02*
X10350000Y-9775000D01*
X16750000Y-2425000D02*
X16750000Y-8875000D01*
X11100000Y-1900000D02*
X11100000Y-1850000D01*
X14050000Y-10325000D02*
X12150000Y-9775000D01*
X7300000Y-8275000D02*
X9250000Y-8275000D01*
X3600000Y-2650000D02*
X3600000Y-2675000D01*
X11100000Y-1850000D02*
X6550000Y-1850000D01*
X3600000Y-8275000D02*
X3600000Y-2675000D01*
X16750000Y-8875000D02*
X16000000Y-10325000D01*
X7300000Y-8275000D02*
X5500000Y-8275000D01*
X10123607Y-8000000D02*
G75*
G02*
X9676393Y-8000000I-223607J0D01*
G01*
X9676393Y-8000000D02*
G75*
G02*
X10123607Y-8000000I223607J0D01*
G01*
X12150000Y-9775000D02*
X10350000Y-9775000D01*
X11100000Y-1925000D02*
X11100000Y-2125000D01*
X16000000Y-10325000D02*
X14050000Y-10325000D01*
X5500000Y-8275000D02*
X3600000Y-8275000D01*
X12950000Y-2125000D02*
X13000000Y-2125000D01*
X15823607Y-7676393D02*
G75*
G02*
X15376393Y-7676393I-223607J0D01*
G01*
X15376393Y-7676393D02*
G75*
G02*
X15823607Y-7676393I223607J0D01*
G01*
X6550000Y-2650000D02*
X3600000Y-2650000D01*
X13000000Y-2425000D02*
X14900000Y-2425000D01*
X11100000Y-1925000D02*
X11100000Y-1900000D01*
D11*
D12*
X4685000Y-4135000D02*
X4715000Y-4165000D01*
X4715000Y-4135000D02*
X4685000Y-4165000D01*
X4735000Y-5985000D02*
X4765000Y-6015000D01*
X4765000Y-5985000D02*
X4735000Y-6015000D01*
X4810550Y-4685000D02*
X4840550Y-4715000D01*
X4840550Y-4685000D02*
X4810550Y-4715000D01*
X4935000Y-4135000D02*
X4965000Y-4165000D01*
X4965000Y-4135000D02*
X4935000Y-4165000D01*
X4985000Y-5985000D02*
X5015000Y-6015000D01*
X5015000Y-5985000D02*
X4985000Y-6015000D01*
X6535000Y-5935000D02*
X6565000Y-5965000D01*
X6565000Y-5935000D02*
X6535000Y-5965000D01*
X6585000Y-4085000D02*
X6615000Y-4115000D01*
X6615000Y-4085000D02*
X6585000Y-4115000D01*
X6713540Y-4585000D02*
X6743540Y-4615000D01*
X6743540Y-4585000D02*
X6713540Y-4615000D01*
X6885000Y-4085000D02*
X6915000Y-4115000D01*
X6915000Y-4085000D02*
X6885000Y-4115000D01*
X6885000Y-5935000D02*
X6915000Y-5965000D01*
X6915000Y-5935000D02*
X6885000Y-5965000D01*
X8485000Y-3435000D02*
X8515000Y-3465000D01*
X8515000Y-3435000D02*
X8485000Y-3465000D01*
X8485000Y-5385000D02*
X8515000Y-5415000D01*
X8515000Y-5385000D02*
X8485000Y-5415000D01*
X8614268Y-4035000D02*
X8644268Y-4065000D01*
X8644268Y-4035000D02*
X8614268Y-4065000D01*
X8785000Y-3435000D02*
X8815000Y-3465000D01*
X8815000Y-3435000D02*
X8785000Y-3465000D01*
X8835000Y-5385000D02*
X8865000Y-5415000D01*
X8865000Y-5385000D02*
X8835000Y-5415000D01*
X10385000Y-3385000D02*
X10415000Y-3415000D01*
X10415000Y-3385000D02*
X10385000Y-3415000D01*
X10485000Y-5485000D02*
X10515000Y-5515000D01*
X10515000Y-5485000D02*
X10485000Y-5515000D01*
X10564148Y-3885000D02*
X10594148Y-3915000D01*
X10594148Y-3885000D02*
X10564148Y-3915000D01*
X10685000Y-5485000D02*
X10715000Y-5515000D01*
X10715000Y-5485000D02*
X10685000Y-5515000D01*
X10735000Y-3385000D02*
X10765000Y-3415000D01*
X10765000Y-3385000D02*
X10735000Y-3415000D01*
X12335000Y-3535000D02*
X12365000Y-3565000D01*
X12365000Y-3535000D02*
X12335000Y-3565000D01*
X12335000Y-5735000D02*
X12365000Y-5765000D01*
X12365000Y-5735000D02*
X12335000Y-5765000D01*
X12466000Y-3985000D02*
X12496000Y-4015000D01*
X12496000Y-3985000D02*
X12466000Y-4015000D01*
X12635000Y-3535000D02*
X12665000Y-3565000D01*
X12665000Y-3535000D02*
X12635000Y-3565000D01*
X12635000Y-5735000D02*
X12665000Y-5765000D01*
X12665000Y-5735000D02*
X12635000Y-5765000D01*
X12685000Y-8385000D02*
X12715000Y-8415000D01*
X12715000Y-8385000D02*
X12685000Y-8415000D01*
X14085000Y-9585000D02*
X14115000Y-9615000D01*
X14115000Y-9585000D02*
X14085000Y-9615000D01*
X14235000Y-3835000D02*
X14265000Y-3865000D01*
X14265000Y-3835000D02*
X14235000Y-3865000D01*
X14235000Y-5585000D02*
X14265000Y-5615000D01*
X14265000Y-5585000D02*
X14235000Y-5615000D01*
X14535000Y-3835000D02*
X14565000Y-3865000D01*
X14565000Y-3835000D02*
X14535000Y-3865000D01*
X14585000Y-5585000D02*
X14615000Y-5615000D01*
X14615000Y-5585000D02*
X14585000Y-5615000D01*
X15285000Y-3185000D02*
X15315000Y-3215000D01*
X15315000Y-3185000D02*
X15285000Y-3215000D01*
X15285000Y-6035000D02*
X15315000Y-6065000D01*
X15315000Y-6035000D02*
X15285000Y-6065000D01*
X15335000Y-6485000D02*
X15365000Y-6515000D01*
X15365000Y-6485000D02*
X15335000Y-6515000D01*
X15735000Y-4835000D02*
X15765000Y-4865000D01*
X15765000Y-4835000D02*
X15735000Y-4865000D01*
X15835000Y-5085000D02*
X15865000Y-5115000D01*
X15865000Y-5085000D02*
X15835000Y-5115000D01*
X15885000Y-7135000D02*
X15915000Y-7165000D01*
X15915000Y-7135000D02*
X15885000Y-7165000D01*
X15935000Y-4635000D02*
X15965000Y-4665000D01*
X15965000Y-4635000D02*
X15935000Y-4665000D01*
X16035000Y-8385000D02*
X16065000Y-8415000D01*
X16065000Y-8385000D02*
X16035000Y-8415000D01*
X16285000Y-4285000D02*
X16315000Y-4315000D01*
X16315000Y-4285000D02*
X16285000Y-4315000D01*
X16285000Y-7135000D02*
X16315000Y-7165000D01*
X16315000Y-7135000D02*
X16285000Y-7165000D01*
X16385000Y-6085000D02*
X16415000Y-6115000D01*
X16415000Y-6085000D02*
X16385000Y-6115000D01*
X15138000Y-2830000D02*
G75*
G02*
X15038000Y-2830000I-50000J0D01*
G01*
X15038000Y-2830000D02*
G75*
G02*
X15138000Y-2830000I50000J0D01*
G01*
X15138000Y-3084000D02*
G75*
G02*
X15038000Y-3084000I-50000J0D01*
G01*
X15038000Y-3084000D02*
G75*
G02*
X15138000Y-3084000I50000J0D01*
G01*
X15138000Y-3338000D02*
G75*
G02*
X15038000Y-3338000I-50000J0D01*
G01*
X15038000Y-3338000D02*
G75*
G02*
X15138000Y-3338000I50000J0D01*
G01*
X15138000Y-3592000D02*
G75*
G02*
X15038000Y-3592000I-50000J0D01*
G01*
X15038000Y-3592000D02*
G75*
G02*
X15138000Y-3592000I50000J0D01*
G01*
X15138000Y-3846000D02*
G75*
G02*
X15038000Y-3846000I-50000J0D01*
G01*
X15038000Y-3846000D02*
G75*
G02*
X15138000Y-3846000I50000J0D01*
G01*
X15138000Y-4100000D02*
G75*
G02*
X15038000Y-4100000I-50000J0D01*
G01*
X15038000Y-4100000D02*
G75*
G02*
X15138000Y-4100000I50000J0D01*
G01*
X15138000Y-4354000D02*
G75*
G02*
X15038000Y-4354000I-50000J0D01*
G01*
X15038000Y-4354000D02*
G75*
G02*
X15138000Y-4354000I50000J0D01*
G01*
X15138000Y-4608000D02*
G75*
G02*
X15038000Y-4608000I-50000J0D01*
G01*
X15038000Y-4608000D02*
G75*
G02*
X15138000Y-4608000I50000J0D01*
G01*
X15138000Y-4862000D02*
G75*
G02*
X15038000Y-4862000I-50000J0D01*
G01*
X15038000Y-4862000D02*
G75*
G02*
X15138000Y-4862000I50000J0D01*
G01*
X15138000Y-5116000D02*
G75*
G02*
X15038000Y-5116000I-50000J0D01*
G01*
X15038000Y-5116000D02*
G75*
G02*
X15138000Y-5116000I50000J0D01*
G01*
X15138000Y-5370000D02*
G75*
G02*
X15038000Y-5370000I-50000J0D01*
G01*
X15038000Y-5370000D02*
G75*
G02*
X15138000Y-5370000I50000J0D01*
G01*
X15138000Y-5624000D02*
G75*
G02*
X15038000Y-5624000I-50000J0D01*
G01*
X15038000Y-5624000D02*
G75*
G02*
X15138000Y-5624000I50000J0D01*
G01*
X16662000Y-2830000D02*
G75*
G02*
X16562000Y-2830000I-50000J0D01*
G01*
X16562000Y-2830000D02*
G75*
G02*
X16662000Y-2830000I50000J0D01*
G01*
X16662000Y-3084000D02*
G75*
G02*
X16562000Y-3084000I-50000J0D01*
G01*
X16562000Y-3084000D02*
G75*
G02*
X16662000Y-3084000I50000J0D01*
G01*
X16662000Y-3338000D02*
G75*
G02*
X16562000Y-3338000I-50000J0D01*
G01*
X16562000Y-3338000D02*
G75*
G02*
X16662000Y-3338000I50000J0D01*
G01*
X16662000Y-3592000D02*
G75*
G02*
X16562000Y-3592000I-50000J0D01*
G01*
X16562000Y-3592000D02*
G75*
G02*
X16662000Y-3592000I50000J0D01*
G01*
X16662000Y-3846000D02*
G75*
G02*
X16562000Y-3846000I-50000J0D01*
G01*
X16562000Y-3846000D02*
G75*
G02*
X16662000Y-3846000I50000J0D01*
G01*
X16662000Y-4100000D02*
G75*
G02*
X16562000Y-4100000I-50000J0D01*
G01*
X16562000Y-4100000D02*
G75*
G02*
X16662000Y-4100000I50000J0D01*
G01*
X16662000Y-4354000D02*
G75*
G02*
X16562000Y-4354000I-50000J0D01*
G01*
X16562000Y-4354000D02*
G75*
G02*
X16662000Y-4354000I50000J0D01*
G01*
X16662000Y-4608000D02*
G75*
G02*
X16562000Y-4608000I-50000J0D01*
G01*
X16562000Y-4608000D02*
G75*
G02*
X16662000Y-4608000I50000J0D01*
G01*
X16662000Y-4862000D02*
G75*
G02*
X16562000Y-4862000I-50000J0D01*
G01*
X16562000Y-4862000D02*
G75*
G02*
X16662000Y-4862000I50000J0D01*
G01*
X16662000Y-5116000D02*
G75*
G02*
X16562000Y-5116000I-50000J0D01*
G01*
X16562000Y-5116000D02*
G75*
G02*
X16662000Y-5116000I50000J0D01*
G01*
X16662000Y-5370000D02*
G75*
G02*
X16562000Y-5370000I-50000J0D01*
G01*
X16562000Y-5370000D02*
G75*
G02*
X16662000Y-5370000I50000J0D01*
G01*
X16662000Y-5624000D02*
G75*
G02*
X16562000Y-5624000I-50000J0D01*
G01*
X16562000Y-5624000D02*
G75*
G02*
X16662000Y-5624000I50000J0D01*
G01*
D13*
X4190550Y-2891226D02*
X4190550Y-3191226D01*
X4040550Y-3041226D02*
X4340550Y-3041226D01*
X4196000Y-4792000D02*
X4196000Y-5092000D01*
X4046000Y-4942000D02*
X4346000Y-4942000D01*
X4201065Y-6697792D02*
X4201065Y-6997792D01*
X4051065Y-6847792D02*
X4351065Y-6847792D01*
X4825550Y-3145226D02*
X4825550Y-3445226D01*
X4675550Y-3295226D02*
X4975550Y-3295226D01*
X4831000Y-5046000D02*
X4831000Y-5346000D01*
X4681000Y-5196000D02*
X4981000Y-5196000D01*
X4836065Y-6951792D02*
X4836065Y-7251792D01*
X4686065Y-7101792D02*
X4986065Y-7101792D01*
X6093540Y-2888235D02*
X6093540Y-3188235D01*
X5943540Y-3038235D02*
X6243540Y-3038235D01*
X6096000Y-4792000D02*
X6096000Y-5092000D01*
X5946000Y-4942000D02*
X6246000Y-4942000D01*
X6098075Y-6697792D02*
X6098075Y-6997792D01*
X5948075Y-6847792D02*
X6248075Y-6847792D01*
X6728540Y-3142235D02*
X6728540Y-3442235D01*
X6578540Y-3292235D02*
X6878540Y-3292235D01*
X6731000Y-5046000D02*
X6731000Y-5346000D01*
X6581000Y-5196000D02*
X6881000Y-5196000D01*
X6733075Y-6951792D02*
X6733075Y-7251792D01*
X6583075Y-7101792D02*
X6883075Y-7101792D01*
X7994268Y-4245848D02*
X7994268Y-4545848D01*
X7844268Y-4395848D02*
X8144268Y-4395848D01*
X7996000Y-2342000D02*
X7996000Y-2642000D01*
X7846000Y-2492000D02*
X8146000Y-2492000D01*
X8000310Y-6148376D02*
X8000310Y-6448376D01*
X7850310Y-6298376D02*
X8150310Y-6298376D01*
X8629268Y-4499848D02*
X8629268Y-4799848D01*
X8479268Y-4649848D02*
X8779268Y-4649848D01*
X8631000Y-2596000D02*
X8631000Y-2896000D01*
X8481000Y-2746000D02*
X8781000Y-2746000D01*
X8635311Y-6402376D02*
X8635311Y-6702376D01*
X8485311Y-6552376D02*
X8785311Y-6552376D01*
X9944148Y-2184948D02*
X9944148Y-2484948D01*
X9794148Y-2334948D02*
X10094148Y-2334948D01*
X9946000Y-4092000D02*
X9946000Y-4392000D01*
X9796000Y-4242000D02*
X10096000Y-4242000D01*
X9947127Y-5995275D02*
X9947127Y-6295275D01*
X9797127Y-6145275D02*
X10097127Y-6145275D01*
X10579148Y-2438948D02*
X10579148Y-2738948D01*
X10429148Y-2588948D02*
X10729148Y-2588948D01*
X10581000Y-4346000D02*
X10581000Y-4646000D01*
X10431000Y-4496000D02*
X10731000Y-4496000D01*
X10582127Y-6249275D02*
X10582127Y-6549275D01*
X10432127Y-6399275D02*
X10732127Y-6399275D01*
X11046000Y-8142000D02*
X11046000Y-8442000D01*
X10896000Y-8292000D02*
X11196000Y-8292000D01*
X11681000Y-8396000D02*
X11681000Y-8696000D01*
X11531000Y-8546000D02*
X11831000Y-8546000D01*
X11843765Y-2337811D02*
X11843765Y-2637811D01*
X11693765Y-2487811D02*
X11993765Y-2487811D01*
X11845664Y-6152051D02*
X11845664Y-6452051D01*
X11695664Y-6302051D02*
X11995664Y-6302051D01*
X11846000Y-4242000D02*
X11846000Y-4542000D01*
X11696000Y-4392000D02*
X11996000Y-4392000D01*
X12478765Y-2591811D02*
X12478765Y-2891810D01*
X12328765Y-2741811D02*
X12628765Y-2741811D01*
X12480664Y-6406051D02*
X12480664Y-6706051D01*
X12330664Y-6556051D02*
X12630664Y-6556051D01*
X12481000Y-4496000D02*
X12481000Y-4796000D01*
X12331000Y-4646000D02*
X12631000Y-4646000D01*
X13336135Y-8343570D02*
X13336135Y-8643570D01*
X13186135Y-8493570D02*
X13486135Y-8493570D01*
X13745351Y-2586389D02*
X13745351Y-2886389D01*
X13595351Y-2736389D02*
X13895351Y-2736389D01*
X13745759Y-6397021D02*
X13745759Y-6697021D01*
X13595759Y-6547021D02*
X13895759Y-6547021D01*
X13746000Y-4492000D02*
X13746000Y-4792000D01*
X13596000Y-4642000D02*
X13896000Y-4642000D01*
X13883758Y-8753265D02*
X13883758Y-9053265D01*
X13733758Y-8903265D02*
X14033758Y-8903265D01*
X14380351Y-2840389D02*
X14380351Y-3140389D01*
X14230351Y-2990389D02*
X14530351Y-2990389D01*
X14380759Y-6651021D02*
X14380759Y-6951021D01*
X14230759Y-6801021D02*
X14530759Y-6801021D01*
X14381000Y-4746000D02*
X14381000Y-5046000D01*
X14231000Y-4896000D02*
X14531000Y-4896000D01*
X15347675Y-8288753D02*
X15347675Y-8588753D01*
X15197675Y-8438753D02*
X15497675Y-8438753D01*
X15815835Y-8787317D02*
X15815835Y-9087317D01*
X15665835Y-8937317D02*
X15965835Y-8937317D01*
D11*
X3858277Y-10638984D02*
X3858277Y-10438984D01*
X3858277Y-10438984D02*
X3905896Y-10438984D01*
X3905896Y-10438984D02*
X3934467Y-10448508D01*
X3934467Y-10448508D02*
X3953515Y-10467555D01*
X3953515Y-10467555D02*
X3963039Y-10486603D01*
X3963039Y-10486603D02*
X3972562Y-10524698D01*
X3972562Y-10524698D02*
X3972562Y-10553270D01*
X3972562Y-10553270D02*
X3963039Y-10591365D01*
X3963039Y-10591365D02*
X3953515Y-10610412D01*
X3953515Y-10610412D02*
X3934467Y-10629460D01*
X3934467Y-10629460D02*
X3905896Y-10638984D01*
X3905896Y-10638984D02*
X3858277Y-10638984D01*
X4058277Y-10638984D02*
X4058277Y-10505650D01*
X4058277Y-10543746D02*
X4067801Y-10524698D01*
X4067801Y-10524698D02*
X4077324Y-10515174D01*
X4077324Y-10515174D02*
X4096372Y-10505650D01*
X4096372Y-10505650D02*
X4115420Y-10505650D01*
X4182086Y-10638984D02*
X4182086Y-10505650D01*
X4182086Y-10438984D02*
X4172562Y-10448508D01*
X4172562Y-10448508D02*
X4182086Y-10458031D01*
X4182086Y-10458031D02*
X4191610Y-10448508D01*
X4191610Y-10448508D02*
X4182086Y-10438984D01*
X4182086Y-10438984D02*
X4182086Y-10458031D01*
X4305896Y-10638984D02*
X4286848Y-10629460D01*
X4286848Y-10629460D02*
X4277324Y-10610412D01*
X4277324Y-10610412D02*
X4277324Y-10438984D01*
X4410658Y-10638984D02*
X4391610Y-10629460D01*
X4391610Y-10629460D02*
X4382086Y-10610412D01*
X4382086Y-10610412D02*
X4382086Y-10438984D01*
X4639229Y-10638984D02*
X4639229Y-10438984D01*
X4639229Y-10438984D02*
X4705896Y-10581841D01*
X4705896Y-10581841D02*
X4772563Y-10438984D01*
X4772563Y-10438984D02*
X4772563Y-10638984D01*
X4953515Y-10638984D02*
X4953515Y-10534222D01*
X4953515Y-10534222D02*
X4943991Y-10515174D01*
X4943991Y-10515174D02*
X4924944Y-10505650D01*
X4924944Y-10505650D02*
X4886848Y-10505650D01*
X4886848Y-10505650D02*
X4867801Y-10515174D01*
X4953515Y-10629460D02*
X4934467Y-10638984D01*
X4934467Y-10638984D02*
X4886848Y-10638984D01*
X4886848Y-10638984D02*
X4867801Y-10629460D01*
X4867801Y-10629460D02*
X4858277Y-10610412D01*
X4858277Y-10610412D02*
X4858277Y-10591365D01*
X4858277Y-10591365D02*
X4867801Y-10572317D01*
X4867801Y-10572317D02*
X4886848Y-10562793D01*
X4886848Y-10562793D02*
X4934467Y-10562793D01*
X4934467Y-10562793D02*
X4953515Y-10553270D01*
X5048753Y-10505650D02*
X5048753Y-10705650D01*
X5048753Y-10515174D02*
X5067801Y-10505650D01*
X5067801Y-10505650D02*
X5105896Y-10505650D01*
X5105896Y-10505650D02*
X5124944Y-10515174D01*
X5124944Y-10515174D02*
X5134467Y-10524698D01*
X5134467Y-10524698D02*
X5143991Y-10543746D01*
X5143991Y-10543746D02*
X5143991Y-10600889D01*
X5143991Y-10600889D02*
X5134467Y-10619936D01*
X5134467Y-10619936D02*
X5124944Y-10629460D01*
X5124944Y-10629460D02*
X5105896Y-10638984D01*
X5105896Y-10638984D02*
X5067801Y-10638984D01*
X5067801Y-10638984D02*
X5048753Y-10629460D01*
X5229705Y-10619936D02*
X5239229Y-10629460D01*
X5239229Y-10629460D02*
X5229705Y-10638984D01*
X5229705Y-10638984D02*
X5220182Y-10629460D01*
X5220182Y-10629460D02*
X5229705Y-10619936D01*
X5229705Y-10619936D02*
X5229705Y-10638984D01*
X5229705Y-10515174D02*
X5239229Y-10524698D01*
X5239229Y-10524698D02*
X5229705Y-10534222D01*
X5229705Y-10534222D02*
X5220182Y-10524698D01*
X5220182Y-10524698D02*
X5229705Y-10515174D01*
X5229705Y-10515174D02*
X5229705Y-10534222D01*
D12*
X3567500Y-10952500D02*
X3597500Y-10982500D01*
X3597500Y-10952500D02*
X3567500Y-10982500D01*
D11*
X3896372Y-10858984D02*
X3915420Y-10858984D01*
X3915420Y-10858984D02*
X3934467Y-10868508D01*
X3934467Y-10868508D02*
X3943991Y-10878031D01*
X3943991Y-10878031D02*
X3953515Y-10897079D01*
X3953515Y-10897079D02*
X3963039Y-10935174D01*
X3963039Y-10935174D02*
X3963039Y-10982793D01*
X3963039Y-10982793D02*
X3953515Y-11020889D01*
X3953515Y-11020889D02*
X3943991Y-11039936D01*
X3943991Y-11039936D02*
X3934467Y-11049460D01*
X3934467Y-11049460D02*
X3915420Y-11058984D01*
X3915420Y-11058984D02*
X3896372Y-11058984D01*
X3896372Y-11058984D02*
X3877324Y-11049460D01*
X3877324Y-11049460D02*
X3867801Y-11039936D01*
X3867801Y-11039936D02*
X3858277Y-11020889D01*
X3858277Y-11020889D02*
X3848753Y-10982793D01*
X3848753Y-10982793D02*
X3848753Y-10935174D01*
X3848753Y-10935174D02*
X3858277Y-10897079D01*
X3858277Y-10897079D02*
X3867801Y-10878031D01*
X3867801Y-10878031D02*
X3877324Y-10868508D01*
X3877324Y-10868508D02*
X3896372Y-10858984D01*
X4048753Y-11039936D02*
X4058277Y-11049460D01*
X4058277Y-11049460D02*
X4048753Y-11058984D01*
X4048753Y-11058984D02*
X4039229Y-11049460D01*
X4039229Y-11049460D02*
X4048753Y-11039936D01*
X4048753Y-11039936D02*
X4048753Y-11058984D01*
X4124943Y-10858984D02*
X4248753Y-10858984D01*
X4248753Y-10858984D02*
X4182086Y-10935174D01*
X4182086Y-10935174D02*
X4210658Y-10935174D01*
X4210658Y-10935174D02*
X4229705Y-10944698D01*
X4229705Y-10944698D02*
X4239229Y-10954222D01*
X4239229Y-10954222D02*
X4248753Y-10973270D01*
X4248753Y-10973270D02*
X4248753Y-11020889D01*
X4248753Y-11020889D02*
X4239229Y-11039936D01*
X4239229Y-11039936D02*
X4229705Y-11049460D01*
X4229705Y-11049460D02*
X4210658Y-11058984D01*
X4210658Y-11058984D02*
X4153515Y-11058984D01*
X4153515Y-11058984D02*
X4134467Y-11049460D01*
X4134467Y-11049460D02*
X4124943Y-11039936D01*
X4372563Y-10858984D02*
X4391610Y-10858984D01*
X4391610Y-10858984D02*
X4410658Y-10868508D01*
X4410658Y-10868508D02*
X4420182Y-10878031D01*
X4420182Y-10878031D02*
X4429705Y-10897079D01*
X4429705Y-10897079D02*
X4439229Y-10935174D01*
X4439229Y-10935174D02*
X4439229Y-10982793D01*
X4439229Y-10982793D02*
X4429705Y-11020889D01*
X4429705Y-11020889D02*
X4420182Y-11039936D01*
X4420182Y-11039936D02*
X4410658Y-11049460D01*
X4410658Y-11049460D02*
X4391610Y-11058984D01*
X4391610Y-11058984D02*
X4372563Y-11058984D01*
X4372563Y-11058984D02*
X4353515Y-11049460D01*
X4353515Y-11049460D02*
X4343991Y-11039936D01*
X4343991Y-11039936D02*
X4334467Y-11020889D01*
X4334467Y-11020889D02*
X4324944Y-10982793D01*
X4324944Y-10982793D02*
X4324944Y-10935174D01*
X4324944Y-10935174D02*
X4334467Y-10897079D01*
X4334467Y-10897079D02*
X4343991Y-10878031D01*
X4343991Y-10878031D02*
X4353515Y-10868508D01*
X4353515Y-10868508D02*
X4372563Y-10858984D01*
X4563039Y-10858984D02*
X4582086Y-10858984D01*
X4582086Y-10858984D02*
X4601134Y-10868508D01*
X4601134Y-10868508D02*
X4610658Y-10878031D01*
X4610658Y-10878031D02*
X4620182Y-10897079D01*
X4620182Y-10897079D02*
X4629705Y-10935174D01*
X4629705Y-10935174D02*
X4629705Y-10982793D01*
X4629705Y-10982793D02*
X4620182Y-11020889D01*
X4620182Y-11020889D02*
X4610658Y-11039936D01*
X4610658Y-11039936D02*
X4601134Y-11049460D01*
X4601134Y-11049460D02*
X4582086Y-11058984D01*
X4582086Y-11058984D02*
X4563039Y-11058984D01*
X4563039Y-11058984D02*
X4543991Y-11049460D01*
X4543991Y-11049460D02*
X4534467Y-11039936D01*
X4534467Y-11039936D02*
X4524944Y-11020889D01*
X4524944Y-11020889D02*
X4515420Y-10982793D01*
X4515420Y-10982793D02*
X4515420Y-10935174D01*
X4515420Y-10935174D02*
X4524944Y-10897079D01*
X4524944Y-10897079D02*
X4534467Y-10878031D01*
X4534467Y-10878031D02*
X4543991Y-10868508D01*
X4543991Y-10868508D02*
X4563039Y-10858984D01*
X4715420Y-11058984D02*
X4715420Y-10925650D01*
X4715420Y-10944698D02*
X4724944Y-10935174D01*
X4724944Y-10935174D02*
X4743991Y-10925650D01*
X4743991Y-10925650D02*
X4772563Y-10925650D01*
X4772563Y-10925650D02*
X4791610Y-10935174D01*
X4791610Y-10935174D02*
X4801134Y-10954222D01*
X4801134Y-10954222D02*
X4801134Y-11058984D01*
X4801134Y-10954222D02*
X4810658Y-10935174D01*
X4810658Y-10935174D02*
X4829705Y-10925650D01*
X4829705Y-10925650D02*
X4858277Y-10925650D01*
X4858277Y-10925650D02*
X4877325Y-10935174D01*
X4877325Y-10935174D02*
X4886848Y-10954222D01*
X4886848Y-10954222D02*
X4886848Y-11058984D01*
X4982086Y-11058984D02*
X4982086Y-10925650D01*
X4982086Y-10944698D02*
X4991610Y-10935174D01*
X4991610Y-10935174D02*
X5010658Y-10925650D01*
X5010658Y-10925650D02*
X5039229Y-10925650D01*
X5039229Y-10925650D02*
X5058277Y-10935174D01*
X5058277Y-10935174D02*
X5067801Y-10954222D01*
X5067801Y-10954222D02*
X5067801Y-11058984D01*
X5067801Y-10954222D02*
X5077325Y-10935174D01*
X5077325Y-10935174D02*
X5096372Y-10925650D01*
X5096372Y-10925650D02*
X5124944Y-10925650D01*
X5124944Y-10925650D02*
X5143991Y-10935174D01*
X5143991Y-10935174D02*
X5153515Y-10954222D01*
X5153515Y-10954222D02*
X5153515Y-11058984D01*
X5543991Y-10849460D02*
X5372563Y-11106603D01*
X5801134Y-10858984D02*
X5820182Y-10858984D01*
X5820182Y-10858984D02*
X5839229Y-10868508D01*
X5839229Y-10868508D02*
X5848753Y-10878031D01*
X5848753Y-10878031D02*
X5858277Y-10897079D01*
X5858277Y-10897079D02*
X5867801Y-10935174D01*
X5867801Y-10935174D02*
X5867801Y-10982793D01*
X5867801Y-10982793D02*
X5858277Y-11020889D01*
X5858277Y-11020889D02*
X5848753Y-11039936D01*
X5848753Y-11039936D02*
X5839229Y-11049460D01*
X5839229Y-11049460D02*
X5820182Y-11058984D01*
X5820182Y-11058984D02*
X5801134Y-11058984D01*
X5801134Y-11058984D02*
X5782086Y-11049460D01*
X5782086Y-11049460D02*
X5772563Y-11039936D01*
X5772563Y-11039936D02*
X5763039Y-11020889D01*
X5763039Y-11020889D02*
X5753515Y-10982793D01*
X5753515Y-10982793D02*
X5753515Y-10935174D01*
X5753515Y-10935174D02*
X5763039Y-10897079D01*
X5763039Y-10897079D02*
X5772563Y-10878031D01*
X5772563Y-10878031D02*
X5782086Y-10868508D01*
X5782086Y-10868508D02*
X5801134Y-10858984D01*
X5953515Y-11039936D02*
X5963039Y-11049460D01*
X5963039Y-11049460D02*
X5953515Y-11058984D01*
X5953515Y-11058984D02*
X5943991Y-11049460D01*
X5943991Y-11049460D02*
X5953515Y-11039936D01*
X5953515Y-11039936D02*
X5953515Y-11058984D01*
X6086848Y-10858984D02*
X6105896Y-10858984D01*
X6105896Y-10858984D02*
X6124944Y-10868508D01*
X6124944Y-10868508D02*
X6134467Y-10878031D01*
X6134467Y-10878031D02*
X6143991Y-10897079D01*
X6143991Y-10897079D02*
X6153515Y-10935174D01*
X6153515Y-10935174D02*
X6153515Y-10982793D01*
X6153515Y-10982793D02*
X6143991Y-11020889D01*
X6143991Y-11020889D02*
X6134467Y-11039936D01*
X6134467Y-11039936D02*
X6124944Y-11049460D01*
X6124944Y-11049460D02*
X6105896Y-11058984D01*
X6105896Y-11058984D02*
X6086848Y-11058984D01*
X6086848Y-11058984D02*
X6067801Y-11049460D01*
X6067801Y-11049460D02*
X6058277Y-11039936D01*
X6058277Y-11039936D02*
X6048753Y-11020889D01*
X6048753Y-11020889D02*
X6039229Y-10982793D01*
X6039229Y-10982793D02*
X6039229Y-10935174D01*
X6039229Y-10935174D02*
X6048753Y-10897079D01*
X6048753Y-10897079D02*
X6058277Y-10878031D01*
X6058277Y-10878031D02*
X6067801Y-10868508D01*
X6067801Y-10868508D02*
X6086848Y-10858984D01*
X6343991Y-11058984D02*
X6229706Y-11058984D01*
X6286848Y-11058984D02*
X6286848Y-10858984D01*
X6286848Y-10858984D02*
X6267801Y-10887555D01*
X6267801Y-10887555D02*
X6248753Y-10906603D01*
X6248753Y-10906603D02*
X6229706Y-10916127D01*
X6534467Y-11058984D02*
X6420182Y-11058984D01*
X6477325Y-11058984D02*
X6477325Y-10858984D01*
X6477325Y-10858984D02*
X6458277Y-10887555D01*
X6458277Y-10887555D02*
X6439229Y-10906603D01*
X6439229Y-10906603D02*
X6420182Y-10916127D01*
X6648753Y-10944698D02*
X6629706Y-10935174D01*
X6629706Y-10935174D02*
X6620182Y-10925650D01*
X6620182Y-10925650D02*
X6610658Y-10906603D01*
X6610658Y-10906603D02*
X6610658Y-10897079D01*
X6610658Y-10897079D02*
X6620182Y-10878031D01*
X6620182Y-10878031D02*
X6629706Y-10868508D01*
X6629706Y-10868508D02*
X6648753Y-10858984D01*
X6648753Y-10858984D02*
X6686848Y-10858984D01*
X6686848Y-10858984D02*
X6705896Y-10868508D01*
X6705896Y-10868508D02*
X6715420Y-10878031D01*
X6715420Y-10878031D02*
X6724944Y-10897079D01*
X6724944Y-10897079D02*
X6724944Y-10906603D01*
X6724944Y-10906603D02*
X6715420Y-10925650D01*
X6715420Y-10925650D02*
X6705896Y-10935174D01*
X6705896Y-10935174D02*
X6686848Y-10944698D01*
X6686848Y-10944698D02*
X6648753Y-10944698D01*
X6648753Y-10944698D02*
X6629706Y-10954222D01*
X6629706Y-10954222D02*
X6620182Y-10963746D01*
X6620182Y-10963746D02*
X6610658Y-10982793D01*
X6610658Y-10982793D02*
X6610658Y-11020889D01*
X6610658Y-11020889D02*
X6620182Y-11039936D01*
X6620182Y-11039936D02*
X6629706Y-11049460D01*
X6629706Y-11049460D02*
X6648753Y-11058984D01*
X6648753Y-11058984D02*
X6686848Y-11058984D01*
X6686848Y-11058984D02*
X6705896Y-11049460D01*
X6705896Y-11049460D02*
X6715420Y-11039936D01*
X6715420Y-11039936D02*
X6724944Y-11020889D01*
X6724944Y-11020889D02*
X6724944Y-10982793D01*
X6724944Y-10982793D02*
X6715420Y-10963746D01*
X6715420Y-10963746D02*
X6705896Y-10954222D01*
X6705896Y-10954222D02*
X6686848Y-10944698D01*
X6801134Y-10858984D02*
X6801134Y-10897079D01*
X6877325Y-10858984D02*
X6877325Y-10897079D01*
X7172563Y-11135174D02*
X7163039Y-11125650D01*
X7163039Y-11125650D02*
X7143991Y-11097079D01*
X7143991Y-11097079D02*
X7134468Y-11078031D01*
X7134468Y-11078031D02*
X7124944Y-11049460D01*
X7124944Y-11049460D02*
X7115420Y-11001841D01*
X7115420Y-11001841D02*
X7115420Y-10963746D01*
X7115420Y-10963746D02*
X7124944Y-10916127D01*
X7124944Y-10916127D02*
X7134468Y-10887555D01*
X7134468Y-10887555D02*
X7143991Y-10868508D01*
X7143991Y-10868508D02*
X7163039Y-10839936D01*
X7163039Y-10839936D02*
X7172563Y-10830412D01*
X7334468Y-10925650D02*
X7334468Y-11058984D01*
X7286848Y-10849460D02*
X7239229Y-10992317D01*
X7239229Y-10992317D02*
X7363039Y-10992317D01*
X7429706Y-10878031D02*
X7439229Y-10868508D01*
X7439229Y-10868508D02*
X7458277Y-10858984D01*
X7458277Y-10858984D02*
X7505896Y-10858984D01*
X7505896Y-10858984D02*
X7524944Y-10868508D01*
X7524944Y-10868508D02*
X7534468Y-10878031D01*
X7534468Y-10878031D02*
X7543991Y-10897079D01*
X7543991Y-10897079D02*
X7543991Y-10916127D01*
X7543991Y-10916127D02*
X7534468Y-10944698D01*
X7534468Y-10944698D02*
X7420182Y-11058984D01*
X7420182Y-11058984D02*
X7543991Y-11058984D01*
X7782087Y-11058984D02*
X7782087Y-10858984D01*
X7867801Y-11058984D02*
X7867801Y-10954222D01*
X7867801Y-10954222D02*
X7858277Y-10935174D01*
X7858277Y-10935174D02*
X7839230Y-10925650D01*
X7839230Y-10925650D02*
X7810658Y-10925650D01*
X7810658Y-10925650D02*
X7791610Y-10935174D01*
X7791610Y-10935174D02*
X7782087Y-10944698D01*
X7991610Y-11058984D02*
X7972563Y-11049460D01*
X7972563Y-11049460D02*
X7963039Y-11039936D01*
X7963039Y-11039936D02*
X7953515Y-11020889D01*
X7953515Y-11020889D02*
X7953515Y-10963746D01*
X7953515Y-10963746D02*
X7963039Y-10944698D01*
X7963039Y-10944698D02*
X7972563Y-10935174D01*
X7972563Y-10935174D02*
X7991610Y-10925650D01*
X7991610Y-10925650D02*
X8020182Y-10925650D01*
X8020182Y-10925650D02*
X8039230Y-10935174D01*
X8039230Y-10935174D02*
X8048753Y-10944698D01*
X8048753Y-10944698D02*
X8058277Y-10963746D01*
X8058277Y-10963746D02*
X8058277Y-11020889D01*
X8058277Y-11020889D02*
X8048753Y-11039936D01*
X8048753Y-11039936D02*
X8039230Y-11049460D01*
X8039230Y-11049460D02*
X8020182Y-11058984D01*
X8020182Y-11058984D02*
X7991610Y-11058984D01*
X8172563Y-11058984D02*
X8153515Y-11049460D01*
X8153515Y-11049460D02*
X8143991Y-11030412D01*
X8143991Y-11030412D02*
X8143991Y-10858984D01*
X8324944Y-11049460D02*
X8305896Y-11058984D01*
X8305896Y-11058984D02*
X8267801Y-11058984D01*
X8267801Y-11058984D02*
X8248753Y-11049460D01*
X8248753Y-11049460D02*
X8239230Y-11030412D01*
X8239230Y-11030412D02*
X8239230Y-10954222D01*
X8239230Y-10954222D02*
X8248753Y-10935174D01*
X8248753Y-10935174D02*
X8267801Y-10925650D01*
X8267801Y-10925650D02*
X8305896Y-10925650D01*
X8305896Y-10925650D02*
X8324944Y-10935174D01*
X8324944Y-10935174D02*
X8334468Y-10954222D01*
X8334468Y-10954222D02*
X8334468Y-10973270D01*
X8334468Y-10973270D02*
X8239230Y-10992317D01*
X8410658Y-11049460D02*
X8429706Y-11058984D01*
X8429706Y-11058984D02*
X8467801Y-11058984D01*
X8467801Y-11058984D02*
X8486849Y-11049460D01*
X8486849Y-11049460D02*
X8496373Y-11030412D01*
X8496373Y-11030412D02*
X8496373Y-11020889D01*
X8496373Y-11020889D02*
X8486849Y-11001841D01*
X8486849Y-11001841D02*
X8467801Y-10992317D01*
X8467801Y-10992317D02*
X8439230Y-10992317D01*
X8439230Y-10992317D02*
X8420182Y-10982793D01*
X8420182Y-10982793D02*
X8410658Y-10963746D01*
X8410658Y-10963746D02*
X8410658Y-10954222D01*
X8410658Y-10954222D02*
X8420182Y-10935174D01*
X8420182Y-10935174D02*
X8439230Y-10925650D01*
X8439230Y-10925650D02*
X8467801Y-10925650D01*
X8467801Y-10925650D02*
X8486849Y-10935174D01*
X8563039Y-11135174D02*
X8572563Y-11125650D01*
X8572563Y-11125650D02*
X8591611Y-11097079D01*
X8591611Y-11097079D02*
X8601134Y-11078031D01*
X8601134Y-11078031D02*
X8610658Y-11049460D01*
X8610658Y-11049460D02*
X8620182Y-11001841D01*
X8620182Y-11001841D02*
X8620182Y-10963746D01*
X8620182Y-10963746D02*
X8610658Y-10916127D01*
X8610658Y-10916127D02*
X8601134Y-10887555D01*
X8601134Y-10887555D02*
X8591611Y-10868508D01*
X8591611Y-10868508D02*
X8572563Y-10839936D01*
X8572563Y-10839936D02*
X8563039Y-10830412D01*
D12*
X3597500Y-11231500D02*
G75*
G02*
X3497500Y-11231500I-50000J0D01*
G01*
X3497500Y-11231500D02*
G75*
G02*
X3597500Y-11231500I50000J0D01*
G01*
D11*
X3963039Y-11322984D02*
X3848753Y-11322984D01*
X3905896Y-11322984D02*
X3905896Y-11122984D01*
X3905896Y-11122984D02*
X3886848Y-11151555D01*
X3886848Y-11151555D02*
X3867801Y-11170603D01*
X3867801Y-11170603D02*
X3848753Y-11180127D01*
X4048753Y-11303936D02*
X4058277Y-11313460D01*
X4058277Y-11313460D02*
X4048753Y-11322984D01*
X4048753Y-11322984D02*
X4039229Y-11313460D01*
X4039229Y-11313460D02*
X4048753Y-11303936D01*
X4048753Y-11303936D02*
X4048753Y-11322984D01*
X4182086Y-11122984D02*
X4201134Y-11122984D01*
X4201134Y-11122984D02*
X4220182Y-11132508D01*
X4220182Y-11132508D02*
X4229705Y-11142031D01*
X4229705Y-11142031D02*
X4239229Y-11161079D01*
X4239229Y-11161079D02*
X4248753Y-11199174D01*
X4248753Y-11199174D02*
X4248753Y-11246793D01*
X4248753Y-11246793D02*
X4239229Y-11284888D01*
X4239229Y-11284888D02*
X4229705Y-11303936D01*
X4229705Y-11303936D02*
X4220182Y-11313460D01*
X4220182Y-11313460D02*
X4201134Y-11322984D01*
X4201134Y-11322984D02*
X4182086Y-11322984D01*
X4182086Y-11322984D02*
X4163039Y-11313460D01*
X4163039Y-11313460D02*
X4153515Y-11303936D01*
X4153515Y-11303936D02*
X4143991Y-11284888D01*
X4143991Y-11284888D02*
X4134467Y-11246793D01*
X4134467Y-11246793D02*
X4134467Y-11199174D01*
X4134467Y-11199174D02*
X4143991Y-11161079D01*
X4143991Y-11161079D02*
X4153515Y-11142031D01*
X4153515Y-11142031D02*
X4163039Y-11132508D01*
X4163039Y-11132508D02*
X4182086Y-11122984D01*
X4372563Y-11122984D02*
X4391610Y-11122984D01*
X4391610Y-11122984D02*
X4410658Y-11132508D01*
X4410658Y-11132508D02*
X4420182Y-11142031D01*
X4420182Y-11142031D02*
X4429705Y-11161079D01*
X4429705Y-11161079D02*
X4439229Y-11199174D01*
X4439229Y-11199174D02*
X4439229Y-11246793D01*
X4439229Y-11246793D02*
X4429705Y-11284888D01*
X4429705Y-11284888D02*
X4420182Y-11303936D01*
X4420182Y-11303936D02*
X4410658Y-11313460D01*
X4410658Y-11313460D02*
X4391610Y-11322984D01*
X4391610Y-11322984D02*
X4372563Y-11322984D01*
X4372563Y-11322984D02*
X4353515Y-11313460D01*
X4353515Y-11313460D02*
X4343991Y-11303936D01*
X4343991Y-11303936D02*
X4334467Y-11284888D01*
X4334467Y-11284888D02*
X4324944Y-11246793D01*
X4324944Y-11246793D02*
X4324944Y-11199174D01*
X4324944Y-11199174D02*
X4334467Y-11161079D01*
X4334467Y-11161079D02*
X4343991Y-11142031D01*
X4343991Y-11142031D02*
X4353515Y-11132508D01*
X4353515Y-11132508D02*
X4372563Y-11122984D01*
X4563039Y-11122984D02*
X4582086Y-11122984D01*
X4582086Y-11122984D02*
X4601134Y-11132508D01*
X4601134Y-11132508D02*
X4610658Y-11142031D01*
X4610658Y-11142031D02*
X4620182Y-11161079D01*
X4620182Y-11161079D02*
X4629705Y-11199174D01*
X4629705Y-11199174D02*
X4629705Y-11246793D01*
X4629705Y-11246793D02*
X4620182Y-11284888D01*
X4620182Y-11284888D02*
X4610658Y-11303936D01*
X4610658Y-11303936D02*
X4601134Y-11313460D01*
X4601134Y-11313460D02*
X4582086Y-11322984D01*
X4582086Y-11322984D02*
X4563039Y-11322984D01*
X4563039Y-11322984D02*
X4543991Y-11313460D01*
X4543991Y-11313460D02*
X4534467Y-11303936D01*
X4534467Y-11303936D02*
X4524944Y-11284888D01*
X4524944Y-11284888D02*
X4515420Y-11246793D01*
X4515420Y-11246793D02*
X4515420Y-11199174D01*
X4515420Y-11199174D02*
X4524944Y-11161079D01*
X4524944Y-11161079D02*
X4534467Y-11142031D01*
X4534467Y-11142031D02*
X4543991Y-11132508D01*
X4543991Y-11132508D02*
X4563039Y-11122984D01*
X4715420Y-11322984D02*
X4715420Y-11189650D01*
X4715420Y-11208698D02*
X4724944Y-11199174D01*
X4724944Y-11199174D02*
X4743991Y-11189650D01*
X4743991Y-11189650D02*
X4772563Y-11189650D01*
X4772563Y-11189650D02*
X4791610Y-11199174D01*
X4791610Y-11199174D02*
X4801134Y-11218222D01*
X4801134Y-11218222D02*
X4801134Y-11322984D01*
X4801134Y-11218222D02*
X4810658Y-11199174D01*
X4810658Y-11199174D02*
X4829705Y-11189650D01*
X4829705Y-11189650D02*
X4858277Y-11189650D01*
X4858277Y-11189650D02*
X4877325Y-11199174D01*
X4877325Y-11199174D02*
X4886848Y-11218222D01*
X4886848Y-11218222D02*
X4886848Y-11322984D01*
X4982086Y-11322984D02*
X4982086Y-11189650D01*
X4982086Y-11208698D02*
X4991610Y-11199174D01*
X4991610Y-11199174D02*
X5010658Y-11189650D01*
X5010658Y-11189650D02*
X5039229Y-11189650D01*
X5039229Y-11189650D02*
X5058277Y-11199174D01*
X5058277Y-11199174D02*
X5067801Y-11218222D01*
X5067801Y-11218222D02*
X5067801Y-11322984D01*
X5067801Y-11218222D02*
X5077325Y-11199174D01*
X5077325Y-11199174D02*
X5096372Y-11189650D01*
X5096372Y-11189650D02*
X5124944Y-11189650D01*
X5124944Y-11189650D02*
X5143991Y-11199174D01*
X5143991Y-11199174D02*
X5153515Y-11218222D01*
X5153515Y-11218222D02*
X5153515Y-11322984D01*
X5543991Y-11113460D02*
X5372563Y-11370603D01*
X5801134Y-11122984D02*
X5820182Y-11122984D01*
X5820182Y-11122984D02*
X5839229Y-11132508D01*
X5839229Y-11132508D02*
X5848753Y-11142031D01*
X5848753Y-11142031D02*
X5858277Y-11161079D01*
X5858277Y-11161079D02*
X5867801Y-11199174D01*
X5867801Y-11199174D02*
X5867801Y-11246793D01*
X5867801Y-11246793D02*
X5858277Y-11284888D01*
X5858277Y-11284888D02*
X5848753Y-11303936D01*
X5848753Y-11303936D02*
X5839229Y-11313460D01*
X5839229Y-11313460D02*
X5820182Y-11322984D01*
X5820182Y-11322984D02*
X5801134Y-11322984D01*
X5801134Y-11322984D02*
X5782086Y-11313460D01*
X5782086Y-11313460D02*
X5772563Y-11303936D01*
X5772563Y-11303936D02*
X5763039Y-11284888D01*
X5763039Y-11284888D02*
X5753515Y-11246793D01*
X5753515Y-11246793D02*
X5753515Y-11199174D01*
X5753515Y-11199174D02*
X5763039Y-11161079D01*
X5763039Y-11161079D02*
X5772563Y-11142031D01*
X5772563Y-11142031D02*
X5782086Y-11132508D01*
X5782086Y-11132508D02*
X5801134Y-11122984D01*
X5953515Y-11303936D02*
X5963039Y-11313460D01*
X5963039Y-11313460D02*
X5953515Y-11322984D01*
X5953515Y-11322984D02*
X5943991Y-11313460D01*
X5943991Y-11313460D02*
X5953515Y-11303936D01*
X5953515Y-11303936D02*
X5953515Y-11322984D01*
X6086848Y-11122984D02*
X6105896Y-11122984D01*
X6105896Y-11122984D02*
X6124944Y-11132508D01*
X6124944Y-11132508D02*
X6134467Y-11142031D01*
X6134467Y-11142031D02*
X6143991Y-11161079D01*
X6143991Y-11161079D02*
X6153515Y-11199174D01*
X6153515Y-11199174D02*
X6153515Y-11246793D01*
X6153515Y-11246793D02*
X6143991Y-11284888D01*
X6143991Y-11284888D02*
X6134467Y-11303936D01*
X6134467Y-11303936D02*
X6124944Y-11313460D01*
X6124944Y-11313460D02*
X6105896Y-11322984D01*
X6105896Y-11322984D02*
X6086848Y-11322984D01*
X6086848Y-11322984D02*
X6067801Y-11313460D01*
X6067801Y-11313460D02*
X6058277Y-11303936D01*
X6058277Y-11303936D02*
X6048753Y-11284888D01*
X6048753Y-11284888D02*
X6039229Y-11246793D01*
X6039229Y-11246793D02*
X6039229Y-11199174D01*
X6039229Y-11199174D02*
X6048753Y-11161079D01*
X6048753Y-11161079D02*
X6058277Y-11142031D01*
X6058277Y-11142031D02*
X6067801Y-11132508D01*
X6067801Y-11132508D02*
X6086848Y-11122984D01*
X6220182Y-11122984D02*
X6343991Y-11122984D01*
X6343991Y-11122984D02*
X6277325Y-11199174D01*
X6277325Y-11199174D02*
X6305896Y-11199174D01*
X6305896Y-11199174D02*
X6324944Y-11208698D01*
X6324944Y-11208698D02*
X6334467Y-11218222D01*
X6334467Y-11218222D02*
X6343991Y-11237269D01*
X6343991Y-11237269D02*
X6343991Y-11284888D01*
X6343991Y-11284888D02*
X6334467Y-11303936D01*
X6334467Y-11303936D02*
X6324944Y-11313460D01*
X6324944Y-11313460D02*
X6305896Y-11322984D01*
X6305896Y-11322984D02*
X6248753Y-11322984D01*
X6248753Y-11322984D02*
X6229706Y-11313460D01*
X6229706Y-11313460D02*
X6220182Y-11303936D01*
X6439229Y-11322984D02*
X6477325Y-11322984D01*
X6477325Y-11322984D02*
X6496372Y-11313460D01*
X6496372Y-11313460D02*
X6505896Y-11303936D01*
X6505896Y-11303936D02*
X6524944Y-11275365D01*
X6524944Y-11275365D02*
X6534467Y-11237269D01*
X6534467Y-11237269D02*
X6534467Y-11161079D01*
X6534467Y-11161079D02*
X6524944Y-11142031D01*
X6524944Y-11142031D02*
X6515420Y-11132508D01*
X6515420Y-11132508D02*
X6496372Y-11122984D01*
X6496372Y-11122984D02*
X6458277Y-11122984D01*
X6458277Y-11122984D02*
X6439229Y-11132508D01*
X6439229Y-11132508D02*
X6429706Y-11142031D01*
X6429706Y-11142031D02*
X6420182Y-11161079D01*
X6420182Y-11161079D02*
X6420182Y-11208698D01*
X6420182Y-11208698D02*
X6429706Y-11227746D01*
X6429706Y-11227746D02*
X6439229Y-11237269D01*
X6439229Y-11237269D02*
X6458277Y-11246793D01*
X6458277Y-11246793D02*
X6496372Y-11246793D01*
X6496372Y-11246793D02*
X6515420Y-11237269D01*
X6515420Y-11237269D02*
X6524944Y-11227746D01*
X6524944Y-11227746D02*
X6534467Y-11208698D01*
X6705896Y-11189650D02*
X6705896Y-11322984D01*
X6658277Y-11113460D02*
X6610658Y-11256317D01*
X6610658Y-11256317D02*
X6734467Y-11256317D01*
X6801134Y-11122984D02*
X6801134Y-11161079D01*
X6877325Y-11122984D02*
X6877325Y-11161079D01*
X7172563Y-11399174D02*
X7163039Y-11389650D01*
X7163039Y-11389650D02*
X7143991Y-11361079D01*
X7143991Y-11361079D02*
X7134468Y-11342031D01*
X7134468Y-11342031D02*
X7124944Y-11313460D01*
X7124944Y-11313460D02*
X7115420Y-11265841D01*
X7115420Y-11265841D02*
X7115420Y-11227746D01*
X7115420Y-11227746D02*
X7124944Y-11180127D01*
X7124944Y-11180127D02*
X7134468Y-11151555D01*
X7134468Y-11151555D02*
X7143991Y-11132508D01*
X7143991Y-11132508D02*
X7163039Y-11103936D01*
X7163039Y-11103936D02*
X7172563Y-11094412D01*
X7239229Y-11142031D02*
X7248753Y-11132508D01*
X7248753Y-11132508D02*
X7267801Y-11122984D01*
X7267801Y-11122984D02*
X7315420Y-11122984D01*
X7315420Y-11122984D02*
X7334468Y-11132508D01*
X7334468Y-11132508D02*
X7343991Y-11142031D01*
X7343991Y-11142031D02*
X7353515Y-11161079D01*
X7353515Y-11161079D02*
X7353515Y-11180127D01*
X7353515Y-11180127D02*
X7343991Y-11208698D01*
X7343991Y-11208698D02*
X7229706Y-11322984D01*
X7229706Y-11322984D02*
X7353515Y-11322984D01*
X7524944Y-11189650D02*
X7524944Y-11322984D01*
X7477325Y-11113460D02*
X7429706Y-11256317D01*
X7429706Y-11256317D02*
X7553515Y-11256317D01*
X7782087Y-11322984D02*
X7782087Y-11122984D01*
X7867801Y-11322984D02*
X7867801Y-11218222D01*
X7867801Y-11218222D02*
X7858277Y-11199174D01*
X7858277Y-11199174D02*
X7839230Y-11189650D01*
X7839230Y-11189650D02*
X7810658Y-11189650D01*
X7810658Y-11189650D02*
X7791610Y-11199174D01*
X7791610Y-11199174D02*
X7782087Y-11208698D01*
X7991610Y-11322984D02*
X7972563Y-11313460D01*
X7972563Y-11313460D02*
X7963039Y-11303936D01*
X7963039Y-11303936D02*
X7953515Y-11284888D01*
X7953515Y-11284888D02*
X7953515Y-11227746D01*
X7953515Y-11227746D02*
X7963039Y-11208698D01*
X7963039Y-11208698D02*
X7972563Y-11199174D01*
X7972563Y-11199174D02*
X7991610Y-11189650D01*
X7991610Y-11189650D02*
X8020182Y-11189650D01*
X8020182Y-11189650D02*
X8039230Y-11199174D01*
X8039230Y-11199174D02*
X8048753Y-11208698D01*
X8048753Y-11208698D02*
X8058277Y-11227746D01*
X8058277Y-11227746D02*
X8058277Y-11284888D01*
X8058277Y-11284888D02*
X8048753Y-11303936D01*
X8048753Y-11303936D02*
X8039230Y-11313460D01*
X8039230Y-11313460D02*
X8020182Y-11322984D01*
X8020182Y-11322984D02*
X7991610Y-11322984D01*
X8172563Y-11322984D02*
X8153515Y-11313460D01*
X8153515Y-11313460D02*
X8143991Y-11294412D01*
X8143991Y-11294412D02*
X8143991Y-11122984D01*
X8324944Y-11313460D02*
X8305896Y-11322984D01*
X8305896Y-11322984D02*
X8267801Y-11322984D01*
X8267801Y-11322984D02*
X8248753Y-11313460D01*
X8248753Y-11313460D02*
X8239230Y-11294412D01*
X8239230Y-11294412D02*
X8239230Y-11218222D01*
X8239230Y-11218222D02*
X8248753Y-11199174D01*
X8248753Y-11199174D02*
X8267801Y-11189650D01*
X8267801Y-11189650D02*
X8305896Y-11189650D01*
X8305896Y-11189650D02*
X8324944Y-11199174D01*
X8324944Y-11199174D02*
X8334468Y-11218222D01*
X8334468Y-11218222D02*
X8334468Y-11237269D01*
X8334468Y-11237269D02*
X8239230Y-11256317D01*
X8410658Y-11313460D02*
X8429706Y-11322984D01*
X8429706Y-11322984D02*
X8467801Y-11322984D01*
X8467801Y-11322984D02*
X8486849Y-11313460D01*
X8486849Y-11313460D02*
X8496373Y-11294412D01*
X8496373Y-11294412D02*
X8496373Y-11284888D01*
X8496373Y-11284888D02*
X8486849Y-11265841D01*
X8486849Y-11265841D02*
X8467801Y-11256317D01*
X8467801Y-11256317D02*
X8439230Y-11256317D01*
X8439230Y-11256317D02*
X8420182Y-11246793D01*
X8420182Y-11246793D02*
X8410658Y-11227746D01*
X8410658Y-11227746D02*
X8410658Y-11218222D01*
X8410658Y-11218222D02*
X8420182Y-11199174D01*
X8420182Y-11199174D02*
X8439230Y-11189650D01*
X8439230Y-11189650D02*
X8467801Y-11189650D01*
X8467801Y-11189650D02*
X8486849Y-11199174D01*
X8563039Y-11399174D02*
X8572563Y-11389650D01*
X8572563Y-11389650D02*
X8591611Y-11361079D01*
X8591611Y-11361079D02*
X8601134Y-11342031D01*
X8601134Y-11342031D02*
X8610658Y-11313460D01*
X8610658Y-11313460D02*
X8620182Y-11265841D01*
X8620182Y-11265841D02*
X8620182Y-11227746D01*
X8620182Y-11227746D02*
X8610658Y-11180127D01*
X8610658Y-11180127D02*
X8601134Y-11151555D01*
X8601134Y-11151555D02*
X8591611Y-11132508D01*
X8591611Y-11132508D02*
X8572563Y-11103936D01*
X8572563Y-11103936D02*
X8563039Y-11094412D01*
X3497500Y-11395500D02*
X3497500Y-11595500D01*
X3397500Y-11495500D02*
X3597500Y-11495500D01*
X3839229Y-11386984D02*
X3963039Y-11386984D01*
X3963039Y-11386984D02*
X3896372Y-11463174D01*
X3896372Y-11463174D02*
X3924943Y-11463174D01*
X3924943Y-11463174D02*
X3943991Y-11472698D01*
X3943991Y-11472698D02*
X3953515Y-11482222D01*
X3953515Y-11482222D02*
X3963039Y-11501269D01*
X3963039Y-11501269D02*
X3963039Y-11548888D01*
X3963039Y-11548888D02*
X3953515Y-11567936D01*
X3953515Y-11567936D02*
X3943991Y-11577460D01*
X3943991Y-11577460D02*
X3924943Y-11586984D01*
X3924943Y-11586984D02*
X3867801Y-11586984D01*
X3867801Y-11586984D02*
X3848753Y-11577460D01*
X3848753Y-11577460D02*
X3839229Y-11567936D01*
X4048753Y-11567936D02*
X4058277Y-11577460D01*
X4058277Y-11577460D02*
X4048753Y-11586984D01*
X4048753Y-11586984D02*
X4039229Y-11577460D01*
X4039229Y-11577460D02*
X4048753Y-11567936D01*
X4048753Y-11567936D02*
X4048753Y-11586984D01*
X4182086Y-11386984D02*
X4201134Y-11386984D01*
X4201134Y-11386984D02*
X4220182Y-11396508D01*
X4220182Y-11396508D02*
X4229705Y-11406031D01*
X4229705Y-11406031D02*
X4239229Y-11425079D01*
X4239229Y-11425079D02*
X4248753Y-11463174D01*
X4248753Y-11463174D02*
X4248753Y-11510793D01*
X4248753Y-11510793D02*
X4239229Y-11548888D01*
X4239229Y-11548888D02*
X4229705Y-11567936D01*
X4229705Y-11567936D02*
X4220182Y-11577460D01*
X4220182Y-11577460D02*
X4201134Y-11586984D01*
X4201134Y-11586984D02*
X4182086Y-11586984D01*
X4182086Y-11586984D02*
X4163039Y-11577460D01*
X4163039Y-11577460D02*
X4153515Y-11567936D01*
X4153515Y-11567936D02*
X4143991Y-11548888D01*
X4143991Y-11548888D02*
X4134467Y-11510793D01*
X4134467Y-11510793D02*
X4134467Y-11463174D01*
X4134467Y-11463174D02*
X4143991Y-11425079D01*
X4143991Y-11425079D02*
X4153515Y-11406031D01*
X4153515Y-11406031D02*
X4163039Y-11396508D01*
X4163039Y-11396508D02*
X4182086Y-11386984D01*
X4372563Y-11386984D02*
X4391610Y-11386984D01*
X4391610Y-11386984D02*
X4410658Y-11396508D01*
X4410658Y-11396508D02*
X4420182Y-11406031D01*
X4420182Y-11406031D02*
X4429705Y-11425079D01*
X4429705Y-11425079D02*
X4439229Y-11463174D01*
X4439229Y-11463174D02*
X4439229Y-11510793D01*
X4439229Y-11510793D02*
X4429705Y-11548888D01*
X4429705Y-11548888D02*
X4420182Y-11567936D01*
X4420182Y-11567936D02*
X4410658Y-11577460D01*
X4410658Y-11577460D02*
X4391610Y-11586984D01*
X4391610Y-11586984D02*
X4372563Y-11586984D01*
X4372563Y-11586984D02*
X4353515Y-11577460D01*
X4353515Y-11577460D02*
X4343991Y-11567936D01*
X4343991Y-11567936D02*
X4334467Y-11548888D01*
X4334467Y-11548888D02*
X4324944Y-11510793D01*
X4324944Y-11510793D02*
X4324944Y-11463174D01*
X4324944Y-11463174D02*
X4334467Y-11425079D01*
X4334467Y-11425079D02*
X4343991Y-11406031D01*
X4343991Y-11406031D02*
X4353515Y-11396508D01*
X4353515Y-11396508D02*
X4372563Y-11386984D01*
X4563039Y-11386984D02*
X4582086Y-11386984D01*
X4582086Y-11386984D02*
X4601134Y-11396508D01*
X4601134Y-11396508D02*
X4610658Y-11406031D01*
X4610658Y-11406031D02*
X4620182Y-11425079D01*
X4620182Y-11425079D02*
X4629705Y-11463174D01*
X4629705Y-11463174D02*
X4629705Y-11510793D01*
X4629705Y-11510793D02*
X4620182Y-11548888D01*
X4620182Y-11548888D02*
X4610658Y-11567936D01*
X4610658Y-11567936D02*
X4601134Y-11577460D01*
X4601134Y-11577460D02*
X4582086Y-11586984D01*
X4582086Y-11586984D02*
X4563039Y-11586984D01*
X4563039Y-11586984D02*
X4543991Y-11577460D01*
X4543991Y-11577460D02*
X4534467Y-11567936D01*
X4534467Y-11567936D02*
X4524944Y-11548888D01*
X4524944Y-11548888D02*
X4515420Y-11510793D01*
X4515420Y-11510793D02*
X4515420Y-11463174D01*
X4515420Y-11463174D02*
X4524944Y-11425079D01*
X4524944Y-11425079D02*
X4534467Y-11406031D01*
X4534467Y-11406031D02*
X4543991Y-11396508D01*
X4543991Y-11396508D02*
X4563039Y-11386984D01*
X4715420Y-11586984D02*
X4715420Y-11453650D01*
X4715420Y-11472698D02*
X4724944Y-11463174D01*
X4724944Y-11463174D02*
X4743991Y-11453650D01*
X4743991Y-11453650D02*
X4772563Y-11453650D01*
X4772563Y-11453650D02*
X4791610Y-11463174D01*
X4791610Y-11463174D02*
X4801134Y-11482222D01*
X4801134Y-11482222D02*
X4801134Y-11586984D01*
X4801134Y-11482222D02*
X4810658Y-11463174D01*
X4810658Y-11463174D02*
X4829705Y-11453650D01*
X4829705Y-11453650D02*
X4858277Y-11453650D01*
X4858277Y-11453650D02*
X4877325Y-11463174D01*
X4877325Y-11463174D02*
X4886848Y-11482222D01*
X4886848Y-11482222D02*
X4886848Y-11586984D01*
X4982086Y-11586984D02*
X4982086Y-11453650D01*
X4982086Y-11472698D02*
X4991610Y-11463174D01*
X4991610Y-11463174D02*
X5010658Y-11453650D01*
X5010658Y-11453650D02*
X5039229Y-11453650D01*
X5039229Y-11453650D02*
X5058277Y-11463174D01*
X5058277Y-11463174D02*
X5067801Y-11482222D01*
X5067801Y-11482222D02*
X5067801Y-11586984D01*
X5067801Y-11482222D02*
X5077325Y-11463174D01*
X5077325Y-11463174D02*
X5096372Y-11453650D01*
X5096372Y-11453650D02*
X5124944Y-11453650D01*
X5124944Y-11453650D02*
X5143991Y-11463174D01*
X5143991Y-11463174D02*
X5153515Y-11482222D01*
X5153515Y-11482222D02*
X5153515Y-11586984D01*
X5543991Y-11377460D02*
X5372563Y-11634603D01*
X5801134Y-11386984D02*
X5820182Y-11386984D01*
X5820182Y-11386984D02*
X5839229Y-11396508D01*
X5839229Y-11396508D02*
X5848753Y-11406031D01*
X5848753Y-11406031D02*
X5858277Y-11425079D01*
X5858277Y-11425079D02*
X5867801Y-11463174D01*
X5867801Y-11463174D02*
X5867801Y-11510793D01*
X5867801Y-11510793D02*
X5858277Y-11548888D01*
X5858277Y-11548888D02*
X5848753Y-11567936D01*
X5848753Y-11567936D02*
X5839229Y-11577460D01*
X5839229Y-11577460D02*
X5820182Y-11586984D01*
X5820182Y-11586984D02*
X5801134Y-11586984D01*
X5801134Y-11586984D02*
X5782086Y-11577460D01*
X5782086Y-11577460D02*
X5772563Y-11567936D01*
X5772563Y-11567936D02*
X5763039Y-11548888D01*
X5763039Y-11548888D02*
X5753515Y-11510793D01*
X5753515Y-11510793D02*
X5753515Y-11463174D01*
X5753515Y-11463174D02*
X5763039Y-11425079D01*
X5763039Y-11425079D02*
X5772563Y-11406031D01*
X5772563Y-11406031D02*
X5782086Y-11396508D01*
X5782086Y-11396508D02*
X5801134Y-11386984D01*
X5953515Y-11567936D02*
X5963039Y-11577460D01*
X5963039Y-11577460D02*
X5953515Y-11586984D01*
X5953515Y-11586984D02*
X5943991Y-11577460D01*
X5943991Y-11577460D02*
X5953515Y-11567936D01*
X5953515Y-11567936D02*
X5953515Y-11586984D01*
X6153515Y-11586984D02*
X6039229Y-11586984D01*
X6096372Y-11586984D02*
X6096372Y-11386984D01*
X6096372Y-11386984D02*
X6077325Y-11415555D01*
X6077325Y-11415555D02*
X6058277Y-11434603D01*
X6058277Y-11434603D02*
X6039229Y-11444127D01*
X6343991Y-11586984D02*
X6229706Y-11586984D01*
X6286848Y-11586984D02*
X6286848Y-11386984D01*
X6286848Y-11386984D02*
X6267801Y-11415555D01*
X6267801Y-11415555D02*
X6248753Y-11434603D01*
X6248753Y-11434603D02*
X6229706Y-11444127D01*
X6458277Y-11472698D02*
X6439229Y-11463174D01*
X6439229Y-11463174D02*
X6429706Y-11453650D01*
X6429706Y-11453650D02*
X6420182Y-11434603D01*
X6420182Y-11434603D02*
X6420182Y-11425079D01*
X6420182Y-11425079D02*
X6429706Y-11406031D01*
X6429706Y-11406031D02*
X6439229Y-11396508D01*
X6439229Y-11396508D02*
X6458277Y-11386984D01*
X6458277Y-11386984D02*
X6496372Y-11386984D01*
X6496372Y-11386984D02*
X6515420Y-11396508D01*
X6515420Y-11396508D02*
X6524944Y-11406031D01*
X6524944Y-11406031D02*
X6534467Y-11425079D01*
X6534467Y-11425079D02*
X6534467Y-11434603D01*
X6534467Y-11434603D02*
X6524944Y-11453650D01*
X6524944Y-11453650D02*
X6515420Y-11463174D01*
X6515420Y-11463174D02*
X6496372Y-11472698D01*
X6496372Y-11472698D02*
X6458277Y-11472698D01*
X6458277Y-11472698D02*
X6439229Y-11482222D01*
X6439229Y-11482222D02*
X6429706Y-11491746D01*
X6429706Y-11491746D02*
X6420182Y-11510793D01*
X6420182Y-11510793D02*
X6420182Y-11548888D01*
X6420182Y-11548888D02*
X6429706Y-11567936D01*
X6429706Y-11567936D02*
X6439229Y-11577460D01*
X6439229Y-11577460D02*
X6458277Y-11586984D01*
X6458277Y-11586984D02*
X6496372Y-11586984D01*
X6496372Y-11586984D02*
X6515420Y-11577460D01*
X6515420Y-11577460D02*
X6524944Y-11567936D01*
X6524944Y-11567936D02*
X6534467Y-11548888D01*
X6534467Y-11548888D02*
X6534467Y-11510793D01*
X6534467Y-11510793D02*
X6524944Y-11491746D01*
X6524944Y-11491746D02*
X6515420Y-11482222D01*
X6515420Y-11482222D02*
X6496372Y-11472698D01*
X6724944Y-11586984D02*
X6610658Y-11586984D01*
X6667801Y-11586984D02*
X6667801Y-11386984D01*
X6667801Y-11386984D02*
X6648753Y-11415555D01*
X6648753Y-11415555D02*
X6629706Y-11434603D01*
X6629706Y-11434603D02*
X6610658Y-11444127D01*
X6801134Y-11386984D02*
X6801134Y-11425079D01*
X6877325Y-11386984D02*
X6877325Y-11425079D01*
X7172563Y-11663174D02*
X7163039Y-11653650D01*
X7163039Y-11653650D02*
X7143991Y-11625079D01*
X7143991Y-11625079D02*
X7134468Y-11606031D01*
X7134468Y-11606031D02*
X7124944Y-11577460D01*
X7124944Y-11577460D02*
X7115420Y-11529841D01*
X7115420Y-11529841D02*
X7115420Y-11491746D01*
X7115420Y-11491746D02*
X7124944Y-11444127D01*
X7124944Y-11444127D02*
X7134468Y-11415555D01*
X7134468Y-11415555D02*
X7143991Y-11396508D01*
X7143991Y-11396508D02*
X7163039Y-11367936D01*
X7163039Y-11367936D02*
X7172563Y-11358412D01*
X7334468Y-11453650D02*
X7334468Y-11586984D01*
X7286848Y-11377460D02*
X7239229Y-11520317D01*
X7239229Y-11520317D02*
X7363039Y-11520317D01*
X7429706Y-11406031D02*
X7439229Y-11396508D01*
X7439229Y-11396508D02*
X7458277Y-11386984D01*
X7458277Y-11386984D02*
X7505896Y-11386984D01*
X7505896Y-11386984D02*
X7524944Y-11396508D01*
X7524944Y-11396508D02*
X7534468Y-11406031D01*
X7534468Y-11406031D02*
X7543991Y-11425079D01*
X7543991Y-11425079D02*
X7543991Y-11444127D01*
X7543991Y-11444127D02*
X7534468Y-11472698D01*
X7534468Y-11472698D02*
X7420182Y-11586984D01*
X7420182Y-11586984D02*
X7543991Y-11586984D01*
X7782087Y-11586984D02*
X7782087Y-11386984D01*
X7867801Y-11586984D02*
X7867801Y-11482222D01*
X7867801Y-11482222D02*
X7858277Y-11463174D01*
X7858277Y-11463174D02*
X7839230Y-11453650D01*
X7839230Y-11453650D02*
X7810658Y-11453650D01*
X7810658Y-11453650D02*
X7791610Y-11463174D01*
X7791610Y-11463174D02*
X7782087Y-11472698D01*
X7991610Y-11586984D02*
X7972563Y-11577460D01*
X7972563Y-11577460D02*
X7963039Y-11567936D01*
X7963039Y-11567936D02*
X7953515Y-11548888D01*
X7953515Y-11548888D02*
X7953515Y-11491746D01*
X7953515Y-11491746D02*
X7963039Y-11472698D01*
X7963039Y-11472698D02*
X7972563Y-11463174D01*
X7972563Y-11463174D02*
X7991610Y-11453650D01*
X7991610Y-11453650D02*
X8020182Y-11453650D01*
X8020182Y-11453650D02*
X8039230Y-11463174D01*
X8039230Y-11463174D02*
X8048753Y-11472698D01*
X8048753Y-11472698D02*
X8058277Y-11491746D01*
X8058277Y-11491746D02*
X8058277Y-11548888D01*
X8058277Y-11548888D02*
X8048753Y-11567936D01*
X8048753Y-11567936D02*
X8039230Y-11577460D01*
X8039230Y-11577460D02*
X8020182Y-11586984D01*
X8020182Y-11586984D02*
X7991610Y-11586984D01*
X8172563Y-11586984D02*
X8153515Y-11577460D01*
X8153515Y-11577460D02*
X8143991Y-11558412D01*
X8143991Y-11558412D02*
X8143991Y-11386984D01*
X8324944Y-11577460D02*
X8305896Y-11586984D01*
X8305896Y-11586984D02*
X8267801Y-11586984D01*
X8267801Y-11586984D02*
X8248753Y-11577460D01*
X8248753Y-11577460D02*
X8239230Y-11558412D01*
X8239230Y-11558412D02*
X8239230Y-11482222D01*
X8239230Y-11482222D02*
X8248753Y-11463174D01*
X8248753Y-11463174D02*
X8267801Y-11453650D01*
X8267801Y-11453650D02*
X8305896Y-11453650D01*
X8305896Y-11453650D02*
X8324944Y-11463174D01*
X8324944Y-11463174D02*
X8334468Y-11482222D01*
X8334468Y-11482222D02*
X8334468Y-11501269D01*
X8334468Y-11501269D02*
X8239230Y-11520317D01*
X8410658Y-11577460D02*
X8429706Y-11586984D01*
X8429706Y-11586984D02*
X8467801Y-11586984D01*
X8467801Y-11586984D02*
X8486849Y-11577460D01*
X8486849Y-11577460D02*
X8496373Y-11558412D01*
X8496373Y-11558412D02*
X8496373Y-11548888D01*
X8496373Y-11548888D02*
X8486849Y-11529841D01*
X8486849Y-11529841D02*
X8467801Y-11520317D01*
X8467801Y-11520317D02*
X8439230Y-11520317D01*
X8439230Y-11520317D02*
X8420182Y-11510793D01*
X8420182Y-11510793D02*
X8410658Y-11491746D01*
X8410658Y-11491746D02*
X8410658Y-11482222D01*
X8410658Y-11482222D02*
X8420182Y-11463174D01*
X8420182Y-11463174D02*
X8439230Y-11453650D01*
X8439230Y-11453650D02*
X8467801Y-11453650D01*
X8467801Y-11453650D02*
X8486849Y-11463174D01*
X8563039Y-11663174D02*
X8572563Y-11653650D01*
X8572563Y-11653650D02*
X8591611Y-11625079D01*
X8591611Y-11625079D02*
X8601134Y-11606031D01*
X8601134Y-11606031D02*
X8610658Y-11577460D01*
X8610658Y-11577460D02*
X8620182Y-11529841D01*
X8620182Y-11529841D02*
X8620182Y-11491746D01*
X8620182Y-11491746D02*
X8610658Y-11444127D01*
X8610658Y-11444127D02*
X8601134Y-11415555D01*
X8601134Y-11415555D02*
X8591611Y-11396508D01*
X8591611Y-11396508D02*
X8572563Y-11367936D01*
X8572563Y-11367936D02*
X8563039Y-11358412D01*
M02*
