M48
; DRILL file {KiCad 8.0.1} date 2024-05-26T01:43:12+0200
; FORMAT={-:-/ absolute / metric / decimal}
; #@! TF.CreationDate,2024-05-26T01:43:12+02:00
; #@! TF.GenerationSoftware,Kicad,Pcbnew,8.0.1
; #@! TF.FileFunction,NonPlated,1,2,NPTH
FMAT,2
METRIC
; #@! TA.AperFunction,NonPlated,NPTH,ComponentDrill
T1C1.600
; #@! TA.AperFunction,NonPlated,NPTH,ComponentDrill
T2C1.750
; #@! TA.AperFunction,NonPlated,NPTH,ComponentDrill
T3C3.988
%
G90
G05
T1
X156.5Y-67.5
X163.5Y-67.5
T2
X39.365Y-35.492
X39.42Y-54.5
X39.471Y-73.558
X49.525Y-35.492
X49.58Y-54.5
X49.631Y-73.558
X58.395Y-35.462
X58.42Y-54.5
X58.441Y-73.558
X68.555Y-35.462
X68.58Y-54.5
X68.601Y-73.558
X77.403Y-49.038
X77.42Y-30.0
X77.463Y-68.064
X87.563Y-49.038
X87.58Y-30.0
X87.623Y-68.064
X96.901Y-28.429
X96.92Y-47.5
X96.931Y-66.533
X107.061Y-28.429
X107.08Y-47.5
X107.091Y-66.533
X107.92Y-88.0
X115.898Y-29.958
X115.917Y-68.101
X115.92Y-49.0
X118.08Y-88.0
X126.058Y-29.958
X126.077Y-68.101
X126.08Y-49.0
X129.593Y-89.185
X134.914Y-32.444
X134.918Y-70.55
X134.92Y-51.5
X139.407Y-91.815
X145.074Y-32.444
X145.078Y-70.55
X145.08Y-51.5
X149.028Y-87.918
X158.236Y-92.212
T3
X44.445Y-35.492
X44.5Y-54.5
X44.551Y-73.558
X63.475Y-35.462
X63.5Y-54.5
X63.521Y-73.558
X82.483Y-49.038
X82.5Y-30.0
X82.543Y-68.064
X101.981Y-28.429
X102.0Y-47.5
X102.011Y-66.533
X113.0Y-88.0
X120.978Y-29.958
X120.997Y-68.101
X121.0Y-49.0
X134.5Y-90.5
X139.994Y-32.444
X139.998Y-70.55
X140.0Y-51.5
X153.632Y-90.065
M30
