%TF.GenerationSoftware,KiCad,Pcbnew,8.0.1*%
%TF.CreationDate,2024-09-02T22:54:56+02:00*%
%TF.ProjectId,KeyboardTest2,4b657962-6f61-4726-9454-657374322e6b,rev?*%
%TF.SameCoordinates,Original*%
%TF.FileFunction,Soldermask,Bot*%
%TF.FilePolarity,Negative*%
%FSLAX46Y46*%
G04 Gerber Fmt 4.6, Leading zero omitted, Abs format (unit mm)*
G04 Created by KiCad (PCBNEW 8.0.1) date 2024-09-02 22:54:56*
%MOMM*%
%LPD*%
G01*
G04 APERTURE LIST*
%ADD10C,3.300000*%
%ADD11C,1.750000*%
%ADD12C,3.987800*%
%ADD13R,1.200000X2.500000*%
%ADD14C,1.600000*%
G04 APERTURE END LIST*
D10*
%TO.C,MX15*%
X85049379Y-62411573D03*
X91399379Y-64951573D03*
D11*
X92669379Y-67491573D03*
D12*
X87589379Y-67491573D03*
D11*
X82509379Y-67491573D03*
%TD*%
D10*
%TO.C,MX13*%
X46964076Y-67526322D03*
X53314076Y-70066322D03*
D11*
X54584076Y-72606322D03*
D12*
X49504076Y-72606322D03*
D11*
X44424076Y-72606322D03*
%TD*%
D10*
%TO.C,MX17*%
X123123800Y-69860431D03*
X129473800Y-72400431D03*
D11*
X130743800Y-74940431D03*
D12*
X125663800Y-74940431D03*
D11*
X120583800Y-74940431D03*
%TD*%
D10*
%TO.C,MX14*%
X66018986Y-64642406D03*
X72368986Y-67182406D03*
D11*
X73638986Y-69722406D03*
D12*
X68558986Y-69722406D03*
D11*
X63478986Y-69722406D03*
%TD*%
D10*
%TO.C,MX10*%
X104040000Y-45420000D03*
X110390000Y-47960000D03*
D11*
X111660000Y-50500000D03*
D12*
X106580000Y-50500000D03*
D11*
X101500000Y-50500000D03*
%TD*%
D10*
%TO.C,MX2*%
X66000000Y-26500000D03*
X72350000Y-29040000D03*
D11*
X73620000Y-31580000D03*
D12*
X68540000Y-31580000D03*
D11*
X63460000Y-31580000D03*
%TD*%
D10*
%TO.C,MX11*%
X123103053Y-50802512D03*
X129453053Y-53342512D03*
D11*
X130723053Y-55882512D03*
D12*
X125643053Y-55882512D03*
D11*
X120563053Y-55882512D03*
%TD*%
D10*
%TO.C,MX16*%
X104100425Y-64445279D03*
X110450425Y-66985279D03*
D11*
X111720425Y-69525279D03*
D12*
X106640425Y-69525279D03*
D11*
X101560425Y-69525279D03*
%TD*%
D10*
%TO.C,MX18*%
X142204753Y-69860431D03*
X148554753Y-72400431D03*
D11*
X149824753Y-74940431D03*
D12*
X144744753Y-74940431D03*
D11*
X139664753Y-74940431D03*
%TD*%
D10*
%TO.C,MX3*%
X85019586Y-24308311D03*
X91369586Y-26848311D03*
D11*
X92639586Y-29388311D03*
D12*
X87559586Y-29388311D03*
D11*
X82479586Y-29388311D03*
%TD*%
D10*
%TO.C,MX5*%
X123078458Y-31764863D03*
X129428458Y-34304863D03*
D11*
X130698458Y-36844863D03*
D12*
X125618458Y-36844863D03*
D11*
X120538458Y-36844863D03*
%TD*%
D10*
%TO.C,MX9*%
X85038105Y-43378827D03*
X91388105Y-45918827D03*
D11*
X92658105Y-48458827D03*
D12*
X87578105Y-48458827D03*
D11*
X82498105Y-48458827D03*
%TD*%
D10*
%TO.C,MX21*%
X74460000Y-84920000D03*
X80810000Y-87460000D03*
D11*
X82080000Y-90000000D03*
D12*
X77000000Y-90000000D03*
D11*
X71920000Y-90000000D03*
%TD*%
D10*
%TO.C,MX4*%
X104057320Y-26381522D03*
X110407320Y-28921522D03*
D11*
X111677320Y-31461522D03*
D12*
X106597320Y-31461522D03*
D11*
X101517320Y-31461522D03*
%TD*%
D10*
%TO.C,MX1*%
X46960000Y-29420000D03*
X53310000Y-31960000D03*
D11*
X54580000Y-34500000D03*
D12*
X49500000Y-34500000D03*
D11*
X44420000Y-34500000D03*
%TD*%
D10*
%TO.C,MX6*%
X142099597Y-31794771D03*
X148449597Y-34334771D03*
D11*
X149719597Y-36874771D03*
D12*
X144639597Y-36874771D03*
D11*
X139559597Y-36874771D03*
%TD*%
D10*
%TO.C,MX12*%
X142154099Y-50802512D03*
X148504099Y-53342512D03*
D11*
X149774099Y-55882512D03*
D12*
X144694099Y-55882512D03*
D11*
X139614099Y-55882512D03*
%TD*%
D10*
%TO.C,MX7*%
X46966488Y-48476107D03*
X53316488Y-51016107D03*
D11*
X54586488Y-53556107D03*
D12*
X49506488Y-53556107D03*
D11*
X44426488Y-53556107D03*
%TD*%
D10*
%TO.C,MX20*%
X51324845Y-89065298D03*
X58115874Y-89875249D03*
D11*
X60000000Y-92000000D03*
D12*
X55093097Y-93314801D03*
D11*
X50186194Y-94629602D03*
%TD*%
D10*
%TO.C,MX19*%
X28447033Y-88469407D03*
X35275538Y-88087803D03*
D11*
X37500000Y-89853099D03*
D12*
X32895956Y-92000000D03*
D11*
X28291912Y-94146901D03*
%TD*%
D10*
%TO.C,MX8*%
X66022349Y-45541895D03*
X72372349Y-48081895D03*
D11*
X73642349Y-50621895D03*
D12*
X68562349Y-50621895D03*
D11*
X63482349Y-50621895D03*
%TD*%
D13*
%TO.C,J2*%
X34350000Y-71750000D03*
X35450000Y-65250000D03*
X27350000Y-71750000D03*
X30350000Y-71750000D03*
D14*
X32750000Y-68500000D03*
X25750000Y-68500000D03*
%TD*%
M02*
