%TF.GenerationSoftware,KiCad,Pcbnew,8.0.1*%
%TF.CreationDate,2024-09-02T22:54:56+02:00*%
%TF.ProjectId,KeyboardTest2,4b657962-6f61-4726-9454-657374322e6b,rev?*%
%TF.SameCoordinates,Original*%
%TF.FileFunction,Legend,Bot*%
%TF.FilePolarity,Positive*%
%FSLAX46Y46*%
G04 Gerber Fmt 4.6, Leading zero omitted, Abs format (unit mm)*
G04 Created by KiCad (PCBNEW 8.0.1) date 2024-09-02 22:54:56*
%MOMM*%
%LPD*%
G01*
G04 APERTURE LIST*
%ADD10C,0.150000*%
%ADD11C,0.120000*%
%ADD12C,3.300000*%
%ADD13C,1.750000*%
%ADD14C,3.987800*%
%ADD15R,1.200000X2.500000*%
%ADD16C,1.600000*%
G04 APERTURE END LIST*
D10*
X38213333Y-60244819D02*
X38213333Y-60959104D01*
X38213333Y-60959104D02*
X38260952Y-61101961D01*
X38260952Y-61101961D02*
X38356190Y-61197200D01*
X38356190Y-61197200D02*
X38499047Y-61244819D01*
X38499047Y-61244819D02*
X38594285Y-61244819D01*
X37213333Y-61244819D02*
X37784761Y-61244819D01*
X37499047Y-61244819D02*
X37499047Y-60244819D01*
X37499047Y-60244819D02*
X37594285Y-60387676D01*
X37594285Y-60387676D02*
X37689523Y-60482914D01*
X37689523Y-60482914D02*
X37784761Y-60530533D01*
X38214285Y-29089819D02*
X38785713Y-29089819D01*
X38499999Y-29089819D02*
X38499999Y-28089819D01*
X38499999Y-28089819D02*
X38595237Y-28232676D01*
X38595237Y-28232676D02*
X38690475Y-28327914D01*
X38690475Y-28327914D02*
X38785713Y-28375533D01*
X33499047Y-28793152D02*
X33118095Y-28793152D01*
X33356190Y-28459819D02*
X33356190Y-29316961D01*
X33356190Y-29316961D02*
X33308571Y-29412200D01*
X33308571Y-29412200D02*
X33213333Y-29459819D01*
X33213333Y-29459819D02*
X33118095Y-29459819D01*
X32641904Y-29459819D02*
X32737142Y-29412200D01*
X32737142Y-29412200D02*
X32784761Y-29364580D01*
X32784761Y-29364580D02*
X32832380Y-29269342D01*
X32832380Y-29269342D02*
X32832380Y-28983628D01*
X32832380Y-28983628D02*
X32784761Y-28888390D01*
X32784761Y-28888390D02*
X32737142Y-28840771D01*
X32737142Y-28840771D02*
X32641904Y-28793152D01*
X32641904Y-28793152D02*
X32499047Y-28793152D01*
X32499047Y-28793152D02*
X32403809Y-28840771D01*
X32403809Y-28840771D02*
X32356190Y-28888390D01*
X32356190Y-28888390D02*
X32308571Y-28983628D01*
X32308571Y-28983628D02*
X32308571Y-29269342D01*
X32308571Y-29269342D02*
X32356190Y-29364580D01*
X32356190Y-29364580D02*
X32403809Y-29412200D01*
X32403809Y-29412200D02*
X32499047Y-29459819D01*
X32499047Y-29459819D02*
X32641904Y-29459819D01*
X31879999Y-28793152D02*
X31879999Y-29793152D01*
X31879999Y-28840771D02*
X31784761Y-28793152D01*
X31784761Y-28793152D02*
X31594285Y-28793152D01*
X31594285Y-28793152D02*
X31499047Y-28840771D01*
X31499047Y-28840771D02*
X31451428Y-28888390D01*
X31451428Y-28888390D02*
X31403809Y-28983628D01*
X31403809Y-28983628D02*
X31403809Y-29269342D01*
X31403809Y-29269342D02*
X31451428Y-29364580D01*
X31451428Y-29364580D02*
X31499047Y-29412200D01*
X31499047Y-29412200D02*
X31594285Y-29459819D01*
X31594285Y-29459819D02*
X31784761Y-29459819D01*
X31784761Y-29459819D02*
X31879999Y-29412200D01*
X31022856Y-29412200D02*
X30927618Y-29459819D01*
X30927618Y-29459819D02*
X30737142Y-29459819D01*
X30737142Y-29459819D02*
X30641904Y-29412200D01*
X30641904Y-29412200D02*
X30594285Y-29316961D01*
X30594285Y-29316961D02*
X30594285Y-29269342D01*
X30594285Y-29269342D02*
X30641904Y-29174104D01*
X30641904Y-29174104D02*
X30737142Y-29126485D01*
X30737142Y-29126485D02*
X30879999Y-29126485D01*
X30879999Y-29126485D02*
X30975237Y-29078866D01*
X30975237Y-29078866D02*
X31022856Y-28983628D01*
X31022856Y-28983628D02*
X31022856Y-28936009D01*
X31022856Y-28936009D02*
X30975237Y-28840771D01*
X30975237Y-28840771D02*
X30879999Y-28793152D01*
X30879999Y-28793152D02*
X30737142Y-28793152D01*
X30737142Y-28793152D02*
X30641904Y-28840771D01*
X30165713Y-29459819D02*
X30165713Y-28793152D01*
X30165713Y-28459819D02*
X30213332Y-28507438D01*
X30213332Y-28507438D02*
X30165713Y-28555057D01*
X30165713Y-28555057D02*
X30118094Y-28507438D01*
X30118094Y-28507438D02*
X30165713Y-28459819D01*
X30165713Y-28459819D02*
X30165713Y-28555057D01*
X29260952Y-29459819D02*
X29260952Y-28459819D01*
X29260952Y-29412200D02*
X29356190Y-29459819D01*
X29356190Y-29459819D02*
X29546666Y-29459819D01*
X29546666Y-29459819D02*
X29641904Y-29412200D01*
X29641904Y-29412200D02*
X29689523Y-29364580D01*
X29689523Y-29364580D02*
X29737142Y-29269342D01*
X29737142Y-29269342D02*
X29737142Y-28983628D01*
X29737142Y-28983628D02*
X29689523Y-28888390D01*
X29689523Y-28888390D02*
X29641904Y-28840771D01*
X29641904Y-28840771D02*
X29546666Y-28793152D01*
X29546666Y-28793152D02*
X29356190Y-28793152D01*
X29356190Y-28793152D02*
X29260952Y-28840771D01*
X28403809Y-29412200D02*
X28499047Y-29459819D01*
X28499047Y-29459819D02*
X28689523Y-29459819D01*
X28689523Y-29459819D02*
X28784761Y-29412200D01*
X28784761Y-29412200D02*
X28832380Y-29316961D01*
X28832380Y-29316961D02*
X28832380Y-28936009D01*
X28832380Y-28936009D02*
X28784761Y-28840771D01*
X28784761Y-28840771D02*
X28689523Y-28793152D01*
X28689523Y-28793152D02*
X28499047Y-28793152D01*
X28499047Y-28793152D02*
X28403809Y-28840771D01*
X28403809Y-28840771D02*
X28356190Y-28936009D01*
X28356190Y-28936009D02*
X28356190Y-29031247D01*
X28356190Y-29031247D02*
X28832380Y-29126485D01*
X32141904Y-27059819D02*
X32141904Y-27869342D01*
X32141904Y-27869342D02*
X32094285Y-27964580D01*
X32094285Y-27964580D02*
X32046666Y-28012200D01*
X32046666Y-28012200D02*
X31951428Y-28059819D01*
X31951428Y-28059819D02*
X31760952Y-28059819D01*
X31760952Y-28059819D02*
X31665714Y-28012200D01*
X31665714Y-28012200D02*
X31618095Y-27964580D01*
X31618095Y-27964580D02*
X31570476Y-27869342D01*
X31570476Y-27869342D02*
X31570476Y-27059819D01*
X31141904Y-28012200D02*
X30999047Y-28059819D01*
X30999047Y-28059819D02*
X30760952Y-28059819D01*
X30760952Y-28059819D02*
X30665714Y-28012200D01*
X30665714Y-28012200D02*
X30618095Y-27964580D01*
X30618095Y-27964580D02*
X30570476Y-27869342D01*
X30570476Y-27869342D02*
X30570476Y-27774104D01*
X30570476Y-27774104D02*
X30618095Y-27678866D01*
X30618095Y-27678866D02*
X30665714Y-27631247D01*
X30665714Y-27631247D02*
X30760952Y-27583628D01*
X30760952Y-27583628D02*
X30951428Y-27536009D01*
X30951428Y-27536009D02*
X31046666Y-27488390D01*
X31046666Y-27488390D02*
X31094285Y-27440771D01*
X31094285Y-27440771D02*
X31141904Y-27345533D01*
X31141904Y-27345533D02*
X31141904Y-27250295D01*
X31141904Y-27250295D02*
X31094285Y-27155057D01*
X31094285Y-27155057D02*
X31046666Y-27107438D01*
X31046666Y-27107438D02*
X30951428Y-27059819D01*
X30951428Y-27059819D02*
X30713333Y-27059819D01*
X30713333Y-27059819D02*
X30570476Y-27107438D01*
X29808571Y-27536009D02*
X29665714Y-27583628D01*
X29665714Y-27583628D02*
X29618095Y-27631247D01*
X29618095Y-27631247D02*
X29570476Y-27726485D01*
X29570476Y-27726485D02*
X29570476Y-27869342D01*
X29570476Y-27869342D02*
X29618095Y-27964580D01*
X29618095Y-27964580D02*
X29665714Y-28012200D01*
X29665714Y-28012200D02*
X29760952Y-28059819D01*
X29760952Y-28059819D02*
X30141904Y-28059819D01*
X30141904Y-28059819D02*
X30141904Y-27059819D01*
X30141904Y-27059819D02*
X29808571Y-27059819D01*
X29808571Y-27059819D02*
X29713333Y-27107438D01*
X29713333Y-27107438D02*
X29665714Y-27155057D01*
X29665714Y-27155057D02*
X29618095Y-27250295D01*
X29618095Y-27250295D02*
X29618095Y-27345533D01*
X29618095Y-27345533D02*
X29665714Y-27440771D01*
X29665714Y-27440771D02*
X29713333Y-27488390D01*
X29713333Y-27488390D02*
X29808571Y-27536009D01*
X29808571Y-27536009D02*
X30141904Y-27536009D01*
X30166666Y-75045180D02*
X30166666Y-74330895D01*
X30166666Y-74330895D02*
X30119047Y-74188038D01*
X30119047Y-74188038D02*
X30023809Y-74092800D01*
X30023809Y-74092800D02*
X29880952Y-74045180D01*
X29880952Y-74045180D02*
X29785714Y-74045180D01*
X30595238Y-74949942D02*
X30642857Y-74997561D01*
X30642857Y-74997561D02*
X30738095Y-75045180D01*
X30738095Y-75045180D02*
X30976190Y-75045180D01*
X30976190Y-75045180D02*
X31071428Y-74997561D01*
X31071428Y-74997561D02*
X31119047Y-74949942D01*
X31119047Y-74949942D02*
X31166666Y-74854704D01*
X31166666Y-74854704D02*
X31166666Y-74759466D01*
X31166666Y-74759466D02*
X31119047Y-74616609D01*
X31119047Y-74616609D02*
X30547619Y-74045180D01*
X30547619Y-74045180D02*
X31166666Y-74045180D01*
%TO.C,J1*%
X21990000Y-59630000D02*
X39770000Y-59630000D01*
X39770000Y-26610000D01*
X21990000Y-26610000D01*
X21990000Y-59630000D01*
X34430000Y-30190000D02*
X27330000Y-30190000D01*
X34430000Y-26610000D02*
X34430000Y-30190000D01*
X27330000Y-26610000D02*
X27330000Y-30190000D01*
D11*
%TO.C,J2*%
X36370000Y-64000000D02*
X36370000Y-71670000D01*
X35150000Y-71670000D02*
X36370000Y-71670000D01*
X34650000Y-65330000D02*
X34650000Y-64000000D01*
X33550000Y-71670000D02*
X31150000Y-71670000D01*
X29550000Y-71670000D02*
X28150000Y-71670000D01*
X26550000Y-71670000D02*
X24030000Y-71670000D01*
X24030000Y-71670000D02*
X24030000Y-71120000D01*
X24030000Y-71120000D02*
X22030000Y-71120000D01*
X24030000Y-65880000D02*
X24030000Y-65330000D01*
X24030000Y-65330000D02*
X34650000Y-65330000D01*
X22030000Y-71120000D02*
X22030000Y-65880000D01*
X22030000Y-65880000D02*
X24030000Y-65880000D01*
%TD*%
%LPC*%
D12*
%TO.C,MX15*%
X85049379Y-62411573D03*
X91399379Y-64951573D03*
D13*
X92669379Y-67491573D03*
D14*
X87589379Y-67491573D03*
D13*
X82509379Y-67491573D03*
%TD*%
D12*
%TO.C,MX13*%
X46964076Y-67526322D03*
X53314076Y-70066322D03*
D13*
X54584076Y-72606322D03*
D14*
X49504076Y-72606322D03*
D13*
X44424076Y-72606322D03*
%TD*%
D12*
%TO.C,MX17*%
X123123800Y-69860431D03*
X129473800Y-72400431D03*
D13*
X130743800Y-74940431D03*
D14*
X125663800Y-74940431D03*
D13*
X120583800Y-74940431D03*
%TD*%
D12*
%TO.C,MX14*%
X66018986Y-64642406D03*
X72368986Y-67182406D03*
D13*
X73638986Y-69722406D03*
D14*
X68558986Y-69722406D03*
D13*
X63478986Y-69722406D03*
%TD*%
D12*
%TO.C,MX10*%
X104040000Y-45420000D03*
X110390000Y-47960000D03*
D13*
X111660000Y-50500000D03*
D14*
X106580000Y-50500000D03*
D13*
X101500000Y-50500000D03*
%TD*%
D12*
%TO.C,MX2*%
X66000000Y-26500000D03*
X72350000Y-29040000D03*
D13*
X73620000Y-31580000D03*
D14*
X68540000Y-31580000D03*
D13*
X63460000Y-31580000D03*
%TD*%
D12*
%TO.C,MX11*%
X123103053Y-50802512D03*
X129453053Y-53342512D03*
D13*
X130723053Y-55882512D03*
D14*
X125643053Y-55882512D03*
D13*
X120563053Y-55882512D03*
%TD*%
D12*
%TO.C,MX16*%
X104100425Y-64445279D03*
X110450425Y-66985279D03*
D13*
X111720425Y-69525279D03*
D14*
X106640425Y-69525279D03*
D13*
X101560425Y-69525279D03*
%TD*%
D12*
%TO.C,MX18*%
X142204753Y-69860431D03*
X148554753Y-72400431D03*
D13*
X149824753Y-74940431D03*
D14*
X144744753Y-74940431D03*
D13*
X139664753Y-74940431D03*
%TD*%
D12*
%TO.C,MX3*%
X85019586Y-24308311D03*
X91369586Y-26848311D03*
D13*
X92639586Y-29388311D03*
D14*
X87559586Y-29388311D03*
D13*
X82479586Y-29388311D03*
%TD*%
D12*
%TO.C,MX5*%
X123078458Y-31764863D03*
X129428458Y-34304863D03*
D13*
X130698458Y-36844863D03*
D14*
X125618458Y-36844863D03*
D13*
X120538458Y-36844863D03*
%TD*%
D12*
%TO.C,MX9*%
X85038105Y-43378827D03*
X91388105Y-45918827D03*
D13*
X92658105Y-48458827D03*
D14*
X87578105Y-48458827D03*
D13*
X82498105Y-48458827D03*
%TD*%
D12*
%TO.C,MX21*%
X74460000Y-84920000D03*
X80810000Y-87460000D03*
D13*
X82080000Y-90000000D03*
D14*
X77000000Y-90000000D03*
D13*
X71920000Y-90000000D03*
%TD*%
D12*
%TO.C,MX4*%
X104057320Y-26381522D03*
X110407320Y-28921522D03*
D13*
X111677320Y-31461522D03*
D14*
X106597320Y-31461522D03*
D13*
X101517320Y-31461522D03*
%TD*%
D12*
%TO.C,MX1*%
X46960000Y-29420000D03*
X53310000Y-31960000D03*
D13*
X54580000Y-34500000D03*
D14*
X49500000Y-34500000D03*
D13*
X44420000Y-34500000D03*
%TD*%
D12*
%TO.C,MX6*%
X142099597Y-31794771D03*
X148449597Y-34334771D03*
D13*
X149719597Y-36874771D03*
D14*
X144639597Y-36874771D03*
D13*
X139559597Y-36874771D03*
%TD*%
D12*
%TO.C,MX12*%
X142154099Y-50802512D03*
X148504099Y-53342512D03*
D13*
X149774099Y-55882512D03*
D14*
X144694099Y-55882512D03*
D13*
X139614099Y-55882512D03*
%TD*%
D12*
%TO.C,MX7*%
X46966488Y-48476107D03*
X53316488Y-51016107D03*
D13*
X54586488Y-53556107D03*
D14*
X49506488Y-53556107D03*
D13*
X44426488Y-53556107D03*
%TD*%
D12*
%TO.C,MX20*%
X51324845Y-89065298D03*
X58115874Y-89875249D03*
D13*
X60000000Y-92000000D03*
D14*
X55093097Y-93314801D03*
D13*
X50186194Y-94629602D03*
%TD*%
D12*
%TO.C,MX19*%
X28447033Y-88469407D03*
X35275538Y-88087803D03*
D13*
X37500000Y-89853099D03*
D14*
X32895956Y-92000000D03*
D13*
X28291912Y-94146901D03*
%TD*%
D12*
%TO.C,MX8*%
X66022349Y-45541895D03*
X72372349Y-48081895D03*
D13*
X73642349Y-50621895D03*
D14*
X68562349Y-50621895D03*
D13*
X63482349Y-50621895D03*
%TD*%
D15*
%TO.C,J2*%
X34350000Y-71750000D03*
X35450000Y-65250000D03*
X27350000Y-71750000D03*
X30350000Y-71750000D03*
D16*
X32750000Y-68500000D03*
X25750000Y-68500000D03*
%TD*%
%LPD*%
M02*
