M48
; DRILL file {KiCad 8.0.1} date 2024-09-02T22:54:41+0200
; FORMAT={-:-/ absolute / metric / decimal}
; #@! TF.CreationDate,2024-09-02T22:54:41+02:00
; #@! TF.GenerationSoftware,Kicad,Pcbnew,8.0.1
; #@! TF.FileFunction,NonPlated,1,2,NPTH
FMAT,2
METRIC
; #@! TA.AperFunction,NonPlated,NPTH,ComponentDrill
T1C1.600
; #@! TA.AperFunction,NonPlated,NPTH,ComponentDrill
T2C1.750
; #@! TA.AperFunction,NonPlated,NPTH,ComponentDrill
T3C3.988
%
G90
G05
T1
X25.75Y-68.5
X32.75Y-68.5
T2
X28.292Y-94.147
X37.5Y-89.853
X44.42Y-34.5
X44.424Y-72.606
X44.426Y-53.556
X50.186Y-94.63
X54.58Y-34.5
X54.584Y-72.606
X54.586Y-53.556
X60.0Y-92.0
X63.46Y-31.58
X63.479Y-69.722
X63.482Y-50.622
X71.92Y-90.0
X73.62Y-31.58
X73.639Y-69.722
X73.642Y-50.622
X82.08Y-90.0
X82.48Y-29.388
X82.498Y-48.459
X82.509Y-67.492
X92.64Y-29.388
X92.658Y-48.459
X92.669Y-67.492
X101.5Y-50.5
X101.517Y-31.462
X101.56Y-69.525
X111.66Y-50.5
X111.677Y-31.462
X111.72Y-69.525
X120.538Y-36.845
X120.563Y-55.883
X120.584Y-74.94
X130.698Y-36.845
X130.723Y-55.883
X130.744Y-74.94
X139.56Y-36.875
X139.614Y-55.883
X139.665Y-74.94
X149.72Y-36.875
X149.774Y-55.883
X149.825Y-74.94
T3
X32.896Y-92.0
X49.5Y-34.5
X49.504Y-72.606
X49.506Y-53.556
X55.093Y-93.315
X68.54Y-31.58
X68.559Y-69.722
X68.562Y-50.622
X77.0Y-90.0
X87.56Y-29.388
X87.578Y-48.459
X87.589Y-67.492
X106.58Y-50.5
X106.597Y-31.462
X106.64Y-69.525
X125.618Y-36.845
X125.643Y-55.883
X125.664Y-74.94
X144.64Y-36.875
X144.694Y-55.883
X144.745Y-74.94
M30
