%TF.GenerationSoftware,KiCad,Pcbnew,8.0.1*%
%TF.CreationDate,2024-09-02T22:54:56+02:00*%
%TF.ProjectId,KeyboardTest2,4b657962-6f61-4726-9454-657374322e6b,rev?*%
%TF.SameCoordinates,Original*%
%TF.FileFunction,Soldermask,Top*%
%TF.FilePolarity,Negative*%
%FSLAX46Y46*%
G04 Gerber Fmt 4.6, Leading zero omitted, Abs format (unit mm)*
G04 Created by KiCad (PCBNEW 8.0.1) date 2024-09-02 22:54:56*
%MOMM*%
%LPD*%
G01*
G04 APERTURE LIST*
G04 Aperture macros list*
%AMRoundRect*
0 Rectangle with rounded corners*
0 $1 Rounding radius*
0 $2 $3 $4 $5 $6 $7 $8 $9 X,Y pos of 4 corners*
0 Add a 4 corners polygon primitive as box body*
4,1,4,$2,$3,$4,$5,$6,$7,$8,$9,$2,$3,0*
0 Add four circle primitives for the rounded corners*
1,1,$1+$1,$2,$3*
1,1,$1+$1,$4,$5*
1,1,$1+$1,$6,$7*
1,1,$1+$1,$8,$9*
0 Add four rect primitives between the rounded corners*
20,1,$1+$1,$2,$3,$4,$5,0*
20,1,$1+$1,$4,$5,$6,$7,0*
20,1,$1+$1,$6,$7,$8,$9,0*
20,1,$1+$1,$8,$9,$2,$3,0*%
G04 Aperture macros list end*
%ADD10C,3.300000*%
%ADD11RoundRect,0.250000X-1.025000X-1.000000X1.025000X-1.000000X1.025000X1.000000X-1.025000X1.000000X0*%
%ADD12C,1.750000*%
%ADD13C,3.987800*%
%ADD14RoundRect,0.225000X0.375000X-0.225000X0.375000X0.225000X-0.375000X0.225000X-0.375000X-0.225000X0*%
%ADD15RoundRect,0.250000X-0.731255X-1.231215X1.248893X-0.700636X0.731255X1.231215X-1.248893X0.700636X0*%
%ADD16RoundRect,0.250000X-0.506347X-1.339492X1.351584X-0.473124X0.506347X1.339492X-1.351584X0.473124X0*%
%ADD17C,1.800000*%
%ADD18RoundRect,0.450000X0.450000X0.450000X-0.450000X0.450000X-0.450000X-0.450000X0.450000X-0.450000X0*%
%ADD19C,1.600000*%
G04 APERTURE END LIST*
D10*
%TO.C,MX15*%
X85049379Y-62411573D03*
D11*
X81499379Y-62411573D03*
X94949379Y-64951573D03*
D10*
X91399379Y-64951573D03*
D12*
X92669379Y-67491573D03*
D13*
X87589379Y-67491573D03*
D12*
X82509379Y-67491573D03*
%TD*%
D10*
%TO.C,MX13*%
X46964076Y-67526322D03*
D11*
X43414076Y-67526322D03*
X56864076Y-70066322D03*
D10*
X53314076Y-70066322D03*
D12*
X54584076Y-72606322D03*
D13*
X49504076Y-72606322D03*
D12*
X44424076Y-72606322D03*
%TD*%
D10*
%TO.C,MX17*%
X123123800Y-69860431D03*
D11*
X119573800Y-69860431D03*
X133023800Y-72400431D03*
D10*
X129473800Y-72400431D03*
D12*
X130743800Y-74940431D03*
D13*
X125663800Y-74940431D03*
D12*
X120583800Y-74940431D03*
%TD*%
D10*
%TO.C,MX14*%
X66018986Y-64642406D03*
D11*
X62468986Y-64642406D03*
X75918986Y-67182406D03*
D10*
X72368986Y-67182406D03*
D12*
X73638986Y-69722406D03*
D13*
X68558986Y-69722406D03*
D12*
X63478986Y-69722406D03*
%TD*%
D14*
%TO.C,D12*%
X139000000Y-58350000D03*
X139000000Y-61650000D03*
%TD*%
D10*
%TO.C,MX10*%
X104040000Y-45420000D03*
D11*
X100490000Y-45420000D03*
X113940000Y-47960000D03*
D10*
X110390000Y-47960000D03*
D12*
X111660000Y-50500000D03*
D13*
X106580000Y-50500000D03*
D12*
X101500000Y-50500000D03*
%TD*%
D10*
%TO.C,MX2*%
X66000000Y-26500000D03*
D11*
X62450000Y-26500000D03*
X75900000Y-29040000D03*
D10*
X72350000Y-29040000D03*
D12*
X73620000Y-31580000D03*
D13*
X68540000Y-31580000D03*
D12*
X63460000Y-31580000D03*
%TD*%
D10*
%TO.C,MX11*%
X123103053Y-50802512D03*
D11*
X119553053Y-50802512D03*
X133003053Y-53342512D03*
D10*
X129453053Y-53342512D03*
D12*
X130723053Y-55882512D03*
D13*
X125643053Y-55882512D03*
D12*
X120563053Y-55882512D03*
%TD*%
D14*
%TO.C,D1*%
X44000000Y-37350000D03*
X44000000Y-40650000D03*
%TD*%
%TO.C,D2*%
X63000000Y-33850000D03*
X63000000Y-37150000D03*
%TD*%
D10*
%TO.C,MX16*%
X104100425Y-64445279D03*
D11*
X100550425Y-64445279D03*
X114000425Y-66985279D03*
D10*
X110450425Y-66985279D03*
D12*
X111720425Y-69525279D03*
D13*
X106640425Y-69525279D03*
D12*
X101560425Y-69525279D03*
%TD*%
D14*
%TO.C,D20*%
X53000000Y-96850000D03*
X53000000Y-100150000D03*
%TD*%
%TO.C,D16*%
X101000000Y-72000000D03*
X101000000Y-75300000D03*
%TD*%
D10*
%TO.C,MX18*%
X142204753Y-69860431D03*
D11*
X138654753Y-69860431D03*
X152104753Y-72400431D03*
D10*
X148554753Y-72400431D03*
D12*
X149824753Y-74940431D03*
D13*
X144744753Y-74940431D03*
D12*
X139664753Y-74940431D03*
%TD*%
D14*
%TO.C,D7*%
X44000000Y-56000000D03*
X44000000Y-59300000D03*
%TD*%
D10*
%TO.C,MX3*%
X85019586Y-24308311D03*
D11*
X81469586Y-24308311D03*
X94919586Y-26848311D03*
D10*
X91369586Y-26848311D03*
D12*
X92639586Y-29388311D03*
D13*
X87559586Y-29388311D03*
D12*
X82479586Y-29388311D03*
%TD*%
D10*
%TO.C,MX5*%
X123078458Y-31764863D03*
D11*
X119528458Y-31764863D03*
X132978458Y-34304863D03*
D10*
X129428458Y-34304863D03*
D12*
X130698458Y-36844863D03*
D13*
X125618458Y-36844863D03*
D12*
X120538458Y-36844863D03*
%TD*%
D14*
%TO.C,D10*%
X101000000Y-53000000D03*
X101000000Y-56300000D03*
%TD*%
%TO.C,D14*%
X63000000Y-71850000D03*
X63000000Y-75150000D03*
%TD*%
D10*
%TO.C,MX9*%
X85038105Y-43378827D03*
D11*
X81488105Y-43378827D03*
X94938105Y-45918827D03*
D10*
X91388105Y-45918827D03*
D12*
X92658105Y-48458827D03*
D13*
X87578105Y-48458827D03*
D12*
X82498105Y-48458827D03*
%TD*%
D10*
%TO.C,MX21*%
X74460000Y-84920000D03*
D11*
X70910000Y-84920000D03*
X84360000Y-87460000D03*
D10*
X80810000Y-87460000D03*
D12*
X82080000Y-90000000D03*
D13*
X77000000Y-90000000D03*
D12*
X71920000Y-90000000D03*
%TD*%
D10*
%TO.C,MX4*%
X104057320Y-26381522D03*
D11*
X100507320Y-26381522D03*
X113957320Y-28921522D03*
D10*
X110407320Y-28921522D03*
D12*
X111677320Y-31461522D03*
D13*
X106597320Y-31461522D03*
D12*
X101517320Y-31461522D03*
%TD*%
D10*
%TO.C,MX1*%
X46960000Y-29420000D03*
D11*
X43410000Y-29420000D03*
X56860000Y-31960000D03*
D10*
X53310000Y-31960000D03*
D12*
X54580000Y-34500000D03*
D13*
X49500000Y-34500000D03*
D12*
X44420000Y-34500000D03*
%TD*%
D10*
%TO.C,MX6*%
X142099597Y-31794771D03*
D11*
X138549597Y-31794771D03*
X151999597Y-34334771D03*
D10*
X148449597Y-34334771D03*
D12*
X149719597Y-36874771D03*
D13*
X144639597Y-36874771D03*
D12*
X139559597Y-36874771D03*
%TD*%
D14*
%TO.C,D3*%
X82000000Y-31850000D03*
X82000000Y-35150000D03*
%TD*%
D10*
%TO.C,MX12*%
X142154099Y-50802512D03*
D11*
X138604099Y-50802512D03*
X152054099Y-53342512D03*
D10*
X148504099Y-53342512D03*
D12*
X149774099Y-55882512D03*
D13*
X144694099Y-55882512D03*
D12*
X139614099Y-55882512D03*
%TD*%
D14*
%TO.C,D21*%
X73000000Y-92350000D03*
X73000000Y-95650000D03*
%TD*%
D10*
%TO.C,MX7*%
X46966488Y-48476107D03*
D11*
X43416488Y-48476107D03*
X56866488Y-51016107D03*
D10*
X53316488Y-51016107D03*
D12*
X54586488Y-53556107D03*
D13*
X49506488Y-53556107D03*
D12*
X44426488Y-53556107D03*
%TD*%
D10*
%TO.C,MX20*%
X51324845Y-89065298D03*
D15*
X47895808Y-89984106D03*
X61544911Y-88956441D03*
D10*
X58115874Y-89875249D03*
D12*
X60000000Y-92000000D03*
D13*
X55093097Y-93314801D03*
D12*
X50186194Y-94629602D03*
%TD*%
D14*
%TO.C,D4*%
X101000000Y-34000000D03*
X101000000Y-37300000D03*
%TD*%
%TO.C,D18*%
X139000000Y-77350000D03*
X139000000Y-80650000D03*
%TD*%
%TO.C,D19*%
X30500000Y-95850000D03*
X30500000Y-99150000D03*
%TD*%
%TO.C,D13*%
X44000000Y-74850000D03*
X44000000Y-78150000D03*
%TD*%
%TO.C,D15*%
X82782089Y-69759564D03*
X82782089Y-73059564D03*
%TD*%
D10*
%TO.C,MX19*%
X28447033Y-88469407D03*
D16*
X25229641Y-89969702D03*
X38492931Y-86587508D03*
D10*
X35275538Y-88087803D03*
D12*
X37500000Y-89853099D03*
D13*
X32895956Y-92000000D03*
D12*
X28291912Y-94146901D03*
%TD*%
D14*
%TO.C,D17*%
X120000000Y-77350000D03*
X120000000Y-80650000D03*
%TD*%
%TO.C,D9*%
X82000000Y-51200000D03*
X82000000Y-54500000D03*
%TD*%
%TO.C,D5*%
X120000000Y-39500000D03*
X120000000Y-42800000D03*
%TD*%
%TO.C,D8*%
X63000000Y-52850000D03*
X63000000Y-56150000D03*
%TD*%
D10*
%TO.C,MX8*%
X66022349Y-45541895D03*
D11*
X62472349Y-45541895D03*
X75922349Y-48081895D03*
D10*
X72372349Y-48081895D03*
D12*
X73642349Y-50621895D03*
D13*
X68562349Y-50621895D03*
D12*
X63482349Y-50621895D03*
%TD*%
D14*
%TO.C,D11*%
X120000000Y-58350000D03*
X120000000Y-61650000D03*
%TD*%
%TO.C,D6*%
X139000000Y-39500000D03*
X139000000Y-42800000D03*
%TD*%
D17*
%TO.C,J1*%
X23260000Y-58360000D03*
X23260000Y-55820000D03*
X23260000Y-53280000D03*
X23260000Y-50740000D03*
X23260000Y-48200000D03*
X23260000Y-45660000D03*
X23260000Y-43120000D03*
X23260000Y-40580000D03*
X23260000Y-38040000D03*
X23260000Y-35500000D03*
D18*
X23260000Y-32960000D03*
D17*
X23260000Y-30420000D03*
X38500000Y-58360000D03*
X38500000Y-55820000D03*
X38500000Y-53280000D03*
X38500000Y-50740000D03*
X38500000Y-48200000D03*
X38500000Y-45660000D03*
X38500000Y-43120000D03*
X38500000Y-40580000D03*
D18*
X38500000Y-38040000D03*
X38500000Y-35500000D03*
D17*
X38500000Y-32960000D03*
X38500000Y-30420000D03*
%TD*%
D19*
%TO.C,J2*%
X32750000Y-68500000D03*
X25750000Y-68500000D03*
%TD*%
M02*
