M48
; DRILL file {KiCad 8.0.1} date 2024-09-02T22:54:41+0200
; FORMAT={-:-/ absolute / metric / decimal}
; #@! TF.CreationDate,2024-09-02T22:54:41+02:00
; #@! TF.GenerationSoftware,Kicad,Pcbnew,8.0.1
; #@! TF.FileFunction,Plated,1,2,PTH
FMAT,2
METRIC
; #@! TA.AperFunction,Plated,PTH,ViaDrill
T1C0.300
; #@! TA.AperFunction,Plated,PTH,ComponentDrill
T2C1.000
; #@! TA.AperFunction,Plated,PTH,ComponentDrill
T3C3.000
%
G90
G05
T1
X26.0Y-57.5
X27.0Y-46.5
X28.5Y-66.5
X30.0Y-57.5
X32.0Y-33.0
X32.0Y-57.5
X41.0Y-78.0
X41.5Y-59.5
X50.5Y-59.0
X51.0Y-40.5
X53.316Y-41.5
X54.5Y-40.5
X56.0Y-59.0
X64.5Y-90.0
X70.0Y-37.0
X70.5Y-56.5
X72.35Y-41.0
X74.0Y-37.0
X74.5Y-56.5
X74.5Y-92.0
X89.0Y-35.0
X89.0Y-56.5
X91.388Y-39.0
X93.0Y-35.0
X94.0Y-56.5
X107.5Y-37.0
X108.0Y-61.0
X110.407Y-41.5
X112.0Y-37.0
X113.5Y-61.0
X126.5Y-61.5
X127.5Y-42.5
X129.428Y-45.0
X131.0Y-42.5
X132.5Y-61.5
X148.495Y-46.0
T2
X23.26Y-30.42
X23.26Y-32.96
X23.26Y-35.5
X23.26Y-38.04
X23.26Y-40.58
X23.26Y-43.12
X23.26Y-45.66
X23.26Y-48.2
X23.26Y-50.74
X23.26Y-53.28
X23.26Y-55.82
X23.26Y-58.36
X38.5Y-30.42
X38.5Y-32.96
X38.5Y-35.5
X38.5Y-38.04
X38.5Y-40.58
X38.5Y-43.12
X38.5Y-45.66
X38.5Y-48.2
X38.5Y-50.74
X38.5Y-53.28
X38.5Y-55.82
X38.5Y-58.36
T3
X28.447Y-88.469
X35.276Y-88.088
X46.96Y-29.42
X46.964Y-67.526
X46.966Y-48.476
X51.325Y-89.065
X53.31Y-31.96
X53.314Y-70.066
X53.316Y-51.016
X58.116Y-89.875
X66.0Y-26.5
X66.019Y-64.642
X66.022Y-45.542
X72.35Y-29.04
X72.369Y-67.182
X72.372Y-48.082
X74.46Y-84.92
X80.81Y-87.46
X85.02Y-24.308
X85.038Y-43.379
X85.049Y-62.412
X91.37Y-26.848
X91.388Y-45.919
X91.399Y-64.952
X104.04Y-45.42
X104.057Y-26.382
X104.1Y-64.445
X110.39Y-47.96
X110.407Y-28.922
X110.45Y-66.985
X123.078Y-31.765
X123.103Y-50.803
X123.124Y-69.86
X129.428Y-34.305
X129.453Y-53.343
X129.474Y-72.4
X142.1Y-31.795
X142.154Y-50.803
X142.205Y-69.86
X148.45Y-34.335
X148.504Y-53.343
X148.555Y-72.4
M30
